<svg width="72" height="68" viewBox="0 0 72 68" fill="none" xmlns="http://www.w3.org/2000/svg">
<rect width="72" height="68" rx="12" fill="#FF9E0C"/>
<path d="M40.6879 33.125C39.2504 34.5625 37.8754 35.9375 36.4379 37.375C35.5629 36.5 34.6254 35.5625 33.7504 34.6875C32.6254 33.5625 30.8129 35.3125 32.0004 36.4375C33.1879 37.625 34.3754 38.8125 35.5629 40C36.0629 40.5 36.8754 40.5 37.3129 40L42.4379 34.875C43.6254 33.75 41.8754 32 40.6879 33.125Z" fill="white"/>
<path d="M48.2503 19.5C48.2503 19.375 48.2503 19.25 48.2503 19.125C48.2503 18.5 47.6878 17.875 47.0003 17.875C46.3128 17.875 45.7503 18.4375 45.7503 19.125V19.5H30.3128V19.4375C30.3128 19.3125 30.3128 19.1875 30.3128 19.0625C30.3128 18.4375 29.7503 17.8125 29.0628 17.8125C28.3753 17.8125 27.8128 18.375 27.8128 19.0625V19.5625C24.9378 19.5625 22.5628 21.9375 22.5628 24.8125V29.625C22.5003 29.8125 22.4378 29.9375 22.4378 30.125C22.0628 32.8125 21.4378 35.5 20.5628 38.0625C20.1253 39.25 19.6253 40.5 19.0628 41.625C18.5628 42.6875 18.6253 43.875 19.2503 44.8125C19.8753 45.75 20.8753 46.3125 22.0003 46.3125H22.6878C23.2503 48.625 25.3128 50.3125 27.8128 50.3125H48.0628C50.9378 50.3125 53.3128 47.9375 53.3128 45.0625V24.75C53.3128 21.875 51.0628 19.625 48.2503 19.5ZM27.7503 22V22.25C27.7503 22.875 28.3128 23.5 29.0003 23.5C29.6878 23.5 30.2503 22.9375 30.2503 22.25C30.2503 22.1875 30.2503 22.0625 30.2503 22H45.7503V22.375C45.7503 23 46.3128 23.625 47.0003 23.625C47.6878 23.625 48.2503 23.0625 48.2503 22.375C48.2503 22.25 48.2503 22.125 48.2503 22C49.6878 22.125 50.8128 23.3125 50.8128 24.75V27.75C50.7503 27.75 50.6253 27.75 50.5628 27.75H25.0003V24.75C25.0003 23.1875 26.2503 22 27.7503 22ZM21.3128 43.4375C21.1878 43.1875 21.1253 42.9375 21.2503 42.6875C21.8128 41.4375 22.3753 40.1875 22.8128 38.875C23.7503 36.125 24.4378 33.3125 24.8128 30.4375C24.8128 30.375 24.8753 30.3125 24.9378 30.3125H50.5003C50.5003 30.3125 50.5628 30.3125 50.6253 30.375C50.6253 30.375 50.6878 30.4375 50.6878 30.5C50.3753 33.3125 49.7503 36.0625 48.8753 38.6875C48.4378 40 47.8753 41.3125 47.2503 42.625C46.8753 43.375 46.0628 43.875 45.1878 43.875H22.0003C21.6878 43.75 21.4378 43.625 21.3128 43.4375ZM48.0628 47.75H27.7503C26.6878 47.75 25.8128 47.125 25.3128 46.25H45.1253C46.9378 46.25 48.6253 45.1875 49.4378 43.5625C49.9378 42.5625 50.3753 41.5 50.7503 40.4375V45C50.8128 46.5 49.5628 47.75 48.0628 47.75Z" fill="white"/>
</svg>
