<svg width="72" height="68" viewBox="0 0 72 68" fill="none" xmlns="http://www.w3.org/2000/svg">
<rect width="72" height="68" rx="12" fill="#FF9E0C"/>
<path fill-rule="evenodd" clip-rule="evenodd" d="M37.5215 46.9506H22.2176C22.1369 46.9506 22.0593 46.9186 22.0029 46.8623C21.945 46.8044 21.9131 46.7267 21.9131 46.646V44.438C21.9131 43.1741 22.8161 42.0594 24.2079 41.1107C26.6931 39.4159 30.7147 38.3469 35.2374 38.3469C35.8678 38.3469 36.3794 37.8353 36.3794 37.2048C36.3794 36.5744 35.8678 36.0627 35.2374 36.0627C30.1787 36.0627 25.7002 37.3282 22.9196 39.224C20.7984 40.6707 19.6289 42.5087 19.6289 44.438V46.646C19.6289 47.3328 19.9015 47.9922 20.3872 48.4764C20.873 48.9622 21.5309 49.2348 22.2176 49.2348H37.5215C38.152 49.2348 38.6636 48.7231 38.6636 48.0927C38.6636 47.4622 38.152 46.9506 37.5215 46.9506Z" fill="white"/>
<path fill-rule="evenodd" clip-rule="evenodd" d="M35.2385 18C30.6154 18 26.8633 21.7521 26.8633 26.3753C26.8633 30.9969 30.6154 34.7505 35.2385 34.7505C39.8617 34.7505 43.6138 30.9969 43.6138 26.3753C43.6138 21.7521 39.8617 18 35.2385 18ZM35.2385 20.2842C38.6008 20.2842 41.3297 23.013 41.3297 26.3753C41.3297 29.736 38.6008 32.4664 35.2385 32.4664C31.8763 32.4664 29.1474 29.736 29.1474 26.3753C29.1474 23.013 31.8763 20.2842 35.2385 20.2842Z" fill="white"/>
<path fill-rule="evenodd" clip-rule="evenodd" d="M43.5651 49.6648C43.7783 49.878 44.0691 49.9983 44.3721 49.9983C44.6752 49.9983 44.966 49.878 45.1792 49.6648L50.8576 43.9864C52.8692 41.9748 52.8692 38.7069 50.8576 36.6938C49.0958 34.9335 46.3731 34.7127 44.3721 36.0344C42.3712 34.7127 39.6485 34.9335 37.8866 36.6938C35.8827 38.6993 35.8751 41.9489 37.8638 43.9635L43.5651 49.6648ZM44.3721 47.2421L39.4871 42.357C38.3815 41.2347 38.3861 39.4256 39.5023 38.3094C40.6231 37.1887 42.4443 37.1887 43.5651 38.3094C44.0112 38.7556 44.733 38.7556 45.1792 38.3094C46.3015 37.1887 48.1212 37.1887 49.242 38.3094C50.3627 39.4302 50.3627 41.2499 49.242 42.3722L44.3721 47.2421Z" fill="white"/>
</svg>
