<svg width="357" height="238" viewBox="0 0 357 238" fill="none" xmlns="http://www.w3.org/2000/svg">
<path d="M354.908 133.757C352.236 103.765 347.835 97.9242 346.172 95.7273C342.35 90.6508 336.234 87.3332 329.762 83.8523C329.396 83.6588 329.08 83.3829 328.839 83.0463C328.598 82.7098 328.439 82.3218 328.373 81.913C328.308 81.5042 328.338 81.0858 328.462 80.6908C328.586 80.2957 328.8 79.9349 329.087 79.6367C330.286 78.4212 331.207 76.9606 331.787 75.3553C332.367 73.75 332.593 72.038 332.449 70.3371C332.17 67.3209 330.768 64.5198 328.52 62.4893C326.272 60.4588 323.343 59.3472 320.314 59.375H308.736C308.24 59.3779 307.744 59.4102 307.252 59.4715C306.914 59.3249 306.564 59.2082 306.205 59.1227C299.348 44.6277 289.959 24.7816 270.499 15.0961C241.635 0.742185 188.465 0 178.074 0C167.684 0 114.513 0.742186 85.6867 15.0738C66.2265 24.7594 56.8379 44.6055 49.9801 59.1004L49.9207 59.2191C49.5786 59.2673 49.2428 59.3519 48.9187 59.4715C48.4263 59.4102 47.9306 59.3779 47.4344 59.375H35.834C32.805 59.3472 29.8763 60.4588 27.6286 62.4893C25.3808 64.5198 23.9783 67.3209 23.6992 70.3371C23.5674 72.0341 23.8035 73.7395 24.3914 75.3368C24.9794 76.9341 25.9053 78.3857 27.1058 79.5922C27.3931 79.8904 27.607 80.2512 27.7309 80.6462C27.8548 81.0413 27.8852 81.4597 27.8197 81.8685C27.7542 82.2773 27.5947 82.6653 27.3536 83.0018C27.1124 83.3384 26.7964 83.6143 26.4304 83.8078C19.9586 87.3109 13.8133 90.6285 10.0207 95.6828C8.35818 97.9094 3.96443 103.721 1.28513 133.713C-0.199243 150.59 -0.421899 168.061 0.743335 179.312C3.18513 202.691 7.76443 216.823 7.9574 217.409C8.66009 219.543 9.95358 221.433 11.6877 222.861C13.4218 224.289 15.5254 225.196 17.7543 225.477V225.625C17.7543 228.774 19.0054 231.795 21.2324 234.022C23.4594 236.249 26.4798 237.5 29.6293 237.5H71.1918C74.3412 237.5 77.3617 236.249 79.5887 234.022C81.8157 231.795 83.0668 228.774 83.0668 225.625C89.457 225.625 93.9027 224.482 98.6156 223.265C105.42 221.431 112.375 220.212 119.397 219.621C142.041 217.461 164.559 216.719 178.074 216.719C191.315 216.719 214.827 217.461 237.509 219.621C244.558 220.213 251.541 221.438 258.371 223.28C262.884 224.438 267.166 225.506 273.096 225.618C273.096 228.767 274.348 231.787 276.575 234.014C278.802 236.241 281.822 237.493 284.971 237.493H326.534C329.683 237.493 332.704 236.241 334.931 234.014C337.158 231.787 338.409 228.767 338.409 225.618V225.529C340.643 225.253 342.753 224.349 344.493 222.921C346.233 221.492 347.531 219.599 348.236 217.461C348.428 216.875 353.008 202.743 355.45 179.364C356.615 168.105 356.407 150.664 354.908 133.757ZM71.4441 69.2535C77.3816 56.6363 84.1726 42.3566 96.2629 36.3375C113.734 27.6391 149.945 23.7203 178.074 23.7203C206.203 23.7203 242.414 27.6094 259.886 36.3375C271.976 42.3566 278.737 56.6437 284.704 69.2535L285.446 70.8641C285.88 71.7809 286.072 72.7937 286.004 73.8058C285.935 74.8179 285.608 75.7955 285.055 76.6454C284.501 77.4954 283.739 78.1893 282.841 78.661C281.943 79.1326 280.939 79.3664 279.925 79.3398C255.262 78.6719 203.309 76.5344 178.074 76.5344C152.84 76.5344 100.887 78.7238 76.1867 79.3918C75.1726 79.4183 74.1687 79.1846 73.2706 78.7129C72.3726 78.2412 71.6103 77.5473 71.0566 76.6974C70.5029 75.8475 70.1761 74.8698 70.1075 73.8577C70.039 72.8457 70.2308 71.8329 70.6648 70.916C70.9246 70.3668 71.1992 69.8102 71.4441 69.2535ZM80.2984 128.354C67.5313 129.891 54.6826 130.649 41.8234 130.625C33.9562 130.625 25.8441 128.398 24.3375 121.392C23.3058 116.679 23.4172 114.03 23.9738 111.365C24.4414 109.102 25.1836 107.454 28.8945 106.875C38.5429 105.391 43.9387 107.254 59.7324 111.907C70.2047 114.987 77.7601 119.091 82.0648 122.342C84.2246 123.945 83.0742 128.131 80.2984 128.354ZM244.604 189.213C234.837 190.327 215.302 189.918 178.297 189.918C141.291 189.918 121.764 190.327 111.997 189.213C101.918 188.093 89.0711 178.563 97.8437 170.072C103.685 164.476 117.311 160.29 135.458 157.937C153.604 155.585 161.286 154.375 178.223 154.375C195.159 154.375 202.062 155.117 220.987 157.945C239.913 160.773 254.215 165.011 258.602 170.08C266.602 179.164 254.675 188.033 244.604 189.258V189.213ZM331.811 121.385C330.327 128.421 322.162 130.618 314.325 130.618C301.22 130.621 288.125 129.862 275.108 128.346C272.837 128.131 271.783 124.146 274.084 122.335C278.321 119.002 285.959 114.98 296.416 111.9C312.21 107.246 321.316 105.383 329.139 106.934C331.046 107.313 332.056 109.361 332.175 110.645C332.698 114.22 332.575 117.861 331.811 121.392V121.385Z" fill="black" fill-opacity="0.2"/>
</svg>
