<svg width="72" height="68" viewBox="0 0 72 68" fill="none" xmlns="http://www.w3.org/2000/svg">
<rect width="72" height="68" rx="12" fill="#FF9E0C"/>
<path d="M56 37.6627C56 42.0505 54.6035 46.2156 51.9616 49.7083C51.4404 50.3977 50.4601 50.5314 49.7729 50.0117C49.0847 49.491 48.9489 48.5111 49.4692 47.8229C51.6973 44.8777 52.875 41.3642 52.875 37.6627C52.875 28.3359 45.3216 20.7969 36 20.7969C26.672 20.7969 19.125 28.3417 19.125 37.6627C19.125 41.3642 20.3027 44.8777 22.5305 47.8229C23.0511 48.5111 22.9153 49.491 22.2271 50.0117C21.5386 50.5323 20.559 50.3965 20.0381 49.7083C17.3965 46.2156 16 42.0505 16 37.6627C16 26.608 24.9514 17.6719 36 17.6719C47.0547 17.6719 56 26.6141 56 37.6627ZM45.9002 28.2526C46.5103 28.8627 46.5103 29.8521 45.9002 30.4621L40.8071 35.5552C41.2264 36.3282 41.4651 37.2132 41.4651 38.1525C41.4651 41.1661 39.0133 43.6176 36 43.6176C32.9864 43.6176 30.5349 41.1661 30.5349 38.1525C30.5349 35.1392 32.9864 32.6874 36 32.6874C36.9396 32.6874 37.8243 32.9261 38.5974 33.3454L43.6904 28.2523C44.3008 27.6423 45.2899 27.6423 45.9002 28.2526ZM38.3401 38.1528C38.3401 36.8625 37.2903 35.8127 36 35.8127C34.7097 35.8127 33.6599 36.8625 33.6599 38.1528C33.6599 39.4431 34.7097 40.4929 36 40.4929C37.2903 40.4929 38.3401 39.4431 38.3401 38.1528Z" fill="white"/>
</svg>
