<svg width="64" height="32" viewBox="0 0 64 32" fill="none" xmlns="http://www.w3.org/2000/svg">
<g clip-path="url(#clip0_601_667)">
<path d="M6.43102 6.23937C6.71677 5.59701 6.96221 5.07529 8.76028 5.07529H19.1401C19.7125 5.07529 20.2842 4.79422 20.2842 3.99206V1.14364C20.2842 0.820694 20.6115 0.378775 21.4694 0.378775H42.9649C43.5776 0.378775 44.0687 0.700266 44.0687 1.46284V3.71099C44.0687 4.31271 44.3544 4.95486 45.2535 4.95486H62.4986C63.1113 4.95486 63.9287 5.11488 63.5612 5.87829C63.193 6.64003 57.5949 17.7949 57.2152 18.5402C57.0694 18.8258 56.9559 19.2067 55.8225 19.2067H45.2216C44.7191 19.2067 43.8934 19.2067 43.8934 20.1612V22.816C43.8934 23.1977 43.6026 23.7705 42.6796 23.7705H21.4115C20.7475 23.7705 20.2621 23.4355 20.2621 22.7842V20.4468C20.2621 19.938 19.9865 19.1915 19.2099 19.1915H1.35694C0.789895 19.1915 0.255948 18.7619 0.596003 17.936C0.936057 17.1086 6.43102 6.23937 6.43102 6.23937Z" fill="#C7D6EE"/>
<path d="M1.96057 16.695L2.45676 16.6964L7.33462 7.16423L6.83822 7.16278L1.96057 16.695Z" fill="url(#paint0_linear_601_667)"/>
<path d="M19.2522 18.0411H2.55492C1.97239 18.0411 1.76811 17.7798 1.99488 17.335C3.25921 14.8652 7.41687 6.74288 7.52464 6.52723C7.65107 6.27367 7.95718 5.96363 8.52253 5.96363H19.7271C20.8894 5.96363 21.0876 5.46463 21.0876 4.56329V1.87885C21.0876 1.51777 21.3313 1.27775 21.7603 1.27775H42.2821C42.8332 1.27775 43.0774 1.45672 43.0774 1.8178V3.80092C43.0774 4.58245 42.927 5.84383 44.7005 5.84383H61.658C62.4196 5.84383 62.6173 6.34826 62.2142 7.14667C60.7136 10.1199 57.0209 17.1696 56.9061 17.4087C56.7606 17.7127 56.309 17.9803 55.5875 17.9803H44.4565C43.5382 17.9803 42.6211 18.5812 42.6211 19.4831V21.774C42.6211 22.1913 42.3659 22.487 41.9121 22.487H21.9995C21.3835 22.487 21.1485 22.1442 21.1485 21.6871V19.6029C21.1485 18.8822 20.6591 18.0411 19.2522 18.0411Z" fill="#E9CF98"/>
<path d="M41.5193 17.5033L43.8581 19.8975C43.8581 19.8975 44.025 19.3727 44.6591 19.2425L42.0401 16.8428C42.0401 16.8428 41.6194 17.0766 41.5193 17.5033Z" fill="white"/>
<path d="M19.3064 19.2089C19.3064 19.2089 20.2419 19.2424 20.2419 20.4559L22.4129 17.306L21.8117 16.8793L19.3064 19.2089Z" fill="white"/>
<path d="M42.3825 7.28146L44.8486 4.9206C44.8486 4.9206 44.5143 4.88039 44.1793 4.34638L41.734 6.78933L42.3825 7.28146Z" fill="white"/>
<path d="M41.316 2.45778L43.5944 0.549467C43.5944 0.549467 43.8453 0.692607 43.9497 0.91888L41.567 3.0741L41.316 2.45778Z" fill="white"/>
<path d="M20.3004 1.2404C20.3004 0.845152 20.6742 0.378855 21.2862 0.378855L23.0147 2.47761C23.0147 2.47761 22.4973 2.47761 22.4161 2.66492C22.3337 2.85244 22.2523 3.25394 22.2523 3.25394L20.3004 1.2404Z" fill="white"/>
<path d="M19.5543 5.02051C19.5543 5.02051 20.293 4.9055 20.293 4.13001L22.0064 6.11L20.9143 6.88528L19.5543 5.02051Z" fill="white"/>
<path d="M32.2237 0.378755L32.145 1.28156H42.0185C42.3424 1.28156 42.5246 1.36156 42.6468 1.60013L43.7402 0.645448C43.7402 0.645448 43.4655 0.378755 42.965 0.378755H32.2237Z" fill="url(#paint1_linear_601_667)"/>
<path d="M21.286 0.378768C21.0227 0.378768 20.7187 0.506698 20.5575 0.704843L21.266 1.46054C21.266 1.46054 21.4075 1.28157 21.9746 1.28157H32.145L32.2237 0.378768H21.286Z" fill="url(#paint2_linear_601_667)"/>
<path d="M20.3004 1.24053V3.99205C20.3004 4.42397 20.2124 4.52982 20.2124 4.52982L20.9941 5.34573C20.9941 5.34573 21.1059 5.06404 21.1059 4.8909V2.16458C21.1059 1.99248 21.1216 1.74162 21.1216 1.74162L20.3876 0.84882C20.3876 0.84882 20.3004 1.00488 20.3004 1.24053Z" fill="url(#paint3_linear_601_667)"/>
<path d="M43.0932 1.65785C43.0932 1.65785 43.072 1.97788 43.072 2.14998C43.072 2.32208 43.0932 4.64627 43.0932 4.81879C43.0932 4.99089 43.3484 5.31009 43.3484 5.31009L44.284 4.49709C44.284 4.49709 44.0621 4.42395 44.0621 3.99204V1.24051C44.0621 1.00486 43.8658 0.848802 43.8658 0.848802L43.0932 1.65785Z" fill="url(#paint4_linear_601_667)"/>
<path d="M19.1993 5.07841C18.9061 5.07841 8.83364 5.08987 8.29693 5.08987C7.51818 5.08987 7.06018 5.4272 7.06018 5.4272L7.70083 6.27374C7.70083 6.27374 7.95709 5.9635 8.52265 5.9635H19.8883C20.2841 5.9635 20.5815 5.78765 20.5815 5.78765L19.8388 4.91152C19.8388 4.91152 19.4742 5.07841 19.1993 5.07841Z" fill="url(#paint5_linear_601_667)"/>
<path d="M1.6596 17.4088L0.498158 18.2087C0.498158 18.2087 0.406089 18.5394 0.579616 18.8006C0.753568 19.0611 1.01916 19.1015 1.01916 19.1015L2.53085 18.041C2.53085 18.041 1.6753 18.0014 2.03127 17.379C2.38723 16.7567 2.36793 16.5221 2.36793 16.5221C2.36793 16.5221 1.95256 16.5892 1.6596 17.4088Z" fill="url(#paint6_linear_601_667)"/>
<path d="M4.84881 9.5753C3.92262 11.4476 0.811854 17.4621 0.703028 17.6769C0.59399 17.8909 0.484741 18.2651 0.484741 18.2651L1.68352 17.4088L7.30068 6.41769C7.30068 6.41769 5.77521 7.70199 4.84881 9.5753Z" fill="url(#paint7_linear_601_667)"/>
<path d="M2.55478 18.067L1.01404 19.1556C1.01404 19.1556 18.5641 19.1981 19.0074 19.1981C19.4502 19.1981 19.6362 19.2813 19.6362 19.2813L20.4266 18.3991C20.4266 18.3991 19.6716 18.067 19.2522 18.067H2.55478Z" fill="url(#paint8_linear_601_667)"/>
<path d="M20.0864 19.7636C20.0864 19.7636 20.2481 20.0826 20.2481 20.3372V22.6164C20.2481 22.9425 20.3775 23.2253 20.3775 23.2253L21.1486 22.3331V19.6028C21.1486 19.1671 20.904 18.8006 20.904 18.8006L20.0864 19.7636Z" fill="url(#paint9_linear_601_667)"/>
<path d="M42.6187 19.3209V22.0512L43.8287 23.0911C43.8287 23.0911 43.8588 22.8137 43.8588 22.4885V20.2083C43.8588 19.9541 43.9337 19.7941 43.9337 19.7941L42.8758 18.755C42.8758 18.755 42.6187 18.8844 42.6187 19.3209Z" fill="url(#paint10_linear_601_667)"/>
<path d="M41.7135 22.5068H32.1996V23.7751H42.7273C43.0851 23.7751 43.5024 23.5413 43.5818 23.4819L42.3887 22.3706C42.3887 22.3706 42.31 22.5068 41.7135 22.5068Z" fill="url(#paint11_linear_601_667)"/>
<path d="M20.7402 23.6167C20.7402 23.6167 20.9853 23.7874 21.67 23.7874C22.3542 23.7874 32.1996 23.7751 32.1996 23.7751V22.5068H22.0379C21.8539 22.5068 21.7309 22.4733 21.7309 22.4733L20.7402 23.6167Z" fill="url(#paint12_linear_601_667)"/>
<path d="M23.4732 2.4517C22.922 2.4517 22.3717 2.75256 22.3717 3.35366V6.29813C22.3717 6.89839 22.0043 7.13904 21.5762 7.13904H9.39325C8.89834 7.13904 8.51543 7.34177 8.29544 7.75077C8.11534 8.08684 5.07288 14.076 4.08963 16.0116C3.87643 16.4314 4.06269 16.6867 4.60979 16.6867H21.638C22.3717 16.6867 22.4944 17.348 22.4944 18.0085V20.2966C22.4944 20.7181 22.9222 21.1988 23.4119 21.1988H31.9781V2.4517H23.4732Z" fill="url(#paint13_linear_601_667)"/>
<path d="M43.4208 18.3183L44.4017 19.3086C44.4017 19.3086 44.6465 19.1755 45.7912 19.1755H56.2527C56.4701 19.1755 56.7699 19.0681 56.7699 19.0681L51.2399 17.9712C51.2399 17.9712 44.8374 17.9755 44.5379 17.9712C44.5266 17.971 44.5154 17.9707 44.5042 17.9707C43.855 17.9707 43.4208 18.3183 43.4208 18.3183Z" fill="url(#paint14_linear_601_667)"/>
<path d="M43.7891 5.66869C43.7891 5.66869 44.2672 5.82557 44.6578 5.82557H61.1295C61.6308 5.82557 61.9233 5.86224 61.9233 5.86224L63.2545 5.083C63.2545 5.083 62.8272 4.96319 62.4002 4.96319H45.2935C44.8661 4.96319 44.6879 4.86506 44.6879 4.86506L43.7891 5.66869Z" fill="url(#paint15_linear_601_667)"/>
<path d="M62.4086 6.28354C62.4086 6.28354 62.484 6.694 62.3416 6.97298C62.1997 7.25176 57.2211 16.8688 56.9964 17.3105C56.7709 17.7518 56.2631 17.9147 56.2631 17.9147L56.8303 19.029C56.8303 19.029 57.0314 18.879 57.15 18.7275C57.2682 18.5767 63.394 6.33375 63.5835 5.90433C63.7723 5.4745 63.6064 5.31907 63.6064 5.31907L62.4086 6.28354Z" fill="url(#paint16_linear_601_667)"/>
<path d="M55.7349 17.9976C55.0811 17.9976 51.4031 18.0251 51.4031 18.0251L56.6337 19.0681C56.6337 19.0681 56.9608 18.9354 57.1244 18.6666C57.2882 18.3991 57.124 18.3191 56.9335 18.4793C56.7432 18.6408 56.4163 18.3733 56.5792 18.1858C56.7432 17.9976 56.9061 17.4088 56.9061 17.4088C56.9061 17.4088 56.3891 17.9976 55.7349 17.9976Z" fill="url(#paint17_linear_601_667)"/>
<path d="M7.07438 17.1696C3.6488 17.3942 2.55481 18.0303 2.55481 18.0303H18.9131C20.7733 18.0303 20.5609 18.2801 20.5505 18.2914L21.8823 16.9081C21.8823 16.9081 18.6468 16.9081 16.5912 16.871C16.3299 16.8662 16.0367 16.864 15.7166 16.864C13.5195 16.864 10.0646 16.974 7.07438 17.1696ZM20.5501 18.2918C20.5501 18.2918 20.5503 18.2916 20.5505 18.2914L20.5501 18.2918Z" fill="url(#paint18_linear_601_667)"/>
<path d="M45.658 16.8711C44.2025 16.9082 41.911 16.9082 41.911 16.9082L43.4382 18.3206C43.4382 18.3206 43.5954 17.9901 44.9429 17.9901C46.2912 17.9901 56.0075 17.9572 56.0075 17.9572C56.0075 17.9572 56.1712 17.4355 53.3104 17.2351C51.0566 17.0769 47.6557 16.8671 46.0116 16.8671C45.8824 16.8671 45.7643 16.8684 45.658 16.8711Z" fill="url(#paint19_linear_601_667)"/>
<path d="M42.1968 7.28674C42.1968 7.28674 44.4887 7.28674 45.9446 7.32403C47.4001 7.36133 56.2234 6.96837 58.6505 6.74376C61.0769 6.51957 61.8512 5.88368 61.8512 5.88368C61.8512 5.88368 46.4238 5.96452 45.0759 5.96452C43.7288 5.96452 43.9168 5.7022 43.9168 5.7022L42.1968 7.28674Z" fill="url(#paint20_linear_601_667)"/>
<path d="M20.9852 18.841C20.9852 18.841 21.1488 19.3621 21.1488 19.7636V21.5699C21.1488 22.0512 21.3126 22.2926 21.3126 22.2926L22.7018 20.9275C22.7018 20.9275 22.4944 20.4462 22.4944 20.0849V18.0487C22.4944 17.5778 22.3747 17.1948 22.3747 17.1948L20.9852 18.841Z" fill="url(#paint21_linear_601_667)"/>
<path d="M41.3717 18.0372C41.3717 18.5081 41.3393 19.768 41.3393 20.1299C41.3393 20.4902 41.2546 20.9275 41.2546 20.9275L42.6439 22.2926C42.6439 22.2926 42.8079 22.0512 42.8079 21.5699V19.7636C42.8079 19.3621 42.9715 18.841 42.9715 18.841L41.4835 17.1567C41.4835 17.1567 41.3717 17.5674 41.3717 18.0372Z" fill="url(#paint22_linear_601_667)"/>
<path d="M21.7621 22.4526L31.8965 22.5327L31.9374 22.5318V21.1988L23.1104 21.1675L21.7621 22.4526Z" fill="url(#paint23_linear_601_667)"/>
<path d="M31.9781 21.1988H31.9374V22.5318L42.3579 22.4131L40.6827 21.1675L31.9781 21.1988Z" fill="url(#paint24_linear_601_667)"/>
<path d="M21.8989 1.27405C21.6128 1.27405 21.348 1.42552 21.348 1.42552L22.6913 2.72357C22.6913 2.72357 22.8236 2.44167 23.7702 2.44167H31.9782V1.27405H21.8989Z" fill="url(#paint25_linear_601_667)"/>
<path d="M31.9781 1.27404V2.44166H40.1859C41.1325 2.44166 41.3285 2.84628 41.3285 2.84628L42.6713 1.54886C42.6713 1.54886 42.3438 1.27404 42.0576 1.27404H31.9781Z" fill="url(#paint26_linear_601_667)"/>
<path d="M21.0919 2.40813V4.76524C21.0919 5.04485 20.9669 5.37613 20.9669 5.37613L22.2824 6.84253C22.2824 6.84253 22.3713 6.72064 22.3713 6.10996C22.3713 5.49885 22.4243 3.10757 22.4243 3.10757L21.1093 1.65868C21.1093 1.65868 21.0919 2.04184 21.0919 2.40813Z" fill="url(#paint27_linear_601_667)"/>
<path d="M41.3834 3.1357V6.06641C41.3834 6.67731 41.6745 6.84253 41.6745 6.84253L43.282 5.25196C43.282 5.25196 43.0724 4.91921 43.0724 4.64043C43.0724 4.36082 43.0589 2.65669 43.0589 2.29019C43.0589 1.9237 43.0752 1.58471 43.0752 1.58471L41.3834 3.1357Z" fill="url(#paint28_linear_601_667)"/>
<path d="M20.0045 5.99621H8.72608C8.39918 5.99621 7.86757 6.11664 7.70422 6.27749L8.72608 7.32114C8.72608 7.32114 9.01183 7.1207 9.70679 7.1207H21.4347C21.7621 7.1207 22.0885 6.99965 22.0885 6.99965L20.7814 5.67555C20.7814 5.67555 20.454 5.99621 20.0045 5.99621Z" fill="url(#paint29_linear_601_667)"/>
<path d="M55.1331 16.7308C55.1331 16.7308 55.7646 16.4977 55.9621 17.2344C55.9621 17.2344 56.1197 17.4676 56.5539 16.8465C56.988 16.2266 61.0934 7.93202 61.0529 7.81471C61.0133 7.69887 60.1844 7.54343 60.1844 7.54343L55.1331 16.7308Z" fill="url(#paint30_linear_601_667)"/>
<path d="M60.3032 7.62201C60.5012 7.73785 60.6982 7.89328 60.422 8.47438C60.146 9.05485 56.9884 15.1028 56.3178 16.2652C55.6468 17.4278 56.2381 17.8932 56.2381 17.8932C56.2381 17.8932 56.7519 17.6601 56.9061 17.4088C57.0616 17.1567 61.8826 7.7766 62.2144 7.14675C62.5464 6.51668 62.316 6.26457 62.316 6.26457L60.3032 7.62201Z" fill="url(#paint31_linear_601_667)"/>
<path d="M31.9781 2.4517V21.1988H40.4182C40.9072 21.1988 41.3357 21.0184 41.3357 20.4766V17.6807C41.3357 17.14 41.7023 16.7202 42.131 16.7202H54.8632C55.3102 16.7202 55.7113 16.4635 55.9442 16.0408C56.9846 14.1514 59.8499 8.67232 60.0667 8.23061C60.3312 7.69139 60.1675 7.37907 59.5542 7.37907H42.6815C41.9477 7.37907 41.3962 6.8388 41.3962 6.1777V3.11301C41.3962 2.69234 41.1518 2.4517 40.6013 2.4517H31.9781Z" fill="url(#paint32_linear_601_667)"/>
<path d="M2.41687 17.5086L4.05032 16.5358C4.05032 16.5358 3.86321 16.4558 4.15724 15.8776C4.45168 15.2994 7.20966 9.77637 7.20966 9.77637L6.59426 9.64552L2.41687 17.5086Z" fill="url(#paint33_linear_601_667)"/>
<path d="M2.26905 16.7933C1.86027 17.5161 1.94257 17.7966 1.94257 17.7966L2.92307 17.1544C2.92307 17.1544 7.29541 8.84629 7.74493 7.88265C8.19466 6.91964 7.52452 6.52731 7.52452 6.52731C7.52452 6.52731 2.67784 16.0712 2.26905 16.7933Z" fill="url(#paint34_linear_601_667)"/>
<path d="M2.93072 18.0647C2.86581 18.1074 2.26822 18.1797 2.15155 18.0647C2.03445 17.9505 1.83907 17.8613 1.9952 17.7334C2.15155 17.6053 4.0735 16.4833 4.0735 16.4833C4.0735 16.4833 3.84015 16.6106 5.81493 16.6106H21.6123C22.0281 16.6106 22.4176 16.8908 22.4697 17.0698C22.5219 17.2488 22.4178 17.325 22.2879 17.2998C22.1585 17.274 21.8202 17.1719 21.7423 17.044C21.6645 16.9167 21.8463 16.8146 20.7029 16.8146C19.5597 16.8146 10.8296 16.9425 8.85527 17.1208C6.88049 17.2998 4.2814 17.1719 2.93072 18.0647Z" fill="white"/>
<path d="M61.2801 5.91709C61.3448 5.87521 61.943 5.80291 62.0597 5.91709C62.1764 6.0321 62.3718 6.12127 62.2156 6.2492C62.0597 6.37651 60.1371 7.49933 60.1371 7.49933C60.1371 7.49933 60.3703 7.37202 58.3959 7.37202H42.5981C42.1823 7.37202 41.7928 7.09179 41.7411 6.91281C41.6889 6.73363 41.7926 6.65674 41.922 6.68279C42.0527 6.70862 42.3902 6.81072 42.4685 6.93781C42.5463 7.06595 42.3641 7.16721 43.5078 7.16721C44.6514 7.16721 53.3804 7.04012 55.356 6.86176C57.3301 6.68279 59.9294 6.81072 61.2801 5.91709Z" fill="white"/>
<path d="M8.03112 7.39346C8.03112 7.21282 8.13315 6.87174 8.05169 6.77194C7.96981 6.6713 8.21504 6.55087 8.3786 6.65068C8.54194 6.75131 8.88921 6.83132 8.92994 6.91195C8.97088 6.99196 8.90957 7.1924 8.68492 7.27303C8.46006 7.35304 8.25577 7.53368 7.9085 8.27563C7.56102 9.01904 5.57882 12.7915 5.57882 12.7915C5.57882 12.7915 5.86521 12.1898 5.74259 12.1691C5.61998 12.1494 5.33423 12.6513 5.33423 12.6513L8.03112 7.39346Z" fill="white"/>
<path d="M21.693 7.0385C21.524 7.05517 21.4767 6.87328 21.6209 6.84953C21.766 6.82577 21.958 6.81452 22.1262 6.16383C22.2953 5.51335 22.175 3.53961 22.1506 3.1852C22.1262 2.83037 21.9582 2.40512 22.1992 2.21614C22.4396 2.02654 22.6082 2.42887 23.2342 2.42887C23.8598 2.42887 25.2803 2.38158 25.2803 2.38158C25.2803 2.38158 23.2824 2.52263 22.9449 2.57055C22.608 2.61785 22.3191 2.87746 22.367 3.35063C22.4156 3.8236 22.2953 6.25905 22.1992 6.51887C22.1027 6.77869 21.9338 7.01475 21.693 7.0385Z" fill="white"/>
<path d="M35.1723 2.39612C34.9073 2.4082 40.2478 2.45779 40.5845 2.45779C40.9216 2.45779 41.3066 2.55822 41.3792 2.88887C41.4513 3.22037 41.4002 4.30527 41.4002 4.30527C41.4002 4.30527 41.566 2.91263 41.8068 2.65281C42.0474 2.39216 41.9753 2.01441 41.6624 2.08442C41.3492 2.15609 38.8709 2.23235 35.1723 2.39612Z" fill="white"/>
<path d="M42.3042 16.8901C42.1362 16.8657 41.944 16.8428 41.8954 16.9845C41.8472 17.1253 42.1114 17.2199 41.8472 17.3607C41.5838 17.5024 41.3873 17.5893 41.3873 17.4714C41.3873 17.3532 41.5235 16.7476 42.028 16.7476C42.5322 16.7476 54.9806 16.724 55.1739 16.724C55.3652 16.724 55.6058 16.7476 55.7014 16.9365C55.7973 17.1253 55.9172 17.597 55.9897 17.7387C56.0614 17.8804 55.9416 17.8804 55.7252 17.597C55.5092 17.3137 54.9573 17.1963 54.5254 17.2199C54.0928 17.2434 42.3042 16.8901 42.3042 16.8901Z" fill="white"/>
<path d="M56.0373 17.2907C56.0373 17.2907 55.9175 17.0317 55.8454 16.8657C55.7732 16.7011 55.5575 16.6311 55.5575 16.6311C55.5575 16.6311 55.7972 16.3469 56.1332 15.7343C56.4697 15.122 58.0543 12.1967 58.2224 11.7958C58.2224 11.7958 57.8619 12.8815 58.5586 11.9848C58.5586 11.9848 56.3015 16.1816 56.1572 16.465C56.0136 16.7484 56.0373 17.2907 56.0373 17.2907Z" fill="white"/>
<path d="M22.6439 20.5916C22.6439 20.5916 22.6725 20.9306 22.472 21.0714C22.2711 21.2125 22.185 21.4661 22.3573 21.579C22.5295 21.6917 22.6443 21.6353 22.759 21.4661C22.8738 21.2971 23.276 21.156 23.5342 21.2125C23.5342 21.2125 22.6439 21.3244 22.6439 20.5916Z" fill="white"/>
<path d="M35.0176 21.1957C35.0176 21.1957 39.8628 21.4464 40.1498 21.4593C40.436 21.4722 40.6377 21.4814 40.6377 21.4814C40.6377 21.4814 40.1235 21.4014 40.2756 21.2391L35.0176 21.1957Z" fill="white"/>
<path d="M40.7602 21.1561C40.7602 21.1561 40.6168 21.3816 40.8463 21.4937C41.0763 21.6064 41.3062 21.7191 41.4496 21.5499C41.5928 21.381 41.3349 20.9299 41.3633 20.6198C41.3633 20.6198 41.4781 21.0997 40.7602 21.1561Z" fill="white"/>
<path d="M46.6697 21.5644H46.4013V22.0109H46.6697C46.8063 22.0109 46.8468 21.9576 46.8468 21.8698V21.7046C46.8468 21.5919 46.7933 21.5644 46.6697 21.5644ZM46.6697 22.1555H46.4013V22.5228H46.238V21.4173H46.6697C46.914 21.4173 47.0101 21.524 47.0101 21.7046V21.8698C47.0101 21.9896 46.9679 22.0703 46.8468 22.1236L47.1497 22.5228H46.9563L46.6697 22.1555ZM46.6194 22.8595C47.1956 22.8595 47.4981 22.4716 47.4981 21.9955C47.4981 21.5194 47.1956 21.1256 46.6194 21.1256C46.0426 21.1256 45.7331 21.5194 45.7331 21.9955C45.7331 22.4716 46.0426 22.8595 46.6194 22.8595ZM46.6194 20.9793C47.2579 20.9793 47.6478 21.4327 47.6478 21.9934C47.6478 22.5464 47.2579 23.0064 46.6194 23.0064C45.977 23.0064 45.5837 22.5464 45.5837 21.9934C45.5837 21.4327 45.977 20.9793 46.6194 20.9793Z" fill="black"/>
<path d="M13.7759 28.2671H11.993V26.0386H10.2726V31.5788H11.993V29.1899H13.7759V31.5788H15.4981V26.0386H13.7759V28.2671Z" fill="black"/>
<path d="M45.4266 30.6566V26.0385H43.7057V31.5786H47.8896V30.6566H45.4266Z" fill="black"/>
<path d="M55.2107 26.0385V26.9624H56.7768V31.5787H58.497V26.9624H60.0644V26.0385H55.2107Z" fill="black"/>
<path d="M4.06445 27.1919C4.06445 26.4995 4.49031 26.0384 5.12909 26.0384H8.58026V26.9615H6.10605C5.91366 26.9615 5.78716 27.1014 5.78716 27.3082V30.3088C5.78716 30.5172 5.91366 30.6566 6.10605 30.6566H8.58026V31.5786H5.12909C4.49031 31.5786 4.06445 31.1164 4.06445 30.4248V27.1919Z" fill="black"/>
<path d="M33.9985 29.3312L35.4863 31.5788H33.6568L32.3397 29.2934V28.5712H33.0506C33.2423 28.5712 33.3698 28.431 33.3698 28.2244V27.3084C33.3698 27.1016 33.2423 26.9625 33.0506 26.9625H31.8467V31.5788H30.1248V26.0386H34.0268C34.6676 26.0386 35.0912 26.4997 35.0912 27.1921L35.093 28.3119C35.093 28.922 34.718 29.3312 34.1528 29.3312H33.9985Z" fill="black"/>
<path d="M39.9646 30.6566C40.155 30.6566 40.2833 30.5175 40.2833 30.3099V27.3083C40.2833 27.1018 40.155 26.9615 39.9646 26.9615H38.7642C38.5728 26.9615 38.4443 27.1018 38.4443 27.3083V30.3099C38.4443 30.5175 38.5728 30.6566 38.7642 30.6566H39.9646ZM36.7234 27.192C36.7234 26.4996 37.1477 26.0385 37.787 26.0385H40.9406C41.5789 26.0385 42.0057 26.4996 42.0057 27.192V30.4251C42.0057 31.1167 41.5789 31.5786 40.9406 31.5786H37.787C37.1477 31.5786 36.7234 31.1167 36.7234 30.4251V27.192Z" fill="black"/>
<path d="M23.1565 26.0385H25.0024L26.1039 30.3216C26.1122 30.3605 26.1405 30.3833 26.1803 30.3833C26.2194 30.3833 26.2499 30.3605 26.2572 30.3216L27.3281 26.0385H28.7728L27.4383 30.7928C27.2768 31.3341 26.9849 31.5787 26.3722 31.5787H25.5132C25.1192 31.5787 24.7978 31.379 24.6046 30.7888L23.1565 26.0385Z" fill="black"/>
<path d="M18.959 30.4817C18.959 30.588 19.0226 30.6556 19.1193 30.6556H21.948V31.5787H18.3014C17.6629 31.5787 17.2375 31.1165 17.2375 30.426V27.1921C17.2375 26.4997 17.6629 26.0385 18.3014 26.0385H21.948V26.9625H19.1193C19.0226 26.9625 18.959 27.0312 18.959 27.1355V28.2662H21.6233V29.1902H18.959V30.4817Z" fill="black"/>
<path d="M50.8103 30.4817C50.8103 30.588 50.8734 30.6556 50.9683 30.6556H53.7985V31.5787H50.1517C49.5134 31.5787 49.0856 31.1165 49.0856 30.426V27.1921C49.0856 26.4997 49.5134 26.0385 50.1517 26.0385H53.7985V26.9625H50.9683C50.8734 26.9625 50.8103 27.0312 50.8103 27.1355V28.2662H53.4729V29.1902H50.8103V30.4817Z" fill="black"/>
</g>
<defs>
<linearGradient id="paint0_linear_601_667" x1="7.00327" y1="7.32579" x2="6.97827" y2="16.7476" gradientUnits="userSpaceOnUse">
<stop stop-color="#C7D6EE"/>
<stop offset="0.185394" stop-color="#91AFC8"/>
<stop offset="1" stop-color="#002334"/>
</linearGradient>
<linearGradient id="paint1_linear_601_667" x1="34.7855" y1="-2.13734" x2="40.5734" y2="3.7557" gradientUnits="userSpaceOnUse">
<stop stop-color="#E1E8F5"/>
<stop offset="0.89888" stop-color="#92A5C1"/>
<stop offset="0.955063" stop-color="#476886"/>
<stop offset="1" stop-color="#E1E8F5"/>
</linearGradient>
<linearGradient id="paint2_linear_601_667" x1="23.5693" y1="3.72273" x2="29.4903" y2="-2.30581" gradientUnits="userSpaceOnUse">
<stop stop-color="#E1E8F5"/>
<stop offset="0.0393219" stop-color="#476886"/>
<stop offset="0.0898895" stop-color="#92A5C1"/>
<stop offset="1" stop-color="#E1E8F5"/>
</linearGradient>
<linearGradient id="paint3_linear_601_667" x1="19.7075" y1="3.99814" x2="21.6378" y2="2.16544" gradientUnits="userSpaceOnUse">
<stop stop-color="#E1E8F5"/>
<stop offset="0.157303" stop-color="#C7D6EE"/>
<stop offset="1" stop-color="#E1E8F5"/>
</linearGradient>
<linearGradient id="paint4_linear_601_667" x1="44.6893" y1="4.07016" x2="42.6455" y2="2.12963" gradientUnits="userSpaceOnUse">
<stop stop-color="#E1E8F5"/>
<stop offset="0.157303" stop-color="#C7D6EE"/>
<stop offset="1" stop-color="#E1E8F5"/>
</linearGradient>
<linearGradient id="paint5_linear_601_667" x1="10.4216" y1="8.94605" x2="17.0625" y2="2.18462" gradientUnits="userSpaceOnUse">
<stop stop-color="#476886"/>
<stop offset="0.129211" stop-color="#92A5C1"/>
<stop offset="1" stop-color="#E1E8F5"/>
</linearGradient>
<linearGradient id="paint6_linear_601_667" x1="1.94861" y1="18.3277" x2="1.17515" y2="17.203" gradientUnits="userSpaceOnUse">
<stop stop-color="#002334"/>
<stop offset="0.106735" stop-color="white"/>
<stop offset="0.185394" stop-color="#91AFC8"/>
<stop offset="0.241577" stop-color="#002334"/>
<stop offset="0.533707" stop-color="#5E738F"/>
<stop offset="0.758423" stop-color="#002334"/>
<stop offset="1" stop-color="#002334"/>
</linearGradient>
<linearGradient id="paint7_linear_601_667" x1="7.60736" y1="10.4846" x2="1.55034" y2="13.6231" gradientUnits="userSpaceOnUse">
<stop stop-color="#91AFC8"/>
<stop offset="1" stop-color="#002334"/>
</linearGradient>
<linearGradient id="paint8_linear_601_667" x1="10.9282" y1="19.9345" x2="10.4764" y2="17.3256" gradientUnits="userSpaceOnUse">
<stop stop-color="#A5B9CC"/>
<stop offset="1" stop-color="#002334"/>
</linearGradient>
<linearGradient id="paint9_linear_601_667" x1="20.2779" y1="21.0129" x2="21.0554" y2="21.0129" gradientUnits="userSpaceOnUse">
<stop stop-color="#5E738F"/>
<stop offset="0.48877" stop-color="#91AFC8"/>
<stop offset="1" stop-color="#91AFC8"/>
</linearGradient>
<linearGradient id="paint10_linear_601_667" x1="43.6965" y1="20.923" x2="42.7339" y2="20.923" gradientUnits="userSpaceOnUse">
<stop stop-color="#5E738F"/>
<stop offset="0.320221" stop-color="#91AFC8"/>
<stop offset="1" stop-color="#91AFC8"/>
</linearGradient>
<linearGradient id="paint11_linear_601_667" x1="36.4645" y1="25.4206" x2="39.027" y2="20.9015" gradientUnits="userSpaceOnUse">
<stop stop-color="#A5B9CC"/>
<stop offset="1" stop-color="#002334"/>
</linearGradient>
<linearGradient id="paint12_linear_601_667" x1="25.3692" y1="21.1891" x2="27.9517" y2="25.7433" gradientUnits="userSpaceOnUse">
<stop stop-color="#002334"/>
<stop offset="0.775284" stop-color="#A5B9CC"/>
<stop offset="1" stop-color="#A5B9CC"/>
</linearGradient>
<linearGradient id="paint13_linear_601_667" x1="14.8272" y1="4.04718" x2="26.3599" y2="24.385" gradientUnits="userSpaceOnUse">
<stop stop-color="#FFEFCF"/>
<stop offset="0.460678" stop-color="#FFE4A6"/>
<stop offset="1" stop-color="#BC956E"/>
</linearGradient>
<linearGradient id="paint14_linear_601_667" x1="47.831" y1="21.1721" x2="51.0886" y2="17.475" gradientUnits="userSpaceOnUse">
<stop stop-color="#5E738F"/>
<stop offset="0.606735" stop-color="#91AFC8"/>
<stop offset="1" stop-color="#C7DFF4"/>
</linearGradient>
<linearGradient id="paint15_linear_601_667" x1="51.1515" y1="1.34345" x2="55.4462" y2="8.91707" gradientUnits="userSpaceOnUse">
<stop stop-color="#E1E8F5"/>
<stop offset="0.814606" stop-color="#7F97B4"/>
<stop offset="0.904495" stop-color="#476886"/>
<stop offset="1" stop-color="#002334"/>
</linearGradient>
<linearGradient id="paint16_linear_601_667" x1="56.2692" y1="18.4776" x2="63.2681" y2="6.13501" gradientUnits="userSpaceOnUse">
<stop stop-color="#8CA0B5"/>
<stop offset="0.140442" stop-color="#E1E8F5"/>
<stop offset="0.814606" stop-color="#7F97B4"/>
<stop offset="0.904495" stop-color="#476886"/>
<stop offset="1" stop-color="#002334"/>
</linearGradient>
<linearGradient id="paint17_linear_601_667" x1="53.7822" y1="18.6842" x2="56.3062" y2="17.2005" gradientUnits="userSpaceOnUse">
<stop stop-color="#002334"/>
<stop offset="0.814606" stop-color="#A5B9CC"/>
<stop offset="0.887634" stop-color="#002334"/>
<stop offset="1" stop-color="#002334"/>
</linearGradient>
<linearGradient id="paint18_linear_601_667" x1="7.87423" y1="13.2024" x2="16.0552" y2="21.5319" gradientUnits="userSpaceOnUse">
<stop stop-color="#D4BC7B"/>
<stop offset="0.331467" stop-color="#7F5F39"/>
<stop offset="1" stop-color="#D4BC7B"/>
</linearGradient>
<linearGradient id="paint19_linear_601_667" x1="52.0795" y1="14.368" x2="46.236" y2="20.3176" gradientUnits="userSpaceOnUse">
<stop stop-color="#D4BC7B"/>
<stop offset="0.331467" stop-color="#7F5F39"/>
<stop offset="1" stop-color="#D4BC7B"/>
</linearGradient>
<linearGradient id="paint20_linear_601_667" x1="57.0616" y1="1.63725" x2="47.6165" y2="11.2538" gradientUnits="userSpaceOnUse">
<stop stop-color="#D4BC7B"/>
<stop offset="0.331467" stop-color="#7F5F39"/>
<stop offset="1" stop-color="#D4BC7B"/>
</linearGradient>
<linearGradient id="paint21_linear_601_667" x1="21.295" y1="19.7437" x2="22.5513" y2="19.7437" gradientUnits="userSpaceOnUse">
<stop stop-color="#D3BD8B"/>
<stop offset="1" stop-color="#7F5F39"/>
</linearGradient>
<linearGradient id="paint22_linear_601_667" x1="42.6617" y1="19.7247" x2="41.4052" y2="19.7247" gradientUnits="userSpaceOnUse">
<stop stop-color="#D3BD8B"/>
<stop offset="1" stop-color="#7F5F39"/>
</linearGradient>
<linearGradient id="paint23_linear_601_667" x1="25.9273" y1="20.2564" x2="28.1999" y2="24.2642" gradientUnits="userSpaceOnUse">
<stop stop-color="#7F5F39"/>
<stop offset="0.646072" stop-color="#D3BD8B"/>
<stop offset="0.887634" stop-color="#FFE4A6"/>
<stop offset="1" stop-color="#FFE4A6"/>
</linearGradient>
<linearGradient id="paint24_linear_601_667" x1="38.047" y1="20.2761" x2="35.5643" y2="24.6544" gradientUnits="userSpaceOnUse">
<stop stop-color="#7F5F39"/>
<stop offset="0.455063" stop-color="#D3BD8B"/>
<stop offset="0.887634" stop-color="#FFE4A6"/>
<stop offset="1" stop-color="#FFE4A6"/>
</linearGradient>
<linearGradient id="paint25_linear_601_667" x1="24.2643" y1="4.2899" x2="29.5596" y2="-1.10156" gradientUnits="userSpaceOnUse">
<stop stop-color="#D4BC7B"/>
<stop offset="0.0393219" stop-color="#7F5F39"/>
<stop offset="0.106735" stop-color="#D1AC75"/>
<stop offset="1" stop-color="#D4BC7B"/>
</linearGradient>
<linearGradient id="paint26_linear_601_667" x1="39.7707" y1="4.39783" x2="34.3829" y2="-1.08782" gradientUnits="userSpaceOnUse">
<stop stop-color="#D4BC7B"/>
<stop offset="0.0393219" stop-color="#7F5F39"/>
<stop offset="0.106735" stop-color="#D1AC75"/>
<stop offset="1" stop-color="#D4BC7B"/>
</linearGradient>
<linearGradient id="paint27_linear_601_667" x1="20.6933" y1="5.1689" x2="22.6648" y2="3.29703" gradientUnits="userSpaceOnUse">
<stop stop-color="#FFE292"/>
<stop offset="0.157303" stop-color="#D1AC75"/>
<stop offset="1" stop-color="#FFE292"/>
</linearGradient>
<linearGradient id="paint28_linear_601_667" x1="43.3858" y1="5.14285" x2="41.3305" y2="3.1915" gradientUnits="userSpaceOnUse">
<stop stop-color="#FFE292"/>
<stop offset="0.157303" stop-color="#D1AC75"/>
<stop offset="1" stop-color="#FFE292"/>
</linearGradient>
<linearGradient id="paint29_linear_601_667" x1="11.6154" y1="9.86126" x2="17.7667" y2="3.59837" gradientUnits="userSpaceOnUse">
<stop stop-color="#7F5F39"/>
<stop offset="1" stop-color="#BD9B6A"/>
</linearGradient>
<linearGradient id="paint30_linear_601_667" x1="56.7978" y1="10.9976" x2="59.4149" y2="13.6622" gradientUnits="userSpaceOnUse">
<stop stop-color="#7F5F39"/>
<stop offset="1" stop-color="#D4BC7B"/>
</linearGradient>
<linearGradient id="paint31_linear_601_667" x1="55.9131" y1="17.6097" x2="61.6287" y2="6.40067" gradientUnits="userSpaceOnUse">
<stop stop-color="#A78A5E"/>
<stop offset="0.764038" stop-color="#7F5F39"/>
<stop offset="0.915726" stop-color="#674C2B"/>
<stop offset="1" stop-color="#674C2B"/>
</linearGradient>
<linearGradient id="paint32_linear_601_667" x1="50.9676" y1="20.1421" x2="34.6045" y2="0.287418" gradientUnits="userSpaceOnUse">
<stop stop-color="#FFEFCF"/>
<stop offset="0.460678" stop-color="#FFE4A6"/>
<stop offset="1" stop-color="#BC956E"/>
</linearGradient>
<linearGradient id="paint33_linear_601_667" x1="1.76055" y1="16.5889" x2="7.43467" y2="10.8118" gradientUnits="userSpaceOnUse">
<stop stop-color="#7F5F39"/>
<stop offset="1" stop-color="#E9CF98"/>
</linearGradient>
<linearGradient id="paint34_linear_601_667" x1="0.739484" y1="16.2451" x2="8.38049" y2="8.46536" gradientUnits="userSpaceOnUse">
<stop stop-color="#7F5F39"/>
<stop offset="1" stop-color="#E4CB90"/>
</linearGradient>
<clipPath id="clip0_601_667">
<rect width="64" height="32" fill="white"/>
</clipPath>
</defs>
</svg>
