<svg width="32" height="5" viewBox="0 0 32 5" fill="none" xmlns="http://www.w3.org/2000/svg">
<g clip-path="url(#clip0_0_971)">
<path fill-rule="evenodd" clip-rule="evenodd" d="M27.3866 0.105759L23.5619 4.53405H25.4358L29.2528 0.109343L27.3866 0.10578V0.105759ZM30.0272 0.105759L26.2026 4.53405H28.0765L31.8934 0.109343L30.0272 0.10578V0.105759Z" fill="#D50000"/>
<path fill-rule="evenodd" clip-rule="evenodd" d="M8.06765 1.17026C7.52455 1.16864 5.61863 1.21665 5.61863 2.0882C5.61863 2.70145 6.51028 2.87809 7.24641 2.95745C7.76749 3.01364 8.20922 3.01096 8.20922 3.01096C8.20922 3.01096 8.6233 3.02747 9.12493 2.99905C9.90317 2.95476 10.8939 2.7794 10.8939 2.08795C10.8939 1.17501 8.30701 1.17176 8.20743 1.17176C8.19501 1.17176 8.14522 1.17049 8.06765 1.17026ZM2.95124 1.19576L0.424134 1.19676C0.424186 1.19676 0.305734 1.18662 0.235181 1.24176C0.169299 1.2932 0.168685 1.40929 0.168685 1.40929L0.149933 2.78171C0.149933 2.99432 0.391187 2.97755 0.391187 2.97755L3.03938 2.9755C3.03938 2.9755 3.90978 2.99713 4.50344 2.79604C4.89256 2.66433 5.09263 2.41179 5.09263 2.09102C5.09263 1.73211 4.7469 1.4843 4.27842 1.35425C3.68987 1.19104 2.95119 1.19576 2.95119 1.19576H2.95124ZM14.2179 1.19576L11.6917 1.19676C11.6917 1.19676 11.5732 1.18662 11.5027 1.24176C11.4367 1.2932 11.4362 1.40929 11.4362 1.40929L11.4172 2.78171C11.4172 2.99432 11.6584 2.97755 11.6584 2.97755L14.3075 2.9755C14.3075 2.9755 15.1766 2.99713 15.7706 2.79604C16.1597 2.66433 16.3606 2.41179 16.3606 2.09102C16.3606 1.73211 16.015 1.4843 15.5453 1.35425C14.9578 1.19104 14.2179 1.19576 14.2179 1.19576ZM21.7789 1.19776C21.7558 1.19776 18.8477 1.20001 18.8477 1.20001C18.8477 1.20001 18.6301 1.19878 18.3408 1.22477C17.761 1.27671 16.8906 1.45358 16.8906 2.0882C16.8906 2.3835 17.0506 2.59265 17.327 2.72475C17.9286 2.99688 18.9757 2.97652 18.9757 2.97652H21.592C21.8211 2.97652 21.8442 2.8411 21.8442 2.74971C21.8442 2.65844 21.8506 2.29646 21.8506 2.0882C21.8506 1.88008 21.6253 1.89774 21.6253 1.89774H19.297C19.1946 1.89774 19.1946 1.98107 19.1946 1.98107C19.1946 1.98107 19.1894 2.08833 19.1894 2.18356C19.1894 2.27905 19.2867 2.27649 19.2867 2.27649H20.6294C20.7178 2.27649 20.728 2.34779 20.728 2.34779V2.50907C20.728 2.59201 20.6397 2.59752 20.6397 2.59752H19.0986C18.8605 2.59752 18.0259 2.59752 18.0259 2.0882C18.0259 1.57902 19.0115 1.57428 19.0115 1.57428H21.7648C21.8762 1.57428 21.8608 1.44027 21.8608 1.44027V1.27251C21.8608 1.19961 21.8019 1.19776 21.7789 1.19776ZM22.6826 1.19901C22.4765 1.19901 22.4099 1.23264 22.4035 1.42299C22.3984 1.57352 22.3818 2.51393 22.3818 2.73153C22.3818 2.94888 22.5021 2.97652 22.6454 2.97652H26.8643C26.959 2.97652 26.9552 2.90305 26.9552 2.88628V2.67675C26.9552 2.597 26.8387 2.59752 26.8387 2.59752H23.6477C23.5235 2.59752 23.5274 2.52046 23.5274 2.52046C23.5274 2.52046 23.5286 2.4475 23.5286 2.36596C23.5286 2.28468 23.6029 2.2715 23.6387 2.2715H26.6416C26.7299 2.2715 26.7286 2.18856 26.7286 2.18856V1.98107C26.7286 1.89134 26.6198 1.8948 26.6198 1.8948H23.6285C23.5286 1.8948 23.5274 1.79355 23.5274 1.79355L23.5299 1.68052C23.5299 1.58248 23.6285 1.57428 23.6285 1.57428H26.7926C26.8861 1.57428 26.8989 1.50683 26.8989 1.44027V1.27251C26.8989 1.19174 26.7875 1.19901 26.7875 1.19901H22.6826ZM8.21601 1.5483C8.48045 1.5483 9.75905 1.57134 9.75905 2.09448C9.76045 2.65652 8.56596 2.62401 8.21601 2.62401C7.86593 2.62401 6.76257 2.60251 6.76257 2.09448C6.76257 1.5323 7.95143 1.5483 8.21601 1.5483ZM2.97479 1.57428C2.97479 1.57428 3.33012 1.58798 3.60173 1.69102C3.8146 1.77179 3.95834 1.91745 3.95834 2.08897C3.95834 2.23336 3.86477 2.37889 3.69556 2.45646C3.40615 2.58894 2.97351 2.597 2.97351 2.597L1.34305 2.59803C1.34305 2.59803 1.25104 2.60033 1.25104 2.51496C1.25104 2.51496 1.26554 1.67054 1.26554 1.65953C1.26554 1.6484 1.26448 1.57531 1.36173 1.57531C1.47361 1.57531 2.97479 1.57428 2.97479 1.57428ZM14.2416 1.57428C14.2416 1.57428 14.5974 1.58798 14.8688 1.69102C15.0826 1.77179 15.2259 1.91745 15.2259 2.08897C15.2259 2.23336 15.1325 2.37889 14.9622 2.45646C14.673 2.58894 14.2403 2.597 14.2403 2.597L12.6102 2.59803C12.6102 2.59803 12.5186 2.60033 12.5186 2.51496C12.5186 2.51496 12.5328 1.67054 12.5328 1.65953C12.5328 1.6484 12.5318 1.57531 12.6291 1.57531C12.7408 1.57531 14.2416 1.57428 14.2416 1.57428Z" fill="black"/>
</g>
<defs>
<clipPath id="clip0_0_971">
<rect width="32" height="4.68429" fill="white"/>
</clipPath>
</defs>
</svg>
