<svg width="32" height="32" viewBox="0 0 32 32" fill="none" xmlns="http://www.w3.org/2000/svg">
<g clip-path="url(#clip0_601_24667)">
<path d="M31.7333 15.9998C31.7333 24.6894 24.6891 31.7333 15.9999 31.7333C7.31069 31.7333 0.266663 24.6894 0.266663 15.9998C0.266663 7.31085 7.31069 0.266663 15.9999 0.266663C24.6891 0.266663 31.7333 7.31085 31.7333 15.9998Z" fill="#231F20"/>
<path d="M31.1812 15.9998C31.1812 24.3846 24.3844 31.1814 15.9999 31.1814C7.61542 31.1814 0.81842 24.3846 0.81842 15.9998C0.81842 7.61558 7.61542 0.818634 15.9999 0.818634C24.3844 0.818634 31.1812 7.61558 31.1812 15.9998Z" fill="#BDBCBC"/>
<path d="M3.79002 8.35355C3.79002 8.36611 2.10567 8.62222 2.1073 8.63024C2.11552 8.6721 2.02005 17.2951 3.55824 16.8611C4.57107 16.3845 4.02607 10.7659 4.02607 11.5216C4.02607 12.575 4.12837 14.3027 4.53249 17.0161C4.98796 20.0726 4.79599 20.4534 5.00839 21.1116C4.51433 20.6318 3.74568 20.4159 3.74568 20.4159L4.83557 24.0999L5.63827 24.0917C5.63827 24.0917 5.64983 23.8442 5.66033 23.8325C5.68197 23.8323 6.45315 23.8896 6.98306 24.8593C10.0491 30.4707 18.1212 28.3129 16.0081 28.4345L19.3344 28.0341C9.59278 29.7008 7.76532 25.2092 7.27543 24.3125C6.96855 23.8628 6.08633 23.3916 5.5317 23.6599C5.5317 23.6599 6.88556 23.7139 6.82534 23.3549C7.2484 23.7658 5.77334 22.69 5.77334 22.69L5.8476 22.9232C6.07635 22.9463 5.97332 22.6994 6.21437 22.659L5.91522 22.5221C5.8769 22.4751 6.08144 22.2309 5.35111 17.3297C4.94985 14.6366 5.03071 12.5401 5.03071 11.4968C5.03071 10.4861 4.96473 10.4146 4.96658 10.4071L4.37296 10.0195L4.25911 9.9964C4.09542 9.9632 3.93337 9.91084 3.86307 9.87183C3.89954 9.81762 3.92055 9.74525 3.92055 9.62586C3.92055 9.51042 3.90818 9.35988 3.8921 9.16547C3.87087 8.90546 3.88139 7.97387 3.84549 8.28504C1.95396 24.7011 4.57233 6.44768 4.25066 6.79843L4.43462 6.58998C5.32557 5.56149 8.43816 3.1596 16.4693 2.9718C24.9622 2.7728 25.0007 5.87492 25.0297 5.92026L27.2298 7.00999C27.2008 6.96338 24.3432 2.22063 15.7183 2.42253C7.59076 2.61281 5.17814 5.39696 4.26988 6.4452L4.09025 6.64915C3.71685 7.05638 3.2884 7.06008 3.2884 7.66007C3.2884 7.98047 2.9292 8.40729 2.95106 8.67226C3.99948 10.5142 3.63761 9.60372 3.79007 8.3535L3.79002 8.35355ZM27.0149 7.56385C26.8296 7.64344 26.8576 7.94405 26.8962 8.35972C26.9247 8.66962 26.9574 9.02095 26.8962 9.26613L27.1084 9.31955C27.1786 9.0381 27.1437 8.66693 27.1136 8.3393C27.0946 8.13106 27.0651 7.816 27.1094 7.76015C27.1147 7.76732 27.1759 10.1061 27.6578 10.6636C28.4243 11.5509 28.0421 11.0404 28.0421 12.5866C28.0421 13.3487 28.6122 14.2369 28.5895 14.548C28.3055 14.1885 28.2247 13.2635 28.1524 12.4338C28.068 11.4678 27.9957 10.6338 27.652 10.3566C28.0755 9.98532 26.6041 8.03982 26.7045 9.35724C26.7737 9.81809 26.5483 8.32262 26.221 7.81351C25.2187 6.25354 23.1421 4.4308 15.9261 4.18028C9.31133 3.95062 6.03294 6.66567 5.19024 7.49396C5.19128 7.4922 5.29971 7.3051 5.29971 7.3051L4.22484 6.75102L3.92072 9.9691L4.38075 9.2431C4.38075 9.2431 5.12341 7.89644 5.13703 7.86487C5.25295 7.72816 8.38739 4.13864 15.9185 4.40008C23.9462 4.67867 25.4119 6.9591 26.0379 7.93291C26.3393 8.40243 26.4185 8.92715 26.4887 9.39007C26.5805 9.99972 26.6681 10.5754 27.3527 10.4834C27.4156 10.4752 27.4673 10.4892 27.5153 10.5282C27.7866 10.7468 27.8616 11.6142 27.935 12.4528C28.031 13.5624 28.1229 14.6103 28.6328 14.8672L28.7748 14.9388L28.7901 14.7794C28.8091 14.5757 29.2488 9.77914 27.8906 8.20654C27.3559 7.58733 27.159 7.50177 27.0149 7.56385H27.0149ZM29.9186 11.5397C29.7945 10.961 29.5966 10.3298 29.3031 9.68777C29.4573 10.0433 29.7038 10.677 29.9186 11.5397ZM29.3031 9.68777C29.2656 9.60078 29.2319 9.52572 29.2071 9.47357C29.2424 9.5453 29.2709 9.61625 29.3031 9.68777ZM28.619 8.09971C30.4137 9.83023 30.0917 14.2957 30.0917 14.2957L29.2187 13.2814V17.6081L28.6143 18.8248C27.5396 24.5712 24.988 29.6416 14.982 29.3711C4.97619 29.1007 3.43188 23.7601 2.49163 18.6897C1.55143 13.6195 2.89453 8.07601 2.89453 8.07601C-0.0603969 16.8643 3.43188 23.4896 3.43188 23.4896C3.43188 23.4896 5.11042 29.709 15.4523 29.6416C25.7935 29.5741 27.4055 23.8277 27.4055 23.8277L27.5934 25.2781C27.5934 25.2781 29.9957 23.0807 30.7341 18.4835C31.1084 16.1561 29.6621 9.1053 28.619 8.09971ZM29.2071 9.47357C29.1722 9.40057 29.1511 9.36035 29.1511 9.36035C29.1706 9.3983 29.1886 9.43604 29.2071 9.47357Z" fill="#231F20"/>
<path d="M29.878 13.6383C29.878 13.6383 29.8899 13.6559 29.878 13.6383V13.6383ZM4.1803 6.42879C4.1803 6.42879 5.54774 5.16772 6.52409 4.23867C6.52409 4.23867 5.222 4.96857 4.1803 6.42879ZM3.81641 23.1644C4.59065 24.7263 5.35249 25.7426 5.35249 25.7426C5.35249 25.7426 4.62649 24.6475 3.81641 23.1644ZM29.1791 8.15435L28.9247 7.41294L31.197 8.22075L28.9986 7.09397L31.2313 5.76899L28.7774 6.775L29.1701 4.32133L28.3736 6.69149L27.7961 6.52839C26.5853 4.72814 24.9215 3.82711 22.8281 2.82295C18.9369 0.955925 13.7504 1.45099 13.7504 1.45099C13.7504 1.45099 19.8734 1.52895 24.557 4.30507C25.5243 4.87847 26.3308 5.6735 27.0001 6.5721L25.9893 6.62778L27.1479 6.77558C27.2572 6.9296 27.3628 7.08611 27.4641 7.24488L26.1192 8.02181L27.5702 7.41273C27.7196 7.6548 27.8616 7.9012 27.9951 8.15044L27.4214 9.94658L28.0996 8.34796C29.1047 10.2919 29.6341 12.3569 29.878 13.6383C29.5966 10.9561 29.1057 9.04408 28.4121 7.60983L28.4628 7.49085C28.4628 7.49085 31.0017 10.8092 30.5462 16.2518C30.0907 21.6943 28.7885 23.6191 27.4863 24.9465L27.4214 24.2826C27.4214 24.2826 25.5338 29.9245 16.1591 29.7915C6.78448 29.6585 6.0684 26.6059 6.0684 26.6059L5.54758 26.3399C5.54758 26.3399 3.33433 24.6147 1.96711 20.0349C0.599829 15.4553 1.90191 11.7385 1.90191 11.7385C1.90191 11.7385 1.18584 14.7916 1.70667 17.9109C1.97655 19.5275 2.94504 21.5701 3.81641 23.1644C3.17682 21.8749 2.52831 20.2134 2.29268 18.4419C1.77159 14.526 1.90192 11.8711 2.55285 9.88018C3.20379 7.88922 3.59455 7.02609 3.59455 7.02609C3.59455 7.02609 0.860478 10.2121 0.79529 16.9819C0.730154 23.7518 6.45891 28.3977 8.99773 29.3933C11.5367 30.3888 19.5441 31.716 24.3615 28.3315C29.1791 24.9465 28.8534 24.0838 30.4158 20.964C31.9788 17.8445 31.3274 11.5393 29.1791 8.15435ZM28.0389 6.91292C28.0337 6.90426 28.0289 6.89561 28.0236 6.88732L28.0722 6.89355L28.0389 6.91292ZM28.2627 7.3125C28.2353 7.26056 28.2078 7.20756 28.1799 7.15684L28.3329 7.09249L28.2627 7.3125ZM5.35249 7.02609C5.74283 6.36238 7.76099 5.16772 7.76099 5.16772C7.76099 5.16772 6.65416 5.83164 5.41747 7.2917C4.18031 8.75171 5.87315 7.15889 8.15175 5.63227C10.4301 4.10587 13.6201 4.23867 13.6201 4.23867C13.6201 4.23867 12.5786 3.44216 8.60739 4.70338L12.4483 3.04401C12.4483 3.04401 6.58944 4.30507 4.89664 6.69434C3.20379 9.08366 4.96157 7.68985 5.35249 7.02609ZM24.9489 6.81622C25.6673 7.56222 26.1846 8.22075 26.1846 8.22075C26.1846 8.22075 25.973 7.54981 24.9489 6.81622ZM2.68318 16.5837C3.39925 23.6191 6.39398 26.6059 6.39398 26.6059C6.39398 26.6059 8.67237 28.8624 15.7683 29.1942C22.8642 29.5259 25.1432 26.7385 25.3385 26.2739C25.5338 25.8094 24.4267 26.5393 24.1013 26.4065C23.7757 26.2739 25.1432 23.818 25.1432 23.818C24.4269 26.4729 25.5338 23.4199 26.2495 23.7518C26.9658 24.0834 24.8174 24.9465 25.5338 25.6102C26.2495 26.2739 27.7465 21.5615 28.7236 19.4376C29.7001 17.3139 29.3744 15.1235 29.3095 13.7297C29.2445 12.3358 28.9189 11.7385 28.9189 11.7385L28.7236 15.0573C28.7236 15.0573 28.8539 15.5217 27.812 13.1985L26.9658 10.942C26.3799 21.2961 24.0359 25.2122 24.0359 25.2122C24.0359 25.2122 23.1897 27.8004 16.3541 27.8669C9.51877 27.9329 8.54204 26.1409 8.54204 26.1409C6.32879 23.2207 5.0267 16.9819 5.35249 12.867C5.67785 8.75192 5.35249 7.62345 8.28182 6.36238C11.2114 5.10153 15.6381 4.96857 15.6381 4.96857C20.9553 4.81908 23.6283 5.8698 24.9489 6.81622C24.7842 6.64531 24.6089 6.46922 24.4267 6.29619C23.4502 5.36714 14.4011 3.44216 9.64888 5.30053C4.89664 7.15889 4.57107 8.95086 4.89664 14.3934C5.22222 19.8359 6.9148 24.349 8.08657 26.0747C9.25833 27.8004 13.4248 28.3315 13.4248 28.3315C7.76099 28.1985 7.11005 25.2122 6.78448 24.6807C6.4589 24.1498 5.48239 23.0877 5.28714 23.9508C5.09189 24.8135 3.34156 19.5376 3.66713 19.272C3.9925 19.0064 6.00322 21.9599 6.00322 21.9599C6.00322 21.9599 5.28714 20.4994 4.57107 16.3845C3.85494 12.2697 4.96157 10.2121 4.24549 10.0793C3.52937 9.94658 5.13602 16.1513 3.08503 16.4272C2.5007 16.506 2.98563 10.9395 3.24628 9.81129C3.50651 8.68282 3.79002 8.35356 3.79002 8.35356C3.79002 8.35356 1.9671 9.54843 2.68318 16.5837Z" fill="url(#paint0_linear_601_24667)"/>
<path d="M16.9665 27.4301C16.9776 27.4295 18.5978 27.35 20.0113 27.0316C21.2393 26.755 22.3262 26.2266 22.337 26.2214L22.341 26.2193L22.3454 26.2174C22.3514 26.2148 22.957 25.9534 23.3295 25.5975C23.707 25.2364 23.8787 24.764 23.8805 24.7593C23.8881 24.7388 24.5492 22.9768 25.0492 21.0947C25.5094 19.3627 25.8251 17.448 25.8282 17.4289C25.8332 17.4036 26.2145 15.469 26.3214 13.411C26.4114 11.6814 26.2326 9.71767 26.2307 9.69802C26.2296 9.68323 26.1375 8.52031 25.6708 7.75987C25.2514 7.07666 24.4416 6.74114 24.4335 6.73766L24.4264 6.73488L24.4195 6.73123C24.4102 6.72653 23.4699 6.25552 21.6864 5.86747C20.264 5.55804 18.2868 5.33715 16.6496 5.30514C14.7779 5.26844 12.7685 5.39889 11.2751 5.65423C9.48409 5.96035 8.32046 6.41519 8.30881 6.41971L8.2991 6.42336L8.28905 6.42615C8.2774 6.42928 7.11694 6.7474 6.50681 7.5221C5.88697 8.30898 5.78657 9.60166 5.78569 9.6147L5.78495 9.62253C5.78319 9.63558 5.65332 10.7505 5.65332 12.1169C5.65332 12.3618 5.65737 12.6149 5.66744 12.8713C5.73731 14.6911 6.05543 16.7082 6.05861 16.7284C6.06231 16.7483 6.49336 19.1164 6.98492 21.1121C7.3491 22.5916 7.82338 23.9004 7.82814 23.9133L7.83132 23.9227L7.83379 23.9323C7.83555 23.9389 7.99718 24.6029 8.26008 25.0665C8.48892 25.4697 8.82592 25.7067 8.82945 25.7088L8.83492 25.7126L8.8404 25.7172C8.84287 25.7189 9.07224 25.9041 9.42424 26.097C9.82953 26.319 10.3726 26.5569 10.3957 26.5667C10.434 26.5816 11.6313 27.0399 13.2098 27.2483C14.8581 27.4659 16.9454 27.4304 16.9664 27.4301L16.9665 27.4301Z" fill="url(#paint1_radial_601_24667)" stroke="#6D0115" stroke-width="2"/>
<path d="M9.81303 26.1619C9.74158 26.1292 9.70258 26.1102 9.70258 26.1102C9.69852 26.1085 9.67823 26.0996 9.64524 26.0845L9.63324 26.0135C9.35058 24.4549 8.91918 21.6073 8.77803 18.1349C8.60353 14.0514 8.61023 9.0468 8.62682 6.62269V6.44736C8.67446 6.43136 8.72386 6.41518 8.77485 6.39883L8.77556 6.57451C8.7588 8.97793 8.75086 14.0204 8.92642 18.1288C9.06986 21.6617 9.5145 24.545 9.79557 26.0769L9.81303 26.1619Z" fill="#6D0115"/>
<path d="M10.2797 26.3618C10.2226 26.3386 10.1687 26.3164 10.1188 26.2955L10.105 26.1861C9.89913 24.7183 9.53478 21.7259 9.36169 17.898C9.17784 13.8286 9.21101 8.71357 9.23977 6.38825L9.24012 6.25763C9.28847 6.24371 9.33787 6.2298 9.38833 6.21588L9.38869 6.36007C9.35993 8.66939 9.3257 13.8079 9.51008 17.8915C9.68705 21.8061 10.0643 24.8444 10.2667 26.2684L10.2797 26.3618Z" fill="#6D0115"/>
<path d="M13.7701 5.62745C13.8075 10.1351 13.9153 23.1384 13.9467 26.9053L13.9495 27.2234C13.9014 27.2184 13.8519 27.2128 13.802 27.2071L13.7983 26.9048C13.7669 23.1407 13.6593 10.1711 13.6219 5.6471L13.6182 5.51526C13.6681 5.51108 13.718 5.50691 13.768 5.50308L13.7701 5.62745Z" fill="#6D0115"/>
<path d="M15.7027 5.56883C15.7155 9.51887 15.7586 22.5938 15.7731 27.0125L15.7741 27.3132C15.7221 27.3139 15.6721 27.3144 15.6245 27.3146V26.9733C15.6097 22.498 15.5666 9.39816 15.5539 5.52013L15.5532 5.41925C15.6014 5.41855 15.6497 5.41803 15.6983 5.41751L15.7027 5.56883Z" fill="#6D0115"/>
<path d="M16.4446 5.58848C16.4227 9.97492 16.3574 23.1391 16.3382 27.0128L16.3378 27.3029C16.2865 27.3043 16.2365 27.3055 16.1871 27.3066L16.1893 27.0711C16.208 23.2656 16.2741 9.93926 16.296 5.55925L16.2925 5.41785C16.3442 5.41837 16.3957 5.41889 16.4472 5.41976L16.4446 5.58848Z" fill="#6D0115"/>
<path d="M18.4504 26.9357C18.557 25.1728 18.7581 21.4353 18.8407 17.2062C18.925 12.896 18.8874 7.99086 18.8615 5.6871L18.853 5.53891C18.9132 5.54413 18.9728 5.54952 19.0323 5.55509L19.0404 5.74502C19.0662 8.07417 19.1025 12.9341 19.0191 17.2095C18.937 21.4034 18.7385 25.1145 18.6314 26.8983L18.6159 27.1532C18.5534 27.1606 18.4994 27.1678 18.4359 27.1746L18.4504 26.9357Z" fill="#6D0115"/>
<path d="M23.5194 25.1884C23.44 25.2966 23.3567 25.3867 23.2858 25.4554L23.357 25.0771C23.6672 23.4703 24.0683 20.9848 24.2685 18.0662C24.5064 14.5965 24.5369 9.85232 24.5318 7.15652L24.535 6.89822C24.5928 6.93023 24.6514 6.96414 24.71 7.00067L24.7104 7.34489C24.7137 10.0716 24.6791 14.6832 24.4464 18.0782C24.25 20.9434 23.8603 23.3934 23.5517 25.0084L23.5194 25.1884Z" fill="#6D0115"/>
<path d="M25.234 19.3679C25.3625 18.3523 25.481 17.2125 25.5627 16.0085C25.7422 13.3625 25.7467 10.3647 25.724 8.45699L25.7199 8.13852C25.7947 8.3055 25.8551 8.47665 25.9038 8.64101L25.9073 8.93688C25.9234 10.847 25.9061 13.5823 25.7407 16.0203C25.7062 16.5336 25.6645 17.0352 25.6185 17.5207L25.5639 18.0569C25.4496 18.6302 25.3044 19.3293 25.1449 20.0387L25.234 19.3679Z" fill="#6D0115"/>
<path d="M22.8879 25.7685C22.8314 25.8069 22.7638 25.8506 22.6876 25.8967L22.7418 25.5923C23.0393 23.9556 23.5021 20.9848 23.684 17.5325C23.8835 13.7403 23.8842 9.23242 23.8675 6.92466L23.8606 6.59784C23.9114 6.61575 23.9714 6.63784 24.0379 6.66446L24.0462 6.96884C24.0626 9.29208 24.0607 13.7702 23.862 17.5418C23.6852 20.8989 23.2431 23.8027 22.9445 25.4728L22.8879 25.7685Z" fill="#6D0115"/>
<path d="M20.6983 26.519C20.8389 24.9939 21.0967 21.8369 21.2205 18.0282C21.3596 13.7526 21.3601 8.6859 21.3499 6.2383L21.3444 5.89026C21.4065 5.90296 21.4677 5.91583 21.5277 5.92887L21.5284 6.26578C21.5385 8.72538 21.5374 13.7721 21.3987 18.034C21.2758 21.8176 21.0206 24.9593 20.8793 26.5002L20.8611 26.6874C20.802 26.7048 20.7431 26.7227 20.6776 26.7409L20.6983 26.519Z" fill="#6D0115"/>
<path d="M20.0825 26.663C20.2368 25.3679 20.4899 22.8575 20.5941 19.5924C20.7462 14.8418 20.7275 8.8508 20.7076 6.07847L20.7042 5.77008C20.7633 5.78017 20.8216 5.79026 20.8793 5.80087L20.886 6.12317C20.9057 8.91655 20.9237 14.8708 20.7722 19.5984C20.6693 22.8132 20.4228 25.2985 20.2672 26.6168L20.2384 26.8554C20.1791 26.8698 20.1158 26.8858 20.0533 26.9003L20.0825 26.663Z" fill="#6D0115"/>
<path d="M19.5828 26.7681C19.7035 25.3987 19.9118 22.6864 20.0098 19.3867C20.1465 14.7752 20.1112 8.93568 20.0784 5.89115L20.0749 5.67355C20.1356 5.68173 20.1956 5.69025 20.2548 5.69895L20.258 5.98994C20.2905 9.06266 20.3235 14.828 20.1881 19.3919C20.0918 22.6406 19.8884 25.321 19.7668 26.7142L19.7446 26.9669C19.6832 26.9796 19.6253 26.9914 19.562 27.0036L19.5828 26.7681Z" fill="#6D0115"/>
<path d="M19.0032 26.8844C19.1055 25.2849 19.2991 21.943 19.3836 18.3582C19.496 13.5929 19.5015 8.27734 19.4965 5.78904L19.4914 5.60172C19.5519 5.6085 19.6119 5.61528 19.6714 5.62224L19.6751 5.8334C19.6799 8.341 19.6739 13.6235 19.562 18.3622C19.4784 21.9042 19.2887 25.2095 19.1853 26.8338L19.1698 27.0735C19.1061 27.0841 19.0547 27.0932 18.9893 27.1031L19.0032 26.8844Z" fill="#6D0115"/>
<path d="M18.3901 5.70571C18.3825 8.25227 18.3569 14.0295 18.2743 18.9574C18.2171 22.3686 18.1086 25.3503 18.0455 26.8968L18.0317 27.2123C17.9814 27.2165 17.9308 27.2208 17.8805 27.2248L17.895 26.9444C17.9576 25.415 18.0679 22.4048 18.1259 18.955C18.209 14.0029 18.2344 8.19262 18.2418 5.66675L18.2429 5.49194C18.293 5.49542 18.3429 5.49873 18.3927 5.50238L18.3901 5.70571Z" fill="#6D0115"/>
<path d="M17.6561 5.58849C17.6767 7.83589 17.7074 12.2342 17.6801 16.3788C17.6502 20.8655 17.553 25.1493 17.507 26.9937L17.5015 27.2518C17.4509 27.2551 17.4006 27.2581 17.3503 27.261L17.3572 27.042C17.4029 25.2277 17.5015 20.9062 17.5315 16.3776C17.5588 12.2573 17.5287 7.88564 17.508 5.62745L17.5063 5.45056C17.5558 5.45282 17.6052 5.45508 17.6546 5.45752L17.6561 5.58849Z" fill="#6D0115"/>
<path d="M17.0731 5.57874C17.1036 8.15627 17.1459 12.7697 17.1253 17.1206C17.1061 21.1686 17.0194 25.0456 16.9672 27.0712L16.9628 27.2808C16.9125 27.2831 16.8628 27.2852 16.8132 27.2873L16.8193 27.0418C16.8716 25.0098 16.9573 21.1497 16.9767 17.12C16.9972 12.7907 16.9554 8.20184 16.9249 5.6177L16.9215 5.4295C16.9714 5.4309 17.0214 5.43246 17.0711 5.43385L17.0731 5.57874Z" fill="#6D0115"/>
<path d="M11.8238 26.8719C11.7721 26.859 11.7207 26.8458 11.6697 26.8321L11.6609 26.7357C11.5362 25.3898 11.2853 22.3632 11.1815 18.8104C11.049 14.2782 11.0931 8.61372 11.1256 5.94645L11.1244 5.82956C11.1739 5.82104 11.2237 5.81252 11.2742 5.80417L11.2745 5.92244C11.242 8.57755 11.1972 14.2619 11.3301 18.8063C11.4352 22.4049 11.6914 25.4627 11.8141 26.7775L11.8238 26.8719Z" fill="#6D0115"/>
<path d="M10.8172 26.566C10.7635 26.5468 10.7111 26.5279 10.6601 26.5091L10.648 26.3978C10.4209 24.5033 9.98173 20.411 9.84252 16.0694C9.72466 12.3963 9.82646 8.29664 9.8951 6.23483L9.89775 6.08368C9.94697 6.07168 9.99691 6.05968 10.0475 6.04785L10.0456 6.17813C9.97714 8.21698 9.87198 12.3583 9.99091 16.0649C10.1321 20.4677 10.5822 24.6139 10.8057 26.4656L10.8172 26.566Z" fill="#6D0115"/>
<path d="M6.58927 19.0151C6.40789 18.1319 6.30184 17.4868 6.2999 17.4755L6.2745 17.0886C6.16987 15.7671 6.07582 14.2866 6.05394 13.0242C6.02801 11.5315 6.03895 10.0389 6.05624 8.92262L6.05006 8.78034C6.09364 8.61093 6.14799 8.43335 6.21556 8.2608L6.20286 9.05446C6.1868 10.1541 6.17763 11.5876 6.20268 13.0219C6.23039 14.619 6.37383 16.5667 6.5081 18.0973L6.58927 19.0151Z" fill="#6D0115"/>
<path d="M7.88045 23.7284C7.77759 23.4266 7.65972 23.0706 7.53745 22.6817L7.44693 22.1595C7.21544 20.7908 7.01006 19.3371 6.95184 18.2205C6.64907 14.5085 6.63371 10.2237 6.65277 7.94287L6.65648 7.52317C6.70359 7.47168 6.75228 7.42316 6.80186 7.37741L6.80275 7.77433C6.78157 10.0042 6.78987 14.4083 7.10005 18.2107C7.1678 19.5126 7.4367 21.2749 7.71301 22.8243L7.88045 23.7284Z" fill="#6D0115"/>
<path d="M8.61058 24.5094C8.30533 23.0047 7.92881 20.7854 7.73402 18.2479C7.4316 14.3104 7.44201 9.67698 7.47182 7.3847L7.47535 6.91125C7.43195 6.93352 7.38025 6.96152 7.32291 6.99509L7.32308 7.38975C7.29344 9.68724 7.28339 14.3203 7.58581 18.2591C7.77989 20.7867 8.15395 22.9998 8.45902 24.509L8.64887 25.4044C8.68168 25.4415 8.71644 25.478 8.75332 25.5133C8.78014 25.5387 8.80819 25.5639 8.83713 25.5886L8.61058 24.5094Z" fill="#6D0115"/>
<path d="M11.2982 26.6437C11.16 25.4025 10.916 22.8888 10.8149 19.8551C10.6485 14.8637 10.6367 8.63372 10.64 6.04593L10.6386 5.91983C10.588 5.92992 10.5379 5.94001 10.4885 5.95027L10.4915 6.0602C10.4881 8.65773 10.5003 14.8757 10.6663 19.8599C10.7653 22.8264 11.0007 25.2968 11.1406 26.5698L11.1522 26.6794C11.2031 26.6959 11.2546 26.7121 11.3068 26.7279L11.2982 26.6437Z" fill="#6D0115"/>
<path d="M8.1411 6.62131C8.08623 6.64236 8.03576 6.66218 7.98971 6.6808L7.98689 6.90395C7.93713 9.23345 7.87185 13.8911 8.05694 16.9516C8.31948 21.2916 8.86345 24.368 9.13235 25.6893L9.1574 25.8194C9.21439 25.8553 9.27932 25.8935 9.33279 25.9238L9.29944 25.7641C9.04025 24.5115 8.47475 21.3944 8.20532 16.9429C8.019 13.862 8.08693 9.15744 8.13669 6.85003L8.1411 6.61557" fill="#6D0115"/>
<path d="M11.9136 5.7059C11.8633 5.71303 11.8134 5.72034 11.7634 5.72747L11.7659 5.85218C11.7401 8.27856 11.7071 13.077 11.7856 17.2781C11.8603 21.2728 12.1054 24.9155 12.2435 26.719L12.2612 26.9699C12.3118 26.9801 12.3624 26.9902 12.4133 26.9999L12.397 26.7785C12.2601 25.0028 12.0097 21.3196 11.934 17.2753C11.8553 13.0694 11.8887 8.2643 11.9145 5.84244L11.9136 5.7059Z" fill="#6D0115"/>
<path d="M12.5444 5.62415C12.4936 5.63023 12.4431 5.63632 12.3926 5.64258L12.3923 5.76416C12.3538 7.74249 12.2968 11.8357 12.3801 15.9111C12.4701 20.5458 12.7127 24.9214 12.8299 26.8436L12.8433 27.0761C12.8944 27.0843 12.9451 27.0925 12.9957 27.1001L12.979 26.846C12.862 24.9312 12.6187 20.5498 12.5287 15.9082C12.4454 11.8265 12.5027 7.72683 12.5412 5.7546L12.5444 5.62415Z" fill="#6D0115"/>
<path d="M13.152 5.55804C13.1026 5.56274 13.053 5.56796 13.0036 5.573L13.0026 5.69615C12.986 7.81936 12.963 12.283 13.014 16.6138C13.0636 20.8134 13.1903 24.9654 13.2538 26.8669L13.2628 27.1394C13.3131 27.1464 13.363 27.1532 13.4123 27.1596L13.4024 26.866C13.3389 24.9668 13.212 20.8131 13.1626 16.6119C13.1113 12.2613 13.1347 7.7764 13.1513 5.66641L13.152 5.55804Z" fill="#6D0115"/>
<path d="M14.4407 5.4577C14.389 5.46066 14.3373 5.46362 14.2856 5.46675L14.2894 5.54971C14.3151 9.44183 14.4032 22.712 14.4316 27.0126L14.434 27.2701C14.4866 27.2746 14.5365 27.2788 14.5835 27.2824L14.5803 27.0224C14.5517 22.7297 14.4637 9.42392 14.4379 5.53963L14.4407 5.4577Z" fill="#6D0115"/>
<path d="M15.0662 5.42987C15.016 5.43144 14.9653 5.43335 14.9147 5.43509L14.9184 5.57858C14.926 9.69769 14.95 22.9682 14.9572 26.9537L14.9549 27.3082C14.9935 27.3106 15.0216 27.312 15.0377 27.3128C15.0461 27.3128 15.0692 27.3134 15.1056 27.3137L15.1059 26.9441C15.0985 22.9473 15.0745 9.69525 15.0669 5.57876L15.0662 5.42987Z" fill="#6D0115"/>
<path d="M21.2025 26.3169C21.4172 24.5103 21.807 20.7764 21.972 16.299C22.0949 12.9659 21.9974 8.49459 21.9331 6.25867L21.9217 6.01794C21.9841 6.03273 22.0447 6.04751 22.1039 6.0623L22.1129 6.30963C22.177 8.56573 22.2723 12.9953 22.1502 16.3054C21.9854 20.7771 21.5967 24.5087 21.3812 26.324L21.3555 26.531C21.3024 26.5491 21.2399 26.57 21.1681 26.5928L21.2025 26.3169Z" fill="#6D0115"/>
<path d="M21.9474 26.0588C22.121 24.4861 22.4258 21.3775 22.6094 17.5002C22.7857 13.7771 22.7765 8.97028 22.7552 6.4218L22.7515 6.23639C22.694 6.21969 22.634 6.20282 22.5715 6.18542L22.5766 6.40528C22.5981 8.94697 22.6077 13.7642 22.4312 17.492C22.2454 21.4163 21.9356 24.5515 21.7634 26.1009L21.7302 26.3818C21.7837 26.3574 21.8467 26.3284 21.9153 26.2964L21.9474 26.0588Z" fill="#6D0115"/>
<path d="M22.4937 25.7137C22.7039 24.3062 22.99 22.0046 23.1522 19.0647C23.3936 14.6919 23.4371 9.11327 23.444 6.61941L23.4405 6.45382C23.3902 6.43626 23.3313 6.41643 23.2639 6.39417L23.2658 6.56149C23.2595 9.02457 23.2171 14.6522 22.974 19.0552C22.8051 22.1147 22.5022 24.4802 22.2908 25.8628L22.2497 26.1346C22.3155 26.1018 22.3813 26.0678 22.4447 26.0343L22.4937 25.7137Z" fill="#6D0115"/>
<path d="M24.054 23.8895C24.054 23.8895 24.214 23.4485 24.4114 22.8179L24.4862 22.3277C24.7294 20.7011 24.9859 18.6721 25.1562 16.4738C25.3826 13.5474 25.3332 9.98275 25.2702 7.83693L25.2564 7.43201C25.1971 7.37113 25.1348 7.31356 25.0699 7.25964L25.0844 7.58925C25.1502 9.69472 25.2132 13.4233 24.9782 16.4606C24.7805 19.0134 24.4663 21.3368 24.1921 23.0652L24.054 23.8895Z" fill="#6D0115"/>
<path fill-rule="evenodd" clip-rule="evenodd" d="M11.4609 17.4919V15.9477H10.1365L10.1414 12.0606H11.8706L11.8613 10.4998H8.26666L8.59157 22.4457H10.1711L10.1365 17.4919H11.4609Z" fill="#1A1A1A"/>
<path fill-rule="evenodd" clip-rule="evenodd" d="M12.4856 10.4998L12.6854 22.4457H14.3164L14.3495 10.4998H12.4856Z" fill="#1A1A1A"/>
<path fill-rule="evenodd" clip-rule="evenodd" d="M22.9609 22.4457L23.296 12.0049H24.5738L24.564 10.4998H20.1317V12.0066H21.42L21.3829 22.4457H22.9609Z" fill="#1A1A1A"/>
<path fill-rule="evenodd" clip-rule="evenodd" d="M16.8091 16.0286L16.827 11.971H17.7376C18.1505 12.8747 18.4158 14.0698 18.6237 16.0286H16.8091ZM15.3541 22.4454H15.514H16.6912H16.8639L16.8808 17.5056H18.69C18.8322 18.3776 18.867 21.0689 18.8755 22.4454H19.0251H20.2068H20.3403C20.4784 16.3467 20.0492 12.8995 18.863 10.4997H15.2159L15.3541 22.4454Z" fill="#1A1A1A"/>
<path fill-rule="evenodd" clip-rule="evenodd" d="M11.6542 15.7336H10.3264L10.3313 11.8466H12.0649L12.0555 10.2858H8.4519L8.77763 22.2315H10.3611L10.3264 17.2778H11.6542V15.7336Z" fill="url(#paint2_radial_601_24667)"/>
<path fill-rule="evenodd" clip-rule="evenodd" d="M14.55 10.2858H12.6814L12.8817 22.2315H14.5168L14.55 10.2858Z" fill="url(#paint3_radial_601_24667)"/>
<path fill-rule="evenodd" clip-rule="evenodd" d="M21.6012 22.2315H23.1831L23.5191 11.7908H24.8L24.7902 10.2858H20.3467V11.7926H21.6383L21.6012 22.2315Z" fill="url(#paint4_radial_601_24667)"/>
<path fill-rule="evenodd" clip-rule="evenodd" d="M17.0158 15.8145L17.0337 11.7569H17.9466C18.3606 12.6607 18.6265 13.8557 18.835 15.8145H17.0158ZM15.5571 22.2312H15.7175H16.8976H17.0708L17.0877 17.2915H18.9014C19.044 18.1634 19.0789 20.8547 19.0874 22.2312H19.2374H20.422H20.5558C20.6944 16.1326 20.264 12.6855 19.0749 10.2857H15.4186L15.5571 22.2312Z" fill="url(#paint5_radial_601_24667)"/>
</g>
<defs>
<linearGradient id="paint0_linear_601_24667" x1="1.04137" y1="30.1917" x2="30.9693" y2="1.58263" gradientUnits="userSpaceOnUse">
<stop stop-color="#8C8C8C"/>
<stop offset="0.5" stop-color="#464646"/>
<stop offset="0.75" stop-color="white"/>
<stop offset="1" stop-color="white"/>
</linearGradient>
<radialGradient id="paint1_radial_601_24667" cx="0" cy="0" r="1" gradientUnits="userSpaceOnUse" gradientTransform="translate(16 16.3657) scale(10.4534 11.1734)">
<stop stop-color="#E60A47"/>
<stop offset="1" stop-color="#7C0626"/>
</radialGradient>
<radialGradient id="paint2_radial_601_24667" cx="0" cy="0" r="1" gradientUnits="userSpaceOnUse" gradientTransform="translate(16.626 16.2586) scale(8.17405 5.9729)">
<stop stop-color="#D3D1D2"/>
<stop offset="0.5" stop-color="#C9C7C8"/>
<stop offset="1" stop-color="#8D8B8C"/>
</radialGradient>
<radialGradient id="paint3_radial_601_24667" cx="0" cy="0" r="1" gradientUnits="userSpaceOnUse" gradientTransform="translate(16.6259 16.2586) scale(8.17405 5.9729)">
<stop stop-color="#D3D1D2"/>
<stop offset="0.5" stop-color="#C9C7C8"/>
<stop offset="1" stop-color="#8D8B8C"/>
</radialGradient>
<radialGradient id="paint4_radial_601_24667" cx="0" cy="0" r="1" gradientUnits="userSpaceOnUse" gradientTransform="translate(16.626 16.2586) scale(8.17405 5.9729)">
<stop stop-color="#D3D1D2"/>
<stop offset="0.5" stop-color="#C9C7C8"/>
<stop offset="1" stop-color="#8D8B8C"/>
</radialGradient>
<radialGradient id="paint5_radial_601_24667" cx="0" cy="0" r="1" gradientUnits="userSpaceOnUse" gradientTransform="translate(16.6259 16.2586) scale(8.17405 5.9729)">
<stop stop-color="#D3D1D2"/>
<stop offset="0.5" stop-color="#C9C7C8"/>
<stop offset="1" stop-color="#8D8B8C"/>
</radialGradient>
<clipPath id="clip0_601_24667">
<rect width="32" height="32" fill="white"/>
</clipPath>
</defs>
</svg>
