<svg width="63" height="24" viewBox="0 0 63 24" fill="none" xmlns="http://www.w3.org/2000/svg">
<g clip-path="url(#clip0_601_24729)">
<path d="M31.39 0.367096C14.1704 0.367096 0.367065 5.52852 0.367065 11.9998C0.367065 18.4316 14.2841 23.6329 31.39 23.6329C48.4963 23.6329 62.4134 18.4141 62.4134 11.9998C62.4134 5.58538 48.4963 0.367096 31.39 0.367096Z" fill="#003478"/>
<path d="M43.6098 14.464C43.6181 14.5172 43.688 14.5683 43.7557 14.5924C43.7807 14.6007 43.7929 14.6174 43.7668 14.674C43.5737 15.0881 43.3961 15.3268 43.1539 15.6865C42.9311 16.019 42.6802 16.2783 42.3764 16.5278C41.9182 16.9069 41.2819 17.3197 40.7558 17.0422C40.5221 16.9209 40.421 16.5939 40.4255 16.3291C40.4366 15.5846 40.7679 14.8203 41.3794 14.0691C42.125 13.1512 42.9493 12.6751 43.4902 12.9353C44.0499 13.2022 43.8713 13.8502 43.6206 14.3588C43.6012 14.3982 43.6012 14.4315 43.6096 14.4637M49.6154 8.66268C49.6557 8.59165 49.6133 8.53976 49.5236 8.53976C49.0561 8.53976 48.4428 8.54082 47.9557 8.54082C47.8397 8.54082 47.7798 8.55467 47.7251 8.66289C47.5453 9.00735 45.3543 12.2909 44.9465 12.9286C44.8777 13.0257 44.7939 13.0121 44.7842 12.9008C44.7429 12.5221 44.4158 12.0867 43.9005 11.8784C43.5078 11.7191 43.1239 11.6903 42.7247 11.7433C42.0041 11.8401 41.3621 12.2202 40.7977 12.649C39.947 13.2957 39.213 14.1339 38.2655 14.7532C37.7483 15.0904 37.04 15.3844 36.566 14.9455C36.1371 14.5478 36.1856 13.6646 36.8419 12.9815C36.911 12.9099 36.9939 12.9704 36.9809 13.0339C36.919 13.3428 36.9947 13.6501 37.2295 13.8655C37.5158 14.1222 37.9256 14.1511 38.2763 13.9798C38.6901 13.7748 38.9333 13.3788 39.0042 12.9294C39.1138 12.2323 38.5772 11.6174 37.9058 11.5681C37.3603 11.5298 36.8372 11.7196 36.3275 12.1403C36.0719 12.3523 35.9268 12.5089 35.7058 12.8232C35.652 12.9006 35.5692 12.9084 35.5717 12.794C35.5967 11.9015 35.2279 11.3994 34.4901 11.383C33.9173 11.3691 33.3054 11.68 32.8285 12.0603C32.3057 12.4802 31.8485 13.0366 31.3584 13.5594C31.2974 13.6238 31.2444 13.6208 31.2271 13.4959C31.2133 12.9045 31.0637 12.3318 30.7901 11.925C30.6932 11.7835 30.4893 11.7135 30.3181 11.809C30.239 11.8523 29.9639 11.9788 29.7636 12.1401C29.6642 12.222 29.6253 12.3405 29.6695 12.4923C29.9336 13.3758 29.8756 14.3803 29.5171 15.2287C29.188 16.0057 28.5484 16.7065 27.7965 16.9437C27.3012 17.1008 26.7864 17.0239 26.4678 16.5848C26.0302 15.9788 26.2069 14.9249 26.8592 14.0499C27.4348 13.2793 28.2675 12.7898 29.0979 12.4746C29.1956 12.4369 29.2159 12.3742 29.1881 12.2912C29.1432 12.1547 29.071 11.9687 29.0419 11.8839C28.9656 11.681 28.7524 11.6483 28.4919 11.6766C27.8885 11.7468 27.3441 11.9535 26.8064 12.2415C25.3983 12.9955 24.6924 14.4548 24.383 15.2355C24.234 15.6105 24.1066 15.8445 23.942 16.0519C23.72 16.3309 23.4414 16.5849 22.9319 17.0324C22.8858 17.0735 22.8514 17.1589 22.8903 17.2385C22.9422 17.3462 23.2072 17.7205 23.2819 17.7538C23.3649 17.7946 23.4612 17.7372 23.4997 17.71C23.8563 17.4683 24.2828 17.0852 24.4916 16.8254C24.5648 16.7363 24.64 16.7738 24.6789 16.909C24.8737 17.6039 25.3837 18.1714 26.0891 18.4088C27.3801 18.8442 28.7192 18.214 29.73 17.1169C30.3724 16.4195 30.6042 15.971 30.8505 15.6662C31.2678 15.1492 32.0909 13.9925 33.0713 13.2499C33.4309 12.976 33.8563 12.7672 34.0702 12.9059C34.242 13.0172 34.2975 13.2758 34.022 13.7768C33.0224 15.6022 31.5517 17.7468 31.2819 18.2668C31.2325 18.357 31.2764 18.428 31.3702 18.428C31.8933 18.4254 32.4118 18.4267 32.8866 18.4267C32.9657 18.424 33.0009 18.3868 33.0406 18.331C33.8077 17.1302 34.5296 15.9874 35.3035 14.8057C35.3467 14.7361 35.3867 14.7891 35.3883 14.8196C35.405 15.0938 35.4716 15.4687 35.6345 15.715C35.927 16.1702 36.3415 16.3658 36.8012 16.3688C37.167 16.3743 37.3521 16.3174 37.7465 16.17C38.0675 16.051 38.3252 15.8948 38.5229 15.7534C38.6384 15.6729 38.6586 15.8075 38.6558 15.828C38.4782 16.7813 38.6975 17.9108 39.6449 18.3792C40.7787 18.9382 42.0243 18.1524 42.741 17.4431C42.8112 17.3748 42.8864 17.382 42.8936 17.5294C42.9103 17.8002 43.0313 18.1216 43.2553 18.3465C43.856 18.9493 45.0679 18.7104 46.2843 17.769C47.0652 17.1662 47.8823 16.3146 48.6203 15.4128C48.6481 15.3779 48.6681 15.3218 48.6148 15.2649C48.5024 15.1473 48.3398 15.0127 48.2283 14.9091C48.1776 14.8658 48.1029 14.8782 48.0602 14.9105C47.3036 15.6301 46.6226 16.4506 45.6383 17.1292C45.3063 17.3609 44.7773 17.5478 44.5396 17.2261C44.447 17.1012 44.4575 16.9286 44.548 16.7019C44.8349 15.9862 49.3785 9.06865 49.6144 8.66065" fill="white"/>
<path d="M28.2384 9.49742C28.2579 9.60009 28.2978 9.62009 28.3445 9.61149C28.5759 9.56515 28.8292 9.37477 28.9791 9.15411C29.1157 8.95404 29.1797 8.66532 29.044 8.54964C28.9231 8.44558 28.7261 8.47497 28.58 8.604C28.2892 8.86096 28.2009 9.22555 28.2384 9.49763M16.658 18.4021C14.9639 18.4132 13.4714 17.367 13.3001 15.5546C13.2049 14.5502 13.4888 13.6552 14.0571 12.9178C14.5614 12.2607 15.4148 11.7148 16.1371 11.5814C16.3721 11.5384 16.6879 11.5648 16.8185 11.7213C17.0233 11.9597 16.9644 12.2215 16.7597 12.326C16.2086 12.6073 15.5455 13.089 15.2174 13.7467C14.9513 14.2836 14.8975 14.9305 15.304 15.5469C15.9843 16.574 17.8807 16.6023 19.644 14.9642C20.0807 14.5632 20.4715 14.178 20.8687 13.7218C21.6453 12.8338 21.9036 12.5102 22.936 11.0783C22.9471 11.0616 22.9526 11.0399 22.947 11.0294C22.9387 11.01 22.9249 11.0072 22.8941 11.0044C22.2049 11.0238 21.6041 11.2289 21.0201 11.6654C20.8519 11.788 20.6098 11.7708 20.5039 11.6093C20.3859 11.4267 20.4706 11.189 20.6646 11.0548C21.604 10.4014 22.6303 10.2829 23.6784 10.106C23.6775 10.106 23.7511 10.1088 23.811 10.03C24.2413 9.47784 24.5661 8.97978 25.0248 8.42138C25.4869 7.85483 26.0838 7.33457 26.5398 6.94377C27.1764 6.39639 27.5847 6.21219 27.9996 5.98642C28.109 5.92926 27.9858 5.861 27.9525 5.861C25.636 5.42562 23.2281 4.86223 20.9275 5.71391C19.3342 6.30849 18.636 7.57199 18.9719 8.41626C19.2108 9.01514 19.9984 9.1125 20.7358 8.75165C21.3483 8.45157 21.915 7.96793 22.3168 7.34535C22.5416 6.99959 23.0152 7.24904 22.7593 7.84943C22.0861 9.43174 20.8 10.6869 19.2334 10.7399C17.9001 10.7831 17.0399 9.80229 17.0427 8.59223C17.0483 6.20552 19.7052 4.63334 22.4976 4.3983C25.8604 4.12039 29.0455 5.01616 32.3844 5.42116C34.9426 5.73095 37.3953 5.73739 39.9667 5.1467C40.2706 5.08065 40.4839 5.27461 40.4641 5.58163C40.4391 6.02543 40.0953 6.45284 39.2484 6.91473C38.2852 7.44296 37.2776 7.60324 36.2253 7.61185C33.6806 7.63405 31.3103 6.64113 28.8574 6.10816C28.8602 6.21554 28.8885 6.34345 28.7986 6.41124C27.4399 7.4134 26.2118 8.43111 25.3893 9.8605C25.3615 9.89352 25.3754 9.92489 25.4245 9.92156C26.1387 9.88354 26.7809 9.86521 27.4476 9.81194C27.5642 9.80084 27.5686 9.77308 27.5583 9.68817C27.4992 9.19548 27.6432 8.63365 28.0766 8.24719C28.5202 7.84949 29.0756 7.80426 29.4437 8.09069C29.8623 8.41686 29.8253 9.00344 29.5963 9.44335C29.3633 9.8897 28.9783 10.1284 28.6088 10.2443C28.6088 10.2443 28.5311 10.261 28.5428 10.3315C28.5567 10.4441 29.0607 10.7231 29.1038 10.7974C29.1454 10.8682 29.1232 10.9778 29.0475 11.0619C28.9942 11.1229 28.9107 11.1801 28.8038 11.1781C28.7175 11.1764 28.6651 11.1465 28.5546 11.0869C28.3288 10.9645 28.0465 10.7633 27.8582 10.5261C27.7941 10.4459 27.7613 10.4442 27.6012 10.4531C26.8797 10.4947 25.7548 10.6035 24.9926 10.6987C24.8078 10.7209 24.7806 10.7561 24.7426 10.8202C23.5273 12.8241 22.2298 14.9851 20.8052 16.4319C19.2771 17.9832 18.007 18.3917 16.6586 18.4022" fill="white"/>
<path d="M31.3893 2.26929C15.5478 2.26929 2.707 6.64683 2.707 12.0035C2.707 17.3605 15.5478 21.7384 31.3893 21.7384C47.2306 21.7384 60.0705 17.3605 60.0705 12.0035C60.0705 6.64683 47.2306 2.26929 31.3893 2.26929ZM31.3893 22.6206C14.9711 22.6206 1.66174 17.8672 1.66174 12.0035C1.66174 6.13885 14.9711 1.38629 31.3893 1.38629C47.806 1.38629 61.1145 6.13885 61.1145 12.0035C61.1145 17.8672 47.806 22.6206 31.3893 22.6206Z" fill="white"/>
</g>
<defs>
<clipPath id="clip0_601_24729">
<rect width="62.7805" height="24" fill="white"/>
</clipPath>
</defs>
</svg>
