<?xml version="1.0" encoding="UTF-8"?>
<svg version="1.1" xmlns="http://www.w3.org/2000/svg" width="1920" height="1080">
<path d="M0 0 C0.90674217 0.04971451 0.90674217 0.04971451 1.83180237 0.10043335 C32.81469179 1.79432369 63.78632234 3.31726741 94.79907227 4.35302734 C96.94938486 4.42535621 99.0996942 4.497782 101.25 4.5703125 C102.27910995 4.60454315 103.30821991 4.6387738 104.36851501 4.67404175 C109.57088471 4.8540159 114.76299107 5.0868989 119.95793152 5.4172821 C141.95949518 6.8123158 163.96138073 5.7367762 185.95952225 4.78842545 C188.33720245 4.68644045 190.71495595 4.58637088 193.09274292 4.48690796 C223.73975176 3.20401937 254.37207284 1.67767749 285 0 C286.17400372 4.42898193 285.91413517 8.55238966 285.53442383 13.06323242 C285.44186813 14.25919792 285.44186813 14.25919792 285.34744263 15.47932434 C285.14174186 18.10539172 284.92523357 20.73041233 284.70703125 23.35546875 C284.55817224 25.18198583 284.4093848 27.00850874 284.26066589 28.83503723 C283.9472763 32.65766082 283.62755842 36.47970065 283.30444336 40.30151367 C282.89105173 45.20646245 282.50186457 50.11301472 282.11839771 55.02038097 C281.81973369 58.79004212 281.50411108 62.55814251 281.18372154 66.32601357 C281.03276643 68.1352586 280.88812877 69.94504199 280.74985695 71.75530052 C280.5552717 74.28039882 280.33697278 76.80235477 280.11254883 79.32495117 C280.05990372 80.07666595 280.00725861 80.82838074 279.95301819 81.60287476 C279.75349426 83.68009949 279.75349426 83.68009949 279 87 C275.87433942 89.39140598 272.11656996 89.65287707 268.28125 90.296875 C267.60702499 90.41104263 266.93279999 90.52521027 266.23814392 90.64283752 C263.99330866 91.01965092 261.74686533 91.38549914 259.5 91.75 C258.72488068 91.87772797 257.94976135 92.00545593 257.15115356 92.13705444 C243.27810978 94.41904521 229.36759424 96.4133146 215.4375 98.3125 C214.49551758 98.4412854 213.55353516 98.5700708 212.58300781 98.70275879 C194.3618676 101.18261075 194.3618676 101.18261075 185.98071289 101.77807617 C183.79136885 101.95363839 183.79136885 101.95363839 181 103 C178.80972591 103.21955058 176.61447007 103.39063983 174.41796875 103.53515625 C173.76733963 103.57813339 173.11671051 103.62111053 172.44636536 103.66539001 C171.06373742 103.75556476 169.68097469 103.84369241 168.2980957 103.92993164 C166.23277226 104.05965641 164.16819 104.19826159 162.10351562 104.33789062 C148.4724594 105.23040148 135.00238176 105.08757125 121.38183594 104.20043945 C119.21064834 104.05995377 117.03901248 103.92905032 114.8671875 103.79882812 C113.4791313 103.7114979 112.09110888 103.62362856 110.703125 103.53515625 C109.46208008 103.456604 108.22103516 103.37805176 106.94238281 103.29711914 C104 103 104 103 102 102 C100.29958489 101.75527388 98.59208861 101.55899064 96.8828125 101.38671875 C95.81627441 101.27545654 94.74973633 101.16419434 93.65087891 101.04956055 C91.90556885 100.87034058 91.90556885 100.87034058 90.125 100.6875 C68.9571605 98.41279323 47.95088036 95.19812182 26.9375 91.8125 C25.70003021 91.61386856 25.70003021 91.61386856 24.43756104 91.41122437 C22.09198833 91.03366769 19.74706569 90.65233194 17.40234375 90.26953125 C16.69741287 90.1561441 15.99248199 90.04275696 15.26618958 89.92593384 C12.40601398 89.45475555 9.75638833 88.91879611 7 88 C4.88858094 67.72457021 2.86973599 47.44633449 1.25 27.125 C1.18533539 26.32970886 1.12067078 25.53441772 1.05404663 24.71502686 C0.86993338 22.43795956 0.69170201 20.16051387 0.515625 17.8828125 C0.41540039 16.59777832 0.31517578 15.31274414 0.21191406 13.98876953 C-0.03613528 9.31984085 -0.0443512 4.67397461 0 0 Z " fill="#303F48" transform="translate(817,456)"/>
<path d="M0 0 C6.61895995 0.0037688 13.23790493 0.00240945 19.85686433 -0.00180268 C65.27395295 -0.03003367 110.66833018 0.15605147 156.07634676 1.12856841 C156.01416719 2.91104929 155.95198762 4.69353016 155.88980806 6.47601104 C155.8501974 7.61154355 155.81058673 8.74707606 155.76977575 9.91701865 C155.68321192 12.39846041 155.59664048 14.87990191 155.51006162 17.36134315 C155.24374462 24.99393893 155.24374462 24.99393893 154.9779886 32.62655425 C154.72568682 39.87717663 154.46857142 47.12761067 154.20848787 54.37795806 C154.07461184 58.17781115 153.94794837 61.97786075 153.82195222 65.77798247 C153.73895509 68.16828798 153.6557919 70.55858773 153.57244051 72.94888091 C153.53723802 74.0641516 153.50203554 75.17942229 153.46576631 76.32848907 C153.41113473 77.8501216 153.41113473 77.8501216 153.35539949 79.40249419 C153.31055673 80.74091872 153.31055673 80.74091872 153.26480806 82.10638213 C153.07634676 84.12856841 153.07634676 84.12856841 152.07634676 85.12856841 C150.53264054 85.32445465 148.98049497 85.45395878 147.42790926 85.55825591 C146.38650789 85.62987945 145.34510652 85.70150298 144.27214754 85.77529693 C143.09378328 85.85062652 141.91541902 85.92595611 140.70134676 86.00356841 C139.44692781 86.08598784 138.19250886 86.16840728 136.90007722 86.25332427 C133.16251045 86.49672769 129.42441271 86.73116074 125.68621004 86.96456695 C122.90072595 87.13960426 120.11548391 87.31820158 117.33025301 87.49722075 C72.87317972 90.34323935 28.62316331 91.49819412 -15.92365324 91.12856841 C-16.73483611 91.12232451 -17.54601897 91.11608062 -18.38178313 91.10964751 C-42.49166183 90.90812215 -66.5457846 89.50598925 -90.61115324 88.12856841 C-91.39656367 88.08362746 -92.18197409 88.03868651 -92.99118483 87.99238372 C-97.56926469 87.72974381 -102.14712273 87.46357385 -106.72473967 87.19298339 C-108.13430814 87.1097039 -109.54390416 87.02688903 -110.95352995 86.94458556 C-118.95886352 86.47555845 -126.94318132 85.91844824 -134.92365324 85.12856841 C-135.3178081 75.94830903 -135.70917876 66.76793623 -136.09710753 57.58741164 C-136.2773711 53.32340284 -136.45855224 49.05943735 -136.64191496 44.7955606 C-136.81921409 40.6718663 -136.99399245 36.54807182 -137.16710722 32.42419982 C-137.23320176 30.85990713 -137.30016687 29.29565095 -137.36806548 27.73143554 C-137.463852 25.5211336 -137.55638905 23.31071571 -137.64826262 21.1002481 C-137.7015573 19.84782317 -137.75485198 18.59539824 -137.80976164 17.30502105 C-137.99502063 11.91470456 -137.9459202 6.52125104 -137.92365324 1.12856841 C-91.94749854 0.12233264 -45.98545951 -0.02924536 0 0 Z " fill="#303F48" transform="translate(950.9236532449722,364.8714315891266)"/>
<path d="M0 0 C18.57446335 -0.16592573 37.13012439 0.27749891 55.69702148 0.74462891 C59.16016158 0.83158381 62.62335547 0.91492352 66.08666992 0.99462891 C84.32262106 1.41498521 102.55035326 1.93554383 120.77038765 2.82156754 C122.43947942 2.90269094 124.10867202 2.98177141 125.77796745 3.05858994 C157.35680125 4.53289085 157.35680125 4.53289085 166.375 14.25 C171.63099902 21.34003044 173.61311628 27.98202006 173.49609375 36.7421875 C173.49754898 37.63237579 173.49900421 38.52256409 173.50050354 39.43972778 C173.49885587 41.30360215 173.48742294 43.16749175 173.46655273 45.03125 C173.43736103 47.88860223 173.44601381 50.74412225 173.45898438 53.6015625 C173.45275294 55.41927986 173.44436668 57.23699139 173.43359375 59.0546875 C173.43652939 59.9077951 173.43946503 60.76090271 173.44248962 61.63986206 C173.34916557 67.46389074 173.34916557 67.46389074 171.89614868 69.69485474 C169.08837381 71.62748487 166.64169018 71.59463557 163.25756836 71.84375 C162.57272558 71.89795011 161.8878828 71.95215021 161.18228722 72.00799274 C158.90225852 72.18510323 156.62130808 72.34255412 154.33984375 72.5 C152.73194097 72.62090426 151.12412833 72.74301273 149.5164032 72.86625671 C145.21448178 73.19260576 140.91149757 73.5020605 136.60810089 73.80825424 C132.15841234 74.12773624 127.70989645 74.46277688 123.26123047 74.79614258 C113.89624714 75.49508059 104.52982204 76.17293388 95.16284943 76.84461212 C92.06596454 77.0671049 88.96925594 77.29200361 85.87255859 77.51708984 C78.8591235 78.02639453 71.84566983 78.53488343 64.83056641 79.02075195 C56.66849496 79.58654156 48.5108931 80.18847225 40.35546875 80.84375 C39.02304138 80.94995415 39.02304138 80.94995415 37.66369629 81.05830383 C33.45500982 81.39391404 29.24689443 81.73462509 25.03955078 82.08666992 C15.66506478 82.84973709 6.40735485 83.16349334 -3 83 C-3.13317999 68.2288592 -2.79536665 53.50734646 -2.20043945 38.74829102 C-2.06112883 35.27834706 -1.92957522 31.80816678 -1.79882812 28.33789062 C-1.71139122 26.09633642 -1.62351667 23.85479924 -1.53515625 21.61328125 C-1.49656998 20.59333572 -1.4579837 19.5733902 -1.41822815 18.52253723 C-1.16326915 12.31829932 -0.69342652 6.17077098 0 0 Z " fill="#314049" transform="translate(1113,366)"/>
<path d="M0 0 C0.88948837 -0.00508575 1.77897675 -0.01017151 2.69541931 -0.01541138 C8.46740519 -0.00525106 8.46740519 -0.00525106 9.58984375 1.1171875 C9.81099262 3.73181215 9.97053649 6.32538671 10.08984375 8.9453125 C10.13017731 9.7536705 10.17051086 10.5620285 10.21206665 11.3948822 C10.34302828 14.05209976 10.46673703 16.70959526 10.58984375 19.3671875 C10.677431 21.19442406 10.76515959 23.02165386 10.85302734 24.84887695 C11.36669646 35.6651834 11.83156786 46.4829509 12.21484375 57.3046875 C12.25480469 58.42198242 12.29476562 59.53927734 12.3359375 60.69042969 C12.58088765 68.16821336 12.62343639 75.63586385 12.58984375 83.1171875 C2.15880005 83.27951155 -8.11638681 82.91284889 -18.51052666 82.03909111 C-21.86265438 81.75754721 -25.21593201 81.49088866 -28.56917286 81.22298145 C-30.37320279 81.07875114 -32.177177 80.93382217 -33.98109722 80.78822613 C-43.68798514 80.00675507 -53.39967555 79.29366132 -63.11213303 78.58533859 C-66.16633313 78.36254572 -69.2204599 78.13877209 -72.27456665 77.91470337 C-80.56746553 77.30642654 -88.8604867 76.69982692 -97.15356445 76.09399414 C-137.75088736 73.12714082 -137.75088736 73.12714082 -152.1953125 71.96484375 C-153.62006142 71.85407753 -153.62006142 71.85407753 -155.07359314 71.74107361 C-161.17374344 71.23539391 -161.17374344 71.23539391 -163.41015625 70.1171875 C-163.53454321 64.03409122 -163.62486576 57.95174899 -163.68481445 51.86767578 C-163.70982714 49.80178924 -163.74384861 47.73599002 -163.78735352 45.67041016 C-163.84859183 42.68630326 -163.87649885 39.70337463 -163.8984375 36.71875 C-163.92424393 35.80791656 -163.95005035 34.89708313 -163.97663879 33.95864868 C-163.97995829 26.22227226 -161.74485236 19.69214646 -156.40351868 13.9659729 C-144.84232776 3.27044832 -129.63239931 3.79796989 -114.6875 3.0625 C-113.89756086 3.02166416 -113.10762173 2.98082832 -112.29374504 2.93875504 C-93.40699395 1.96514726 -74.5090786 1.47954307 -55.60339355 1.05273438 C-52.06254668 0.97124117 -48.52186403 0.88353957 -44.98116493 0.79589462 C-14.63469036 0.04697739 -14.63469036 0.04697739 0 0 Z " fill="#303F48" transform="translate(797.41015625,365.8828125)"/>
<path d="M0 0 C1.53527344 0.01353516 1.53527344 0.01353516 3.1015625 0.02734375 C3.85179687 0.03894531 4.60203125 0.05054688 5.375 0.0625 C5.67562172 6.15844045 4.56824946 11.52946127 3.125 17.4375 C2.81755859 18.77941406 2.81755859 18.77941406 2.50390625 20.1484375 C-1.35492945 36.23861302 -10.11949073 49.87849306 -23.88671875 59.29296875 C-27.40755551 61.36853614 -30.95386767 63.27100275 -34.625 65.0625 C-35.24503906 65.36639648 -35.86507813 65.67029297 -36.50390625 65.98339844 C-47.16922095 71.11348051 -58.25678427 74.82449428 -69.625 78.0625 C-70.68380371 78.36607422 -71.74260742 78.66964844 -72.83349609 78.98242188 C-83.49260838 81.9374233 -94.26970467 84.08769498 -105.125 86.1875 C-107.80581986 86.70847492 -110.48631017 87.23099307 -113.1661377 87.75704956 C-114.81616354 88.08074611 -116.46676538 88.40152622 -118.11804199 88.71878052 C-121.48724384 89.37795452 -124.75367693 90.09968087 -128.05541992 91.05371094 C-132.54357963 92.32209723 -137.05990165 93.16728037 -141.64453125 94.0078125 C-142.5843132 94.18255096 -143.52409515 94.35728943 -144.49235535 94.537323 C-146.46620461 94.90360346 -148.44035746 95.26825127 -150.41479492 95.63134766 C-153.44590239 96.18904597 -156.47593429 96.75232315 -159.50585938 97.31640625 C-161.42702279 97.67220208 -163.34824473 98.02768206 -165.26953125 98.3828125 C-166.17782181 98.55152863 -167.08611237 98.72024475 -168.02192688 98.89407349 C-168.86007431 99.04778412 -169.69822174 99.20149475 -170.56176758 99.35986328 C-171.3001033 99.49595001 -172.03843903 99.63203674 -172.79914856 99.77224731 C-174.625 100.0625 -174.625 100.0625 -176.625 100.0625 C-176.01389125 84.59780017 -174.80103394 69.20335242 -173.46826172 53.78564453 C-173.1795945 50.44441388 -172.89429193 47.1029363 -172.61107635 43.76124191 C-172.33629131 40.52296332 -172.05874773 37.2849221 -171.78125 34.046875 C-171.62964417 32.26709259 -171.62964417 32.26709259 -171.47497559 30.45135498 C-170.97057803 24.63587999 -170.40115178 18.8481976 -169.625 13.0625 C-165.42896965 11.91717747 -161.2547044 11.69902419 -156.9296875 11.44921875 C-155.10733348 11.33678361 -153.28498683 11.22422895 -151.46264648 11.11157227 C-150.49430878 11.05301056 -149.52597107 10.99444885 -148.52828979 10.93411255 C-130.69065426 9.84962831 -112.87350945 8.58090321 -95.0625 7.125 C-90.91538478 6.78620999 -86.76826419 6.44748841 -82.62109375 6.109375 C-81.57860474 6.02434723 -80.53611572 5.93931946 -79.46203613 5.85171509 C-64.2491638 4.61787483 -49.02738118 3.49787304 -33.80639648 2.36938477 C-32.19256325 2.24904877 -32.19256325 2.24904877 -30.54612732 2.12628174 C-28.55155065 1.97758456 -26.55689724 1.829911 -24.56214905 1.68353271 C-19.29266437 1.29017901 -14.03853112 0.8222475 -8.78408813 0.26153564 C-5.85040814 -0.00890579 -2.94449614 -0.03423833 0 0 Z " fill="#303F48" transform="translate(1278.625,442.9375)"/>
<path d="M0 0 C8.3493107 -0.12405977 16.56743719 0.23061511 24.88671875 0.91796875 C26.72779457 1.06413635 26.72779457 1.06413635 28.60606384 1.21325684 C31.25256012 1.42390716 33.89885975 1.63620175 36.54498291 1.85140991 C40.75990188 2.19408936 44.97535044 2.52990759 49.19091797 2.86450195 C53.61174516 3.21564143 58.03254807 3.56706317 62.45318604 3.920578 C77.1298985 5.09405383 91.80888937 6.23720057 106.48892212 7.36831665 C110.49105444 7.67682453 114.49295771 7.98825055 118.49487305 8.29956055 C128.80069192 9.09673899 139.10561401 9.88821038 149.42089844 10.55322266 C150.46002286 10.62055147 150.46002286 10.62055147 151.52013969 10.68924046 C154.85578898 10.90466434 158.19158202 11.11517535 161.52798462 11.31877136 C163.30343155 11.43132011 163.30343155 11.43132011 165.11474609 11.54614258 C166.1573056 11.60997635 167.19986511 11.67381012 168.27401733 11.73957825 C170.64853248 11.9664232 172.75154313 12.2083979 175 13 C176.42132896 15.84265792 176.38906843 18.47674005 176.6484375 21.64599609 C176.70549866 22.32926971 176.76255981 23.01254333 176.8213501 23.71652222 C177.00982337 25.98518901 177.19241586 28.25428976 177.375 30.5234375 C177.50533454 32.10611913 177.63603657 33.68877054 177.76708984 35.27139282 C178.11229287 39.45207913 178.45253448 43.63315508 178.79174805 47.81433105 C179.13428745 52.02620038 179.48136379 56.23769527 179.828125 60.44921875 C180.338446 66.65262914 180.84629938 72.85623427 181.3515625 79.06005859 C181.89299586 85.7073819 182.44279722 92.3539798 183 99 C179.79666293 100.06777902 178.67212182 99.94512205 175.44360352 99.33496094 C174.52156631 99.16438171 173.59952911 98.99380249 172.64955139 98.8180542 C171.65273849 98.62544006 170.6559256 98.43282593 169.62890625 98.234375 C168.59620102 98.04031067 167.56349579 97.84624634 166.49949646 97.64630127 C164.30733864 97.23277113 162.11587019 96.81557254 159.92504883 96.39501953 C156.6084702 95.75881821 153.28986919 95.13426327 149.97070312 94.51171875 C147.83580563 94.10746665 145.70103588 93.70253917 143.56640625 93.296875 C142.58781143 93.11235779 141.60921661 92.92784058 140.60096741 92.73773193 C134.59789535 91.58065884 128.68661398 90.19746335 122.76344299 88.68548584 C119.18484381 87.79779643 115.60606858 87.0938762 111.98046875 86.421875 C110.54305357 86.15009255 109.10580337 85.87743645 107.66870117 85.60400391 C106.57119034 85.39581024 106.57119034 85.39581024 105.45150757 85.18341064 C86.38672514 81.53374102 68.23668034 76.6754575 50.1875 69.4375 C49.30989014 69.08574707 48.43228027 68.73399414 47.52807617 68.37158203 C31.22838207 61.57054052 15.15359213 50.49444701 7.76171875 33.87109375 C7.38466797 32.94490234 7.38466797 32.94490234 7 32 C6.484375 30.80375 5.96875 29.6075 5.4375 28.375 C2.16372202 19.28713544 0.7051533 9.59702484 0 0 Z " fill="#314049" transform="translate(635,443)"/>
<path d="M0 0 C0.94788391 -0.00137466 1.89576782 -0.00274933 2.87237549 -0.00416565 C4.42172791 0.00122726 4.42172791 0.00122726 6.00238037 0.00672913 C7.09536438 0.0065831 8.18834839 0.00643707 9.31445312 0.00628662 C12.92887351 0.00698355 16.54324242 0.01476576 20.15765381 0.02259827 C22.66300427 0.02446322 25.1683551 0.02588676 27.67370605 0.02688599 C33.59513092 0.03031464 39.51653925 0.038197 45.43795562 0.04823548 C52.84191423 0.0605145 60.24587512 0.06588149 67.64984131 0.07142639 C80.85558014 0.08215292 94.06130265 0.09922204 107.26702881 0.12025452 C107.26702881 6.39025452 107.26702881 12.66025452 107.26702881 19.12025452 C72.28702881 19.12025452 37.30702881 19.12025452 1.26702881 19.12025452 C1.26702881 38.59025452 1.26702881 58.06025452 1.26702881 78.12025452 C43.83702881 78.61525452 43.83702881 78.61525452 87.26702881 79.12025452 C87.26702881 72.19025452 87.26702881 65.26025452 87.26702881 58.12025452 C66.14702881 58.12025452 45.02702881 58.12025452 23.26702881 58.12025452 C23.26702881 51.85025452 23.26702881 45.58025452 23.26702881 39.12025452 C50.98702881 39.12025452 78.70702881 39.12025452 107.26702881 39.12025452 C107.26702881 58.26025452 107.26702881 77.40025452 107.26702881 97.12025452 C78.30902389 97.36123653 78.30902389 97.36123653 63.99664593 97.42177773 C56.25850504 97.45501595 48.52075256 97.49720114 40.78289795 97.57289124 C34.00071443 97.63920139 27.2189516 97.67396421 20.43646431 97.68951797 C17.84926296 97.70060176 15.26208453 97.72224596 12.67506218 97.75463486 C9.05018331 97.79821137 5.42703971 97.80418763 1.80194092 97.80140686 C0.73307144 97.82297852 -0.33579803 97.84455017 -1.4370575 97.86677551 C-7.50137085 97.8164592 -10.99114117 97.06724509 -15.41193295 92.79943275 C-18.70289044 88.61628043 -19.03035315 84.97923548 -19.02349854 79.7848053 C-19.03021576 79.05258759 -19.03693298 78.32036987 -19.04385376 77.56596375 C-19.06282745 75.14909551 -19.06675762 72.73250507 -19.06890869 70.31556702 C-19.07533713 68.6317178 -19.08206553 66.9478697 -19.08908081 65.26402283 C-19.10105203 61.73511669 -19.1047618 58.20630843 -19.10357666 54.67738342 C-19.10337349 50.16243025 -19.13067349 45.6481067 -19.16512108 41.13330269 C-19.18739335 37.65537145 -19.1914141 34.17759165 -19.19035721 30.69959641 C-19.19271276 29.03546352 -19.20153374 27.37132643 -19.21702194 25.70726395 C-19.2366891 23.37589585 -19.23084217 21.04588423 -19.21881104 18.7144928 C-19.23005005 18.0316925 -19.24128906 17.34889221 -19.25286865 16.645401 C-19.18831516 11.70562546 -17.8095575 8.92815303 -14.73297119 5.12025452 C-9.77710425 1.30010709 -6.15757489 -0.00690311 0 0 Z " fill="#2F3E47" transform="translate(652.7329711914063,618.8797454833984)"/>
<path d="M0 0 C0.89874816 0.00092179 1.79749632 0.00184359 2.72347927 0.00279331 C3.75138073 0.00141865 4.77928219 0.00004398 5.83833218 -0.00137234 C6.975527 0.00222294 8.11272182 0.00581821 9.2843771 0.00952244 C10.47445873 0.00937641 11.66454037 0.00923038 12.89068508 0.00907993 C16.16326569 0.00965889 19.43580402 0.01468801 22.70837617 0.02165389 C26.1250196 0.02788815 29.54166379 0.02849128 32.95831203 0.0296793 C39.43232563 0.0327924 45.90632242 0.0410055 52.3803286 0.05102879 C59.74901216 0.06219058 67.11769651 0.06770054 74.48638642 0.07272422 C89.64814464 0.08318813 104.80988712 0.10078717 119.97163296 0.12304783 C120.95825404 3.7393521 121.10511638 6.98989101 121.09663296 10.74804783 C121.10050014 12.46894627 121.10050014 12.46894627 121.10444546 14.22461033 C120.97163296 17.12304783 120.97163296 17.12304783 119.97163296 19.12304783 C86.31163296 19.12304783 52.65163296 19.12304783 17.97163296 19.12304783 C17.97163296 25.72304783 17.97163296 32.32304783 17.97163296 39.12304783 C50.64163296 39.12304783 83.31163296 39.12304783 116.97163296 39.12304783 C118.5586014 42.29698471 118.11477766 45.70478988 118.09663296 49.18554783 C118.10050014 49.93127048 118.10436733 50.67699314 118.10835171 51.44531345 C118.09826797 56.99641282 118.09826797 56.99641282 116.97163296 58.12304783 C113.89708535 58.21837111 110.84504138 58.24856162 107.77021694 58.23657322 C106.32159267 58.23679226 106.32159267 58.23679226 104.84370327 58.23701572 C101.63502197 58.23631617 98.42639793 58.2285218 95.21772671 58.22070408 C92.99955178 58.21884005 90.78137644 58.21741608 88.56320095 58.21641636 C82.71223224 58.21258998 76.86128818 58.20275868 71.01032925 58.19171238 C65.04495992 58.18150082 59.07958662 58.17691929 53.11421108 58.17187595 C41.40000578 58.16113652 29.68582527 58.14353876 17.97163296 58.12304783 C17.97163296 65.05304783 17.97163296 71.98304783 17.97163296 79.12304783 C51.63163296 79.12304783 85.29163296 79.12304783 119.97163296 79.12304783 C120.92146156 82.92236224 121.10534758 85.91946817 121.09663296 89.81054783 C121.10050014 91.54884861 121.10050014 91.54884861 121.10444546 93.32226658 C120.97163296 96.12304783 120.97163296 96.12304783 119.97163296 97.12304783 C118.50414336 97.21869905 117.03206412 97.24493092 115.56146145 97.24330235 C114.60928738 97.24467701 113.6571133 97.24605167 112.67608547 97.24746799 C111.62304729 97.24387272 110.57000912 97.24027744 109.48506069 97.23657322 C108.38276119 97.23671925 107.28046169 97.23686527 106.14475918 97.23701572 C102.48156204 97.23631604 98.81841502 97.22852107 95.15522671 97.22070408 C92.62316827 97.2188401 90.09110948 97.2174161 87.55905056 97.21641636 C81.56315046 97.21298129 75.56727206 97.20509052 69.57138067 97.19506687 C62.74682238 97.1839046 55.92226324 97.178395 49.09769809 97.17337143 C35.05566632 97.16290787 21.01365063 97.14530913 6.97163296 97.12304783 C6.97163296 96.46304783 6.97163296 95.80304783 6.97163296 95.12304783 C6.41475796 94.91679783 5.85788296 94.71054783 5.28413296 94.49804783 C1.19682716 92.06775789 -1.53298586 88.60919137 -3.02836704 84.12304783 C-3.12461911 81.46627324 -3.164803 78.83597232 -3.15776157 76.17920017 C-3.15951389 75.37082203 -3.16126621 74.56244389 -3.16307163 73.72956944 C-3.1674752 71.05601961 -3.16455795 68.38253584 -3.16117954 65.70898533 C-3.16185288 63.85478801 -3.16282315 62.00059079 -3.16407871 60.14639378 C-3.16555355 56.26099907 -3.16340749 52.37562736 -3.15873814 48.49023533 C-3.15303303 43.49857542 -3.15632615 38.50696919 -3.1623106 33.51531124 C-3.16591521 29.6876087 -3.16477823 25.85991899 -3.16218281 22.03221607 C-3.16151367 20.19092522 -3.1623415 18.34963321 -3.16466236 16.5083437 C-3.16718811 13.94156627 -3.16334978 11.37487723 -3.15776157 8.80810642 C-3.1597858 8.04030354 -3.16181004 7.27250065 -3.16389561 6.48143101 C-3.13838614 0.19038546 -3.13838614 0.19038546 0 0 Z " fill="#324049" transform="translate(932.0283670425415,618.8769521713257)"/>
<path d="M0 0 C40.59 0 81.18 0 123 0 C123 6.27 123 12.54 123 19 C72.51 19.495 72.51 19.495 21 20 C21 25.94 21 31.88 21 38 C53.67 38.33 86.34 38.66 120 39 C121 43 121 43 120 58 C70.995 58.495 70.995 58.495 21 59 C21 65.27 21 71.54 21 78 C54.66 78.33 88.32 78.66 123 79 C123 84.94 123 90.88 123 97 C85.71 97 48.42 97 10 97 C10 96.34 10 95.68 10 95 C9.2575 94.773125 8.515 94.54625 7.75 94.3125 C4.44234191 92.733845 3.05141591 91.00385901 1 88 C-0.25050117 84.24849648 -0.13141963 80.76324785 -0.11352539 76.85668945 C-0.11364593 76.01379207 -0.11376646 75.17089468 -0.11389065 74.30245495 C-0.11314397 71.57270359 -0.10552687 68.84302041 -0.09765625 66.11328125 C-0.09618607 64.42850782 -0.09516583 62.74373394 -0.09460449 61.05895996 C-0.0893604 54.81013301 -0.07539922 48.56131584 -0.0625 42.3125 C-0.041875 28.349375 -0.02125 14.38625 0 0 Z " fill="#303F48" transform="translate(784,619)"/>
<path d="M0 0 C9.26991666 -1.63319603 19.61578645 -3.0390547 28.11199951 1.75653076 C34.99712903 7.02796472 40.79042238 13.41614698 46.53320312 19.87487793 C48.89509162 22.50305375 51.32966193 25.06200663 53.75976562 27.62695312 C57.99905727 32.11296248 62.17111477 36.65512918 66.29527283 41.24729919 C67.89536161 43.08491395 67.89536161 43.08491395 70 44 C70 43.34 70 42.68 70 42 C71.57421875 40.484375 71.57421875 40.484375 73.6875 38.75 C77.21733339 35.75893065 80.04273825 32.56387954 83 29 C84.67810993 27.4737376 86.39692294 26.02137166 88.15625 24.58984375 C90.56613565 22.51182794 92.76226496 20.26305595 95 18 C96.23205324 16.77761724 97.46520659 15.55634268 98.69921875 14.3359375 C100.02869091 13.01567039 101.35811712 11.695357 102.6875 10.375 C103.36361328 9.70726562 104.03972656 9.03953125 104.73632812 8.3515625 C105.70795898 7.38476562 105.70795898 7.38476562 106.69921875 6.3984375 C107.57839966 5.52711182 107.57839966 5.52711182 108.4753418 4.63818359 C110.20250827 2.87045506 110.20250827 2.87045506 112 0 C114.52197266 -0.34057617 114.52197266 -0.34057617 117.6640625 -0.29296875 C118.78554687 -0.28330078 119.90703125 -0.27363281 121.0625 -0.26367188 C122.238125 -0.23853516 123.41375 -0.21339844 124.625 -0.1875 C126.40003906 -0.16719727 126.40003906 -0.16719727 128.2109375 -0.14648438 C131.14107539 -0.11103916 134.07031459 -0.06162769 137 0 C137 4 137 4 135.65306091 5.56674194 C135.01401321 6.07887238 134.37496552 6.59100281 133.71655273 7.11865234 C132.98177704 7.7263446 132.24700134 8.33403687 131.48995972 8.96014404 C130.66827301 9.63329651 129.8465863 10.30644897 129 11 C120.50604472 18.34788948 112.20698676 25.89263768 104.0625 33.625 C103.4924889 34.16558422 102.9224778 34.70616844 102.33519363 35.263134 C83.405705 52.76052409 83.405705 52.76052409 76.21459961 76.66357422 C76.39440101 83.68179613 77.3856364 90.16096874 79 97 C72.07 97 65.14 97 58 97 C58.13921875 93.11541016 58.13921875 93.11541016 58.28125 89.15234375 C58.34374818 86.62711414 58.39225969 84.1019726 58.43945312 81.57641602 C58.47953925 79.82927515 58.53402743 78.08240026 58.60351562 76.33618164 C59.36878652 66.42384992 59.36878652 66.42384992 56.27587891 57.36425781 C54.2658664 55.62673504 52.28216902 54.34335876 50 53 C48.57763672 51.46020508 48.57763672 51.46020508 47.375 49.875 C45.27987728 47.33879881 43.15151893 45.44464394 40.59375 43.40234375 C38.09399348 41.20280309 36.0259128 38.65701343 33.8671875 36.12890625 C29.95882999 31.67272458 25.94252511 27.29501674 21 24 C21 23.34 21 22.68 21 22 C20.01 21.67 19.02 21.34 18 21 C16.421875 19.36328125 16.421875 19.36328125 14.75 17.3125 C11.46288719 13.42773031 7.90551599 10.23848479 4 7 C1.5625 4.8125 1.5625 4.8125 0 3 C0 2.01 0 1.02 0 0 Z " fill="#394850" transform="translate(1149,619)"/>
<path d="M0 0 C3.31248187 -0.02888146 6.62493167 -0.04675799 9.9375 -0.0625 C10.88302734 -0.07087891 11.82855469 -0.07925781 12.80273438 -0.08789062 C14.15141602 -0.09272461 14.15141602 -0.09272461 15.52734375 -0.09765625 C16.77632446 -0.10551147 16.77632446 -0.10551147 18.05053711 -0.11352539 C20 0 20 0 21 1 C21.09496873 3.4035246 21.12557554 5.77807093 21.11352539 8.18188477 C21.11364593 8.9452436 21.11376646 9.70860243 21.11389065 10.49509335 C21.11314155 12.97722683 21.1055135 15.45928612 21.09765625 17.94140625 C21.09618682 19.46935998 21.09516612 20.99731422 21.09460449 22.52526855 C21.08935173 28.20435336 21.07539065 33.8834274 21.0625 39.5625 C21.041875 52.246875 21.02125 64.93125 21 78 C50.04 78.33 79.08 78.66 109 79 C109 84.94 109 90.88 109 97 C96.19564537 97.11297755 83.39162197 97.20470323 70.58688164 97.25906086 C64.641066 97.28515029 58.69560915 97.32053741 52.75 97.37719727 C47.01172486 97.43153884 41.27379474 97.46142546 35.53528214 97.47438622 C33.34639174 97.48362212 31.15752015 97.50165781 28.9687767 97.52865028 C25.90178427 97.56496814 22.83621596 97.56994407 19.76904297 97.56762695 C18.86489151 97.58560333 17.96074005 97.60357971 17.02919006 97.62210083 C12.62895588 97.58614927 10.45848675 97.28622998 6.63943481 94.90202332 C1.19360496 88.91440615 -0.60505642 84.48136813 -0.45410156 76.40258789 C-0.45497772 75.15747437 -0.45497772 75.15747437 -0.45587158 73.88720703 C-0.45310254 71.16525282 -0.42206745 68.44441725 -0.390625 65.72265625 C-0.38315839 63.82694598 -0.37746744 61.93122797 -0.37347412 60.0355072 C-0.35825085 55.06231118 -0.31899767 50.08958744 -0.2746582 45.11657715 C-0.233634 40.03546537 -0.21544786 34.95427677 -0.1953125 29.87304688 C-0.15250011 19.91515785 -0.08428901 9.9576183 0 0 Z " fill="#34434B" transform="translate(1075,619)"/>
<path d="M0 0 C1.64035217 -0.00065712 1.64035217 -0.00065712 3.31384277 -0.00132751 C6.90667958 0.0007524 10.49904218 0.02404646 14.09179688 0.04760742 C16.59142807 0.05320619 19.09106257 0.05747496 21.59069824 0.06047058 C27.48373019 0.07073099 33.37658875 0.09434373 39.26954985 0.12451905 C46.64256046 0.16144713 54.01559235 0.17747672 61.38867188 0.1940918 C74.52938484 0.22621731 87.66994913 0.27738736 100.81054688 0.34057617 C100.81054688 6.61057617 100.81054688 12.88057617 100.81054688 19.34057617 C65.83054687 19.34057617 30.85054687 19.34057617 -5.18945312 19.34057617 C-5.18945312 38.81057617 -5.18945312 58.28057617 -5.18945312 78.34057617 C37.38054688 78.83557617 37.38054688 78.83557617 80.81054688 79.34057617 C80.81054688 72.41057617 80.81054688 65.48057617 80.81054688 58.34057617 C59.69054687 58.34057617 38.57054687 58.34057617 16.81054688 58.34057617 C16.81054688 52.07057617 16.81054688 45.80057617 16.81054688 39.34057617 C44.53054688 39.34057617 72.25054688 39.34057617 100.81054688 39.34057617 C100.81054688 58.48057617 100.81054688 77.62057617 100.81054688 97.34057617 C71.69188729 97.50123085 71.69188729 97.50123085 57.33914852 97.54159164 C49.56755271 97.56378272 41.79612806 97.59198305 34.0246582 97.64233398 C27.21657936 97.68642217 20.40868597 97.70969253 13.6004734 97.72008514 C10.99883925 97.72749439 8.3972156 97.74196223 5.79566002 97.7634964 C2.16066691 97.79239685 -1.47355367 97.79653764 -5.10864258 97.79467773 C-6.19189316 97.80905884 -7.27514374 97.82343994 -8.39122009 97.83825684 C-9.37980011 97.83275818 -10.36838013 97.82725952 -11.38691711 97.82159424 C-12.6769664 97.827125 -12.6769664 97.827125 -13.99307728 97.83276749 C-16.18945312 97.34057617 -16.18945312 97.34057617 -17.98961163 95.31051254 C-18.38555932 94.66043354 -18.78150702 94.01035454 -19.18945312 93.34057617 C-18.42555267 93.66399994 -17.66165222 93.98742371 -16.87460327 94.32064819 C-11.94362234 95.68538103 -7.32092325 95.64869594 -2.22705078 95.65942383 C-1.13377472 95.66946945 -0.04049866 95.67951508 1.08590698 95.68986511 C4.68942757 95.72068644 8.29287389 95.7377296 11.89648438 95.75463867 C14.39898314 95.77335113 16.9014756 95.7929246 19.40396118 95.81332397 C25.31111233 95.85940113 31.21827784 95.89681237 37.12551177 95.92999685 C45.69546315 95.97875809 54.26528158 96.045114 62.83512878 96.10931396 C74.82689385 96.1975231 86.81863949 96.26729015 98.81054688 96.34057617 C98.81054688 78.19057617 98.81054688 60.04057617 98.81054688 41.34057617 C72.41054688 41.34057617 46.01054688 41.34057617 18.81054688 41.34057617 C18.81054688 46.29057617 18.81054688 51.24057617 18.81054688 56.34057617 C39.60054687 56.34057617 60.39054688 56.34057617 81.81054688 56.34057617 C81.81054688 64.26057617 81.81054688 72.18057617 81.81054688 80.34057617 C52.44054687 80.34057617 23.07054687 80.34057617 -7.18945312 80.34057617 C-7.18945312 59.55057617 -7.18945312 38.76057617 -7.18945312 17.34057617 C27.79054688 17.34057617 62.77054688 17.34057617 98.81054688 17.34057617 C98.81054688 12.39057617 98.81054688 7.44057617 98.81054688 2.34057617 C84.31105937 2.4017765 69.81175203 2.47887536 55.31245995 2.57629108 C48.5799046 2.62122219 41.84740184 2.66064294 35.11474609 2.68701172 C28.61777951 2.71247298 22.12101701 2.75339589 15.6241951 2.80376244 C13.14511654 2.82045162 10.66599747 2.83195308 8.18687057 2.83819008 C4.71531358 2.84780851 1.24435835 2.87584223 -2.22705078 2.90820312 C-3.25276184 2.90676804 -4.2784729 2.90533295 -5.33526611 2.90385437 C-10.70317859 2.97465315 -14.5581589 3.31015299 -19.18945312 6.34057617 C-22.03184144 9.28447836 -23.04056874 12.45204441 -24.18945312 16.34057617 C-24.51945313 16.34057617 -24.84945312 16.34057617 -25.18945312 16.34057617 C-24.89960109 11.50970899 -24.12356701 8.22475428 -20.74706268 4.61561298 C-14.74063623 -0.30116144 -7.33304084 -0.07765471 0 0 Z " fill="#5A666D" transform="translate(659.189453125,618.659423828125)"/>
<path d="M0 0 C40.59 0 81.18 0 123 0 C123 6.27 123 12.54 123 19 C88.68 19 54.36 19 19 19 C19 18.34 19 17.68 19 17 C52.66 17 86.32 17 121 17 C121 12.05 121 7.1 121 2 C81.73 2 42.46 2 2 2 C2.0825 15.921875 2.165 29.84375 2.25 44.1875 C2.26579102 48.57957764 2.28158203 52.97165527 2.29785156 57.49682617 C2.3310812 61.44189649 2.3310812 61.44189649 2.36956787 65.38691711 C2.38415949 67.14081865 2.39095249 68.8947958 2.39154053 70.64875793 C2.39395897 73.30955661 2.42130164 75.96906393 2.45410156 78.62963867 C2.44907749 79.40795894 2.44405342 80.1862792 2.43887711 80.98818493 C2.53491332 85.96448358 3.49867231 88.47357161 7 92 C7.5775 92.598125 8.155 93.19625 8.75 93.8125 C9.1625 94.204375 9.575 94.59625 10 95 C5.57673622 93.64844718 3.59587018 91.80109562 1 88 C-0.25050117 84.24849648 -0.13141963 80.76324785 -0.11352539 76.85668945 C-0.11364593 76.01379207 -0.11376646 75.17089468 -0.11389065 74.30245495 C-0.11314397 71.57270359 -0.10552687 68.84302041 -0.09765625 66.11328125 C-0.09618607 64.42850782 -0.09516583 62.74373394 -0.09460449 61.05895996 C-0.0893604 54.81013301 -0.07539922 48.56131584 -0.0625 42.3125 C-0.041875 28.349375 -0.02125 14.38625 0 0 Z " fill="#646F76" transform="translate(784,619)"/>
<path d="M0 0 C0.89874816 0.00092179 1.79749632 0.00184359 2.72347927 0.00279331 C3.75138073 0.00141865 4.77928219 0.00004398 5.83833218 -0.00137234 C6.975527 0.00222294 8.11272182 0.00581821 9.2843771 0.00952244 C10.47445873 0.00937641 11.66454037 0.00923038 12.89068508 0.00907993 C16.16326569 0.00965889 19.43580402 0.01468801 22.70837617 0.02165389 C26.1250196 0.02788815 29.54166379 0.02849128 32.95831203 0.0296793 C39.43232563 0.0327924 45.90632242 0.0410055 52.3803286 0.05102879 C59.74901216 0.06219058 67.11769651 0.06770054 74.48638642 0.07272422 C89.64814464 0.08318813 104.80988712 0.10078717 119.97163296 0.12304783 C120.95825404 3.7393521 121.10511638 6.98989101 121.09663296 10.74804783 C121.10050014 12.46894627 121.10050014 12.46894627 121.10444546 14.22461033 C120.97163296 17.12304783 120.97163296 17.12304783 119.97163296 19.12304783 C68.98663296 19.61804783 68.98663296 19.61804783 16.97163296 20.12304783 C16.64163296 19.13304783 16.31163296 18.14304783 15.97163296 17.12304783 C49.63163296 17.12304783 83.29163296 17.12304783 117.97163296 17.12304783 C117.97163296 12.17304783 117.97163296 7.22304783 117.97163296 2.12304783 C78.70163296 2.12304783 39.43163296 2.12304783 -1.02836704 2.12304783 C-0.88399204 15.71492283 -0.73961704 29.30679783 -0.59086704 43.31054783 C-0.54776402 47.5982114 -0.50466099 51.88587498 -0.46025181 56.30346775 C-0.41698667 60.15538077 -0.41698667 60.15538077 -0.37246799 64.0072794 C-0.35327899 65.71954113 -0.33594925 67.43182432 -0.32009983 69.14412022 C-0.29569305 71.74157665 -0.26534036 74.33890332 -0.23368931 76.93628025 C-0.22503393 78.07565556 -0.22503393 78.07565556 -0.21620369 79.23804855 C-0.16419122 82.98331656 0.07900231 86.47986115 0.97163296 90.12304783 C-1.27616454 88.07071098 -2.03059124 87.11637522 -3.02836704 84.12304783 C-3.12461911 81.46627324 -3.164803 78.83597232 -3.15776157 76.17920017 C-3.15951389 75.37082203 -3.16126621 74.56244389 -3.16307163 73.72956944 C-3.1674752 71.05601961 -3.16455795 68.38253584 -3.16117954 65.70898533 C-3.16185288 63.85478801 -3.16282315 62.00059079 -3.16407871 60.14639378 C-3.16555355 56.26099907 -3.16340749 52.37562736 -3.15873814 48.49023533 C-3.15303303 43.49857542 -3.15632615 38.50696919 -3.1623106 33.51531124 C-3.16591521 29.6876087 -3.16477823 25.85991899 -3.16218281 22.03221607 C-3.16151367 20.19092522 -3.1623415 18.34963321 -3.16466236 16.5083437 C-3.16718811 13.94156627 -3.16334978 11.37487723 -3.15776157 8.80810642 C-3.1597858 8.04030354 -3.16181004 7.27250065 -3.16389561 6.48143101 C-3.13838614 0.19038546 -3.13838614 0.19038546 0 0 Z " fill="#6F797F" transform="translate(932.0283670425415,618.8769521713257)"/>
<path d="M0 0 C33 0 66 0 100 0 C101 4 101 4 100 19 C66.67 19 33.34 19 -1 19 C-1 18.34 -1 17.68 -1 17 C31.67 17 64.34 17 98 17 C98 12.05 98 7.1 98 2 C65.66 2 33.32 2 0 2 C0 1.34 0 0.68 0 0 Z " fill="#5F6A71" transform="translate(804,658)"/>
<path d="M0 0 C1.64035217 -0.00065712 1.64035217 -0.00065712 3.31384277 -0.00132751 C6.90667958 0.0007524 10.49904218 0.02404646 14.09179688 0.04760742 C16.59142807 0.05320619 19.09106257 0.05747496 21.59069824 0.06047058 C27.48373019 0.07073099 33.37658875 0.09434373 39.26954985 0.12451905 C46.64256046 0.16144713 54.01559235 0.17747672 61.38867188 0.1940918 C74.52938484 0.22621731 87.66994913 0.27738736 100.81054688 0.34057617 C100.81054688 6.61057617 100.81054688 12.88057617 100.81054688 19.34057617 C65.83054687 19.34057617 30.85054687 19.34057617 -5.18945312 19.34057617 C-5.51945313 20.00057617 -5.84945312 20.66057617 -6.18945312 21.34057617 C-6.18945312 20.35057617 -6.18945312 19.36057617 -6.18945312 18.34057617 C28.46054687 18.34057617 63.11054687 18.34057617 98.81054688 18.34057617 C98.81054688 13.06057617 98.81054688 7.78057617 98.81054688 2.34057617 C84.31105937 2.4017765 69.81175203 2.47887536 55.31245995 2.57629108 C48.5799046 2.62122219 41.84740184 2.66064294 35.11474609 2.68701172 C28.61777951 2.71247298 22.12101701 2.75339589 15.6241951 2.80376244 C13.14511654 2.82045162 10.66599747 2.83195308 8.18687057 2.83819008 C4.71531358 2.84780851 1.24435835 2.87584223 -2.22705078 2.90820312 C-3.25276184 2.90676804 -4.2784729 2.90533295 -5.33526611 2.90385437 C-10.70317859 2.97465315 -14.5581589 3.31015299 -19.18945312 6.34057617 C-22.03184144 9.28447836 -23.04056874 12.45204441 -24.18945312 16.34057617 C-24.51945313 16.34057617 -24.84945312 16.34057617 -25.18945312 16.34057617 C-24.89960109 11.50970899 -24.12356701 8.22475428 -20.74706268 4.61561298 C-14.74063623 -0.30116144 -7.33304084 -0.07765471 0 0 Z " fill="#727C82" transform="translate(659.189453125,618.659423828125)"/>
<path d="M0 0 C33.99 0.33 67.98 0.66 103 1 C103.9498286 4.79931441 104.13371462 7.79642034 104.125 11.6875 C104.12886719 13.42580078 104.12886719 13.42580078 104.1328125 15.19921875 C104 18 104 18 103 19 C101.5325104 19.09565123 100.06043116 19.12188309 98.58982849 19.12025452 C97.63765442 19.12162918 96.68548035 19.12300385 95.70445251 19.12442017 C94.65141434 19.12082489 93.59837616 19.11722961 92.51342773 19.11352539 C91.41112823 19.11367142 90.30882874 19.11381744 89.17312622 19.1139679 C85.50992908 19.11326821 81.84678206 19.10547324 78.18359375 19.09765625 C75.65153532 19.09579227 73.11947652 19.09436827 70.5874176 19.09336853 C64.59151751 19.08993346 58.59563911 19.08204269 52.59974772 19.07201904 C45.77518942 19.06085677 38.95063028 19.05534717 32.12606514 19.05032361 C18.08403336 19.03986004 4.04201767 19.0222613 -10 19 C-10 18.34 -10 17.68 -10 17 C26.63 17.33 63.26 17.66 101 18 C101 13.05 101 8.1 101 3 C67.34 3 33.68 3 -1 3 C-0.67 2.01 -0.34 1.02 0 0 Z " fill="#525F66" transform="translate(949,697)"/>
<path d="M0 0 C0.66 0 1.32 0 2 0 C1.67 4.62 1.34 9.24 1 14 C2.49781006 13.72736328 2.49781006 13.72736328 4.02587891 13.44921875 C7.74856919 12.77303593 11.47247515 12.10376588 15.19677734 11.43652344 C16.80518764 11.14737829 18.41326717 10.85638662 20.02099609 10.56347656 C22.33866177 10.14156095 24.65745552 9.7264105 26.9765625 9.3125 C27.68930328 9.18125732 28.40204407 9.05001465 29.13638306 8.91479492 C33.14102328 8.2076229 36.9349584 7.86653762 41 8 C37.36251558 10.42498961 33.90140963 10.96183443 29.68359375 11.7265625 C28.87132828 11.87910492 28.05906281 12.03164734 27.22218323 12.18881226 C25.50720104 12.50962786 23.79159927 12.82714642 22.07543945 13.14160156 C19.44285354 13.62401897 16.81214964 14.11577047 14.18164062 14.609375 C12.51572613 14.91981399 10.84971366 15.22972783 9.18359375 15.5390625 C7.9991996 15.75932602 7.9991996 15.75932602 6.7908783 15.98403931 C1.23623279 17 1.23623279 17 -1 17 C-0.67 11.39 -0.34 5.78 0 0 Z " fill="#6A757B" transform="translate(1103,526)"/>
<path d="M0 0 C2.68092691 2.68092691 2.38670257 4.39167363 2.625 8.125 C2.69976563 9.22070312 2.77453125 10.31640625 2.8515625 11.4453125 C2.90054688 12.28835938 2.94953125 13.13140625 3 14 C-0.82280206 15.27426735 -3.05108623 14.61434401 -7.00390625 13.85546875 C-7.68299545 13.72562088 -8.36208466 13.59577301 -9.06175232 13.46199036 C-10.49559126 13.18568907 -11.92869324 12.90553952 -13.36108398 12.62182617 C-15.55572379 12.1888369 -17.75305475 11.77235122 -19.95117188 11.35742188 C-21.34394214 11.08692496 -22.73652729 10.81547276 -24.12890625 10.54296875 C-25.39806885 10.29571045 -26.66723145 10.04845215 -27.97485352 9.79370117 C-31 9 -31 9 -33 7 C-21.87505499 7.95428422 -10.92595594 9.71696443 0 12 C0 8.04 0 4.08 0 0 Z " fill="#6B767C" transform="translate(815,528)"/>
<path d="M0 0 C1.80296583 3.13175576 2.3337631 5.65606722 2.59765625 9.24609375 C2.67693359 10.24833984 2.75621094 11.25058594 2.83789062 12.28320312 C2.91201172 13.32412109 2.98613281 14.36503906 3.0625 15.4375 C3.21752062 17.49888985 3.3749889 19.56009741 3.53515625 21.62109375 C3.600979 22.5330249 3.66680176 23.44495605 3.73461914 24.38452148 C3.95825123 27.01029658 3.95825123 27.01029658 4.52294922 29.60058594 C5.19848618 32.99832252 5.10538858 36.36491804 5.0625 39.8125 C5.05798828 40.50537109 5.05347656 41.19824219 5.04882812 41.91210938 C5.03713156 43.60811068 5.01919924 45.30406703 5 47 C4.34 46.67 3.68 46.34 3 46 C2.60452867 43.60392028 2.33896372 41.30160643 2.1484375 38.88671875 C2.08467926 38.16192825 2.02092102 37.43713776 1.95523071 36.69038391 C1.82144329 35.14643069 1.69230379 33.60206893 1.56738281 32.05737305 C1.37880961 29.73442874 1.17512075 27.41321979 0.96875 25.09179688 C0.24614641 16.71087959 -0.20318715 8.41995255 0 0 Z " fill="#778187" transform="translate(819,479)"/>
<path d="M0 0 C-3.69852241 2.19224766 -7.63333242 2.86931129 -11.80078125 3.65625 C-12.55538132 3.80404907 -13.30998138 3.95184814 -14.08744812 4.10412598 C-16.49476467 4.57493182 -18.90348002 5.03799617 -21.3125 5.5 C-23.7106018 5.9629652 -26.10833263 6.42766779 -28.50541687 6.89587402 C-29.99404972 7.18633897 -31.48328902 7.47371952 -32.97322083 7.75744629 C-36.32749521 8.40917685 -39.60763654 9.14056048 -42.88745117 10.10351562 C-46 11 -46 11 -48 11 C-48 10.34 -48 9.68 -48 9 C-38.022691 6.26502556 -27.98125797 4.14580095 -17.8125 2.25 C-16.03975708 1.91609253 -16.03975708 1.91609253 -14.23120117 1.57543945 C-12.54861206 1.2673938 -12.54861206 1.2673938 -10.83203125 0.953125 C-9.32733276 0.67710449 -9.32733276 0.67710449 -7.79223633 0.39550781 C-5.14914289 0.02112543 -2.66472708 -0.0743333 0 0 Z " fill="#6C777D" transform="translate(1193,524)"/>
<path d="M0 0 C10.89 0 21.78 0 33 0 C33 0.66 33 1.32 33 2 C10.84460967 4.06096654 10.84460967 4.06096654 0 2 C0 1.34 0 0.68 0 0 Z " fill="#5D6970" transform="translate(947,558)"/>
<path d="M0 0 C8.44741329 1.28518641 16.70617889 3.01642528 25 5.0625 C26.65708984 5.4656543 26.65708984 5.4656543 28.34765625 5.87695312 C32.56832196 6.9051955 36.78632176 7.94348215 41 9 C41 9.66 41 10.32 41 11 C11.65458453 5.85613795 11.65458453 5.85613795 0 2 C0 1.34 0 0.68 0 0 Z " fill="#667178" transform="translate(706,518)"/>
<path d="M0 0 C8.720455 4.02482539 18.28042042 11.09299727 22.125 20.125 C22.41375 21.07375 22.7025 22.0225 23 23 C22.34 23 21.68 23 21 23 C19.703125 21.64453125 19.703125 21.64453125 18.25 19.8125 C16.267432 17.41229661 14.48423825 15.57202749 12.0625 13.5625 C7.35710786 9.62533514 3.40202037 5.10303056 0 0 Z " fill="#5B666D" transform="translate(1175,646)"/>
<path d="M0 0 C0.66 0 1.32 0 2 0 C2.46592865 10.76812891 0.82495912 21.41194892 -1 32 C-1.66 31.67 -2.32 31.34 -3 31 C-2.69255098 26.77045026 -2.37815968 22.54144426 -2.0625 18.3125 C-1.97548828 17.11431641 -1.88847656 15.91613281 -1.79882812 14.68164062 C-1.71181641 13.52470703 -1.62480469 12.36777344 -1.53515625 11.17578125 C-1.456604 10.11270752 -1.37805176 9.04963379 -1.29711914 7.9543457 C-1.02469562 5.245556 -0.58626953 2.65646669 0 0 Z " fill="#6C777D" transform="translate(1106,492)"/>
<path d="M0 0 C0.66 0 1.32 0 2 0 C2.15855469 1.12535156 2.31710937 2.25070312 2.48046875 3.41015625 C4.17863877 14.81286846 6.33726996 25.97421784 11.71875 36.296875 C12.1415625 37.18890625 12.564375 38.0809375 13 39 C12.67 39.66 12.34 40.32 12 41 C3.35162046 29.57178418 0.93437848 13.98345729 0 0 Z " fill="#98A0A4" transform="translate(635,443)"/>
<path d="M0 0 C5.55994451 2.06512225 9.5848702 4.08221308 13 9 C14.5823279 10.81886146 16.18282565 12.61979112 17.79296875 14.4140625 C19 16 19 16 19 18 C19.639375 18.268125 20.27875 18.53625 20.9375 18.8125 C23 20 23 20 24 23 C23.01 22.67 22.02 22.34 21 22 C21 21.34 21 20.68 21 20 C20.01 19.67 19.02 19.34 18 19 C16.421875 17.36328125 16.421875 17.36328125 14.75 15.3125 C11.91791017 11.95949725 8.96061307 9.16736772 5.578125 6.38671875 C3.41303742 4.48422842 1.70295269 2.31601566 0 0 Z " fill="#858E93" transform="translate(1149,621)"/>
<path d="M0 0 C7.26 0 14.52 0 22 0 C21.67 4.95 21.34 9.9 21 15 C20.34 15 19.68 15 19 15 C18.97312721 13.18757948 18.95366285 11.37504767 18.9375 9.5625 C18.92589844 8.55316406 18.91429687 7.54382813 18.90234375 6.50390625 C19 4 19 4 20 3 C13.4 2.34 6.8 1.68 0 1 C0 0.67 0 0.34 0 0 Z " fill="#6B767C" transform="translate(1085,366)"/>
<path d="M0 0 C-2.46465042 2.46465042 -3.79580043 2.50774017 -7.19921875 3.0703125 C-8.24400391 3.24433594 -9.28878906 3.41835938 -10.36523438 3.59765625 C-11.46158203 3.77167969 -12.55792969 3.94570313 -13.6875 4.125 C-15.30301758 4.39763672 -15.30301758 4.39763672 -16.95117188 4.67578125 C-22.36488596 5.55870458 -27.51459911 6.23542493 -33 6 C-28.4591326 3.51642885 -23.79400539 2.81682673 -18.75 1.875 C-17.83347656 1.69324219 -16.91695312 1.51148438 -15.97265625 1.32421875 C-10.54803456 0.29501093 -5.51960494 -0.19435229 0 0 Z " fill="#687379" transform="translate(1069,547)"/>
<path d="M0 0 C0 0.66 0 1.32 0 2 C-3.64452344 2.50986264 -7.29078746 3.00605846 -10.9375 3.5 C-12.46987305 3.71462891 -12.46987305 3.71462891 -14.03320312 3.93359375 C-20.08607369 4.74580002 -25.89340944 5.15282396 -32 5 C-22.89513071 0.21964053 -10.18560809 -0.26804232 0 0 Z " fill="#636E75" transform="translate(1035,552)"/>
<path d="M0 0 C3.64581687 -0.02887512 7.29160463 -0.04675585 10.9375 -0.0625 C12.49887695 -0.07506836 12.49887695 -0.07506836 14.09179688 -0.08789062 C15.57583008 -0.09272461 15.57583008 -0.09272461 17.08984375 -0.09765625 C18.46450806 -0.10551147 18.46450806 -0.10551147 19.86694336 -0.11352539 C22 0 22 0 23 1 C23.14115161 3.67058851 23.04247107 6.32432238 23 9 C22.34 9 21.68 9 21 9 C21 6.69 21 4.38 21 2 C14.07 2 7.14 2 0 2 C0 1.34 0 0.68 0 0 Z " fill="#80898F" transform="translate(784,366)"/>
<path d="M0 0 C1.65 0.33 3.3 0.66 5 1 C4.34 8.26 3.68 15.52 3 23 C2.34 23 1.68 23 1 23 C0.69215292 6.61569416 0.69215292 6.61569416 3 2 C1.68 1.67 0.36 1.34 -1 1 C-0.67 0.67 -0.34 0.34 0 0 Z " fill="#6E797F" transform="translate(1098,456)"/>
<path d="M0 0 C-10.18241766 4.70836821 -20.13848574 9.08312691 -31 12 C-31 11.34 -31 10.68 -31 10 C-30.47156494 9.80889648 -29.94312988 9.61779297 -29.39868164 9.42089844 C-26.95206354 8.533936 -24.50728839 7.64199279 -22.0625 6.75 C-21.23169922 6.44964844 -20.40089844 6.14929688 -19.54492188 5.83984375 C-14.53221665 4.00640293 -9.6995296 2.00185744 -4.90795898 -0.35449219 C-3 -1 -3 -1 0 0 Z " fill="#737D83" transform="translate(1246,507)"/>
<path d="M0 0 C0 0.66 0 1.32 0 2 C-2.35344806 2.33923576 -4.7075484 2.67150534 -7.0625 3 C-8.04766602 3.14308594 -8.04766602 3.14308594 -9.05273438 3.2890625 C-13.40138763 3.88887674 -17.61329071 4.09127093 -22 4 C-22 3.34 -22 2.68 -22 2 C-14.57359158 0.39118425 -7.59498961 -0.26442904 0 0 Z " fill="#5C676F" transform="translate(1274,435)"/>
<path d="M0 0 C1.65 0 3.3 0 5 0 C5 0.66 5 1.32 5 2 C4.01 2 3.02 2 2 2 C2.33 2.99 2.66 3.98 3 5 C3.07029121 7.57265818 3.09370832 10.11641431 3.0625 12.6875 C3.05798828 13.38939453 3.05347656 14.09128906 3.04882812 14.81445312 C3.03706927 16.54300538 3.01913454 18.27151365 3 20 C2.34 20 1.68 20 1 20 C0.202163 13.30386804 -0.12910853 6.74233419 0 0 Z " fill="#6E797F" transform="translate(817,456)"/>
<path d="M0 0 C7.26 0 14.52 0 22 0 C22 0.33 22 0.66 22 1 C15.30386804 1.797837 8.74233419 2.12910853 2 2 C2 3.65 2 5.3 2 7 C1.01 7.495 1.01 7.495 0 8 C0 5.36 0 2.72 0 0 Z " fill="#768086" transform="translate(813,366)"/>
<path d="M0 0 C0.66 0 1.32 0 2 0 C2.08121924 1.60332791 2.13929134 3.20784026 2.1875 4.8125 C2.22230469 5.70582031 2.25710938 6.59914063 2.29296875 7.51953125 C2 10 2 10 0.75 11.8125 C-2.34916197 13.91550277 -5.35065417 13.17947602 -9 13 C-9 12.34 -9 11.68 -9 11 C-4.545 10.505 -4.545 10.505 0 10 C0 6.7 0 3.4 0 0 Z " fill="#717B81" transform="translate(1284,424)"/>
<path d="M0 0 C0 0.99 0 1.98 0 3 C-5.94 3.33 -11.88 3.66 -18 4 C-18 3.34 -18 2.68 -18 2 C-15.06901836 0.53450918 -12.25790589 0.64779515 -9 0.4375 C-7.1128125 0.31181641 -7.1128125 0.31181641 -5.1875 0.18359375 C-3.46011369 0.08409969 -1.73024927 0 0 0 Z " fill="#6A757C" transform="translate(1197,449)"/>
<path d="M0 0 C0.66 0 1.32 0 2 0 C2 1.65 2 3.3 2 5 C7.445 4.505 7.445 4.505 13 4 C13 4.99 13 5.98 13 7 C8.71 7 4.42 7 0 7 C0 4.69 0 2.38 0 0 Z " fill="#677178" transform="translate(1110,442)"/>
<path d="M0 0 C2.62506802 -0.02690844 5.24986173 -0.04679404 7.875 -0.0625 C8.62136719 -0.07087891 9.36773438 -0.07925781 10.13671875 -0.08789062 C15.7734375 -0.11328125 15.7734375 -0.11328125 18 1 C18 1.66 18 2.32 18 3 C12.06 2.67 6.12 2.34 0 2 C0 1.34 0 0.68 0 0 Z " fill="#6F797F" transform="translate(769,445)"/>
<path d="M0 0 C0.99 0.33 1.98 0.66 3 1 C3 5.29 3 9.58 3 14 C1.02 14 -0.96 14 -3 14 C-1.68 13.67 -0.36 13.34 1 13 C0.67 12.01 0.34 11.02 0 10 C-0.06802967 8.27204648 -0.08495645 6.54164635 -0.0625 4.8125 C-0.05347656 3.91144531 -0.04445313 3.01039063 -0.03515625 2.08203125 C-0.02355469 1.39496094 -0.01195312 0.70789063 0 0 Z " fill="#677279" transform="translate(807,435)"/>
<path d="M0 0 C0.66 0.33 1.32 0.66 2 1 C1.67 4.63 1.34 8.26 1 12 C-0.98 12.66 -2.96 13.32 -5 14 C-5 13.01 -5 12.02 -5 11 C-4.01 11 -3.02 11 -2 11 C-1.93941406 10.28972656 -1.87882812 9.57945312 -1.81640625 8.84765625 C-1.69072266 7.46900391 -1.69072266 7.46900391 -1.5625 6.0625 C-1.48128906 5.14597656 -1.40007812 4.22945312 -1.31640625 3.28515625 C-1 1 -1 1 0 0 Z " fill="#636E74" transform="translate(1095,531)"/>
<path d="M0 0 C0 0.66 0 1.32 0 2 C-3.71279469 3.23759823 -7.31306346 3.35608897 -11.1875 3.5625 C-12.31188477 3.62727539 -12.31188477 3.62727539 -13.45898438 3.69335938 C-15.30578375 3.79922685 -17.15286834 3.9000976 -19 4 C-19 3.34 -19 2.68 -19 2 C-12.6221448 0.82706111 -6.49678438 -0.29530838 0 0 Z " fill="#69747B" transform="translate(1001,556)"/>
<path d="M0 0 C0.66 0 1.32 0 2 0 C1.34 6.6 0.68 13.2 0 20 C-0.66 20 -1.32 20 -2 20 C-1.85919445 17.22882696 -1.71256882 14.45817359 -1.5625 11.6875 C-1.52318359 10.90181641 -1.48386719 10.11613281 -1.44335938 9.30664062 C-1.40146484 8.54931641 -1.35957031 7.79199219 -1.31640625 7.01171875 C-1.27974854 6.31522217 -1.24309082 5.61872559 -1.20532227 4.90112305 C-1 3 -1 3 0 0 Z " fill="#757F85" transform="translate(1108,470)"/>
<path d="M0 0 C7.04007955 0.9973446 13.43901392 2.2241982 20 5 C19.67 5.66 19.34 6.32 19 7 C12.73 5.35 6.46 3.7 0 2 C0 1.34 0 0.68 0 0 Z " fill="#717C82" transform="translate(706,518)"/>
<path d="M0 0 C0 0.99 0 1.98 0 3 C-1.98 3 -3.96 3 -6 3 C-6.33 6.3 -6.66 9.6 -7 13 C-7.66 13 -8.32 13 -9 13 C-8.67 9.04 -8.34 5.08 -8 1 C-4 0 -4 0 0 0 Z " fill="#6C777D" transform="translate(1117,455)"/>
<path d="M0 0 C0 0.66 0 1.32 0 2 C-3.46222615 3.06723961 -6.64039266 3.10173486 -10.25 3.0625 C-11.32765625 3.05347656 -12.4053125 3.04445313 -13.515625 3.03515625 C-14.33546875 3.02355469 -15.1553125 3.01195312 -16 3 C-16 2.34 -16 1.68 -16 1 C-10.61509359 0.08342019 -5.45769811 -0.11138159 0 0 Z " fill="#5E6970" transform="translate(1251,437)"/>
<path d="M0 0 C7.08453096 1.12452872 12.55760739 3.19044374 18 8 C19.25390625 10.1953125 19.25390625 10.1953125 20 12 C19.12988281 11.38511719 19.12988281 11.38511719 18.2421875 10.7578125 C13.93915465 7.78971393 10.1313811 5.31573874 5 4 C5 3.34 5 2.68 5 2 C3.35 2 1.7 2 0 2 C0 1.34 0 0.68 0 0 Z " fill="#798389" transform="translate(1260,371)"/>
<path d="M0 0 C-2.20509463 0.73503154 -4.41036743 1.469377 -6.6171875 2.19921875 C-8.50459845 2.83351259 -10.37978962 3.5041539 -12.25 4.1875 C-14.9893576 4.99685565 -17.16244331 5.1669151 -20 5 C-16.8335822 2.29027707 -14.03063577 1.23750576 -10 0.25 C-8.453125 -0.14445313 -8.453125 -0.14445313 -6.875 -0.546875 C-4.12569023 -0.98019013 -2.58659465 -0.92023079 0 0 Z " fill="#6E787E" transform="translate(1214,519)"/>
<path d="M0 0 C0 0.66 0 1.32 0 2 C-1.72807318 2.33895656 -3.45751974 2.67091525 -5.1875 3 C-6.63189453 3.2784375 -6.63189453 3.2784375 -8.10546875 3.5625 C-10.7934206 3.96877612 -13.28771019 4.07933572 -16 4 C-16 3.01 -16 2.02 -16 1 C-13.89594609 0.83191581 -11.79175242 0.66558052 -9.6875 0.5 C-8.51574219 0.4071875 -7.34398437 0.314375 -6.13671875 0.21875 C-4.094806 0.07635011 -2.0468721 0 0 0 Z " fill="#636F75" transform="translate(1239,446)"/>
<path d="M0 0 C11.52164009 -0.18451025 11.52164009 -0.18451025 17 1 C17 1.66 17 2.32 17 3 C11.39 2.67 5.78 2.34 0 2 C0 1.34 0 0.68 0 0 Z " fill="#667077" transform="translate(717,441)"/>
<path d="M0 0 C0.97582031 0.00902344 1.95164062 0.01804687 2.95703125 0.02734375 C3.69308594 0.03894531 4.42914062 0.05054688 5.1875 0.0625 C5.1875 0.7225 5.1875 1.3825 5.1875 2.0625 C-2.7325 2.5575 -2.7325 2.5575 -10.8125 3.0625 C-10.8125 2.4025 -10.8125 1.7425 -10.8125 1.0625 C-7.13862505 0.20951624 -3.7677607 -0.04539471 0 0 Z " fill="#5C686F" transform="translate(1221.8125,438.9375)"/>
<path d="M0 0 C-3.41801486 1.93631383 -6.80356168 2.77099911 -10.625 3.625 C-11.77226563 3.88539063 -12.91953125 4.14578125 -14.1015625 4.4140625 C-17 5 -17 5 -19 5 C-19 4.34 -19 3.68 -19 3 C-16.39816412 2.30238463 -13.79416398 1.61662226 -11.1875 0.9375 C-10.08051758 0.63875977 -10.08051758 0.63875977 -8.95117188 0.33398438 C-3.33984375 -1.11328125 -3.33984375 -1.11328125 0 0 Z " fill="#667177" transform="translate(1164,530)"/>
<path d="M0 0 C-0.33 0.99 -0.66 1.98 -1 3 C-4.96 3 -8.92 3 -13 3 C-13 2.34 -13 1.68 -13 1 C-8.60563789 0.14256349 -4.47427924 -0.08948558 0 0 Z " fill="#5F6A71" transform="translate(1094,448)"/>
<path d="M0 0 C0.99 0.33 1.98 0.66 3 1 C3 5.95 3 10.9 3 16 C2.34 15.67 1.68 15.34 1 15 C0.68758629 12.45058627 0.48696579 9.99638487 0.375 7.4375 C0.33632813 6.72658203 0.29765625 6.01566406 0.2578125 5.28320312 C0.16328217 3.52257575 0.08054183 1.76132272 0 0 Z " fill="#69747A" transform="translate(821,510)"/>
<path d="M0 0 C0.33 0.99 0.66 1.98 1 3 C-0.58226965 3.19627391 -2.16589271 3.38165538 -3.75 3.5625 C-4.63171875 3.66691406 -5.5134375 3.77132813 -6.421875 3.87890625 C-8.88432451 3.99456676 -10.66538064 3.73638695 -13 3 C-13 2.34 -13 1.68 -13 1 C-6.565 0.505 -6.565 0.505 0 0 Z " fill="#626D73" transform="translate(1079,457)"/>
<path d="M0 0 C3.3 0 6.6 0 10 0 C10 0.99 10 1.98 10 3 C6.7 3 3.4 3 0 3 C0 2.01 0 1.02 0 0 Z " fill="#606C72" transform="translate(995,461)"/>
<path d="M0 0 C3.3 0 6.6 0 10 0 C10 0.99 10 1.98 10 3 C6.7 3 3.4 3 0 3 C0 2.01 0 1.02 0 0 Z " fill="#5E6A71" transform="translate(914,461)"/>
<path d="M0 0 C-2.42581871 2.42581871 -4.07433869 2.96355664 -7.48046875 3.09765625 C-8.37378906 3.08605469 -9.26710938 3.07445312 -10.1875 3.0625 C-11.53908203 3.04896484 -11.53908203 3.04896484 -12.91796875 3.03515625 C-13.60503906 3.02355469 -14.29210938 3.01195312 -15 3 C-15 2.34 -15 1.68 -15 1 C-9.92928099 0.28832014 -5.11791642 -0.10662326 0 0 Z " fill="#5B676E" transform="translate(1257,445)"/>
<path d="M0 0 C0 0.66 0 1.32 0 2 C-1.91603157 2.64771508 -3.83285113 3.29309948 -5.75 3.9375 C-7.35101562 4.47697266 -7.35101562 4.47697266 -8.984375 5.02734375 C-11.31735725 5.77982119 -13.61374995 6.44977244 -16 7 C-11.96279622 2.28992893 -6.14164664 0 0 0 Z " fill="#6D787E" transform="translate(660,371)"/>
<path d="M0 0 C0 0.66 0 1.32 0 2 C-2.99480917 2.8723412 -5.63575911 3.10829766 -8.75 3.0625 C-9.54921875 3.05347656 -10.3484375 3.04445313 -11.171875 3.03515625 C-11.77515625 3.02355469 -12.3784375 3.01195312 -13 3 C-13 2.34 -13 1.68 -13 1 C-8.59085217 -0.10228696 -4.51617599 -0.07654536 0 0 Z " fill="#5E6970" transform="translate(674,370)"/>
<path d="M0 0 C1.62490954 -0.02698189 3.24994633 -0.04638757 4.875 -0.0625 C5.77992188 -0.07410156 6.68484375 -0.08570313 7.6171875 -0.09765625 C10 0 10 0 12 1 C12 1.66 12 2.32 12 3 C7.83861737 3.08159574 4.0527516 2.98248524 0 2 C0 1.34 0 0.68 0 0 Z " fill="#5E6970" transform="translate(789,446)"/>
<path d="M0 0 C4.16138263 -0.08159574 7.9472484 0.01751476 12 1 C12 1.66 12 2.32 12 3 C3.42857143 3.14285714 3.42857143 3.14285714 0 2 C0 1.34 0 0.68 0 0 Z " fill="#68737A" transform="translate(834,457)"/>
<path d="M0 0 C1.22589844 0.01353516 1.22589844 0.01353516 2.4765625 0.02734375 C3.41628906 0.04474609 3.41628906 0.04474609 4.375 0.0625 C4.375 0.7225 4.375 1.3825 4.375 2.0625 C0.70089215 3.23821451 -2.79429183 3.13616746 -6.625 3.0625 C-6.625 2.4025 -6.625 1.7425 -6.625 1.0625 C-4.21954362 -0.14022819 -2.67503047 -0.03821472 0 0 Z " fill="#5C686F" transform="translate(1139.625,444.9375)"/>
<path d="M0 0 C3.96 0 7.92 0 12 0 C12 0.99 12 1.98 12 3 C8.04 2.67 4.08 2.34 0 2 C0 1.34 0 0.68 0 0 Z " fill="#6B767C" transform="translate(755,444)"/>
<path d="M0 0 C0.99 0 1.98 0 3 0 C3 2.97 3 5.94 3 9 C2.01 9 1.02 9 0 9 C0 6.03 0 3.06 0 0 Z " fill="#5C676F" transform="translate(805,389)"/>
<path d="M0 0 C-0.33 0.99 -0.66 1.98 -1 3 C-4.63 3 -8.26 3 -12 3 C-12 2.34 -12 1.68 -12 1 C-10.56274129 0.83126522 -9.12518162 0.66509263 -7.6875 0.5 C-6.88699219 0.4071875 -6.08648438 0.314375 -5.26171875 0.21875 C-3 0 -3 0 0 0 Z " fill="#626D74" transform="translate(1172,451)"/>
<path d="M0 0 C0.66 0 1.32 0 2 0 C2.04254356 1.99954746 2.04080783 4.00041636 2 6 C1 7 1 7 -2.0625 7.0625 C-3.5165625 7.0315625 -3.5165625 7.0315625 -5 7 C-5 6.34 -5 5.68 -5 5 C-3.68 5 -2.36 5 -1 5 C-0.67 3.35 -0.34 1.7 0 0 Z " fill="#737D83" transform="translate(1102,443)"/>
<path d="M0 0 C3.39859703 1.46966358 5.64963709 3.38037514 8.25 6 C8.95640625 6.70125 9.6628125 7.4025 10.390625 8.125 C12 10 12 10 12 12 C8.60184863 10.86728288 7.71355084 9.8090686 5.4375 7.125 C4.53837891 6.07699219 4.53837891 6.07699219 3.62109375 5.0078125 C2 3 2 3 0 0 Z " fill="#939BA0" transform="translate(1175,646)"/>
<path d="M0 0 C2.97 0 5.94 0 9 0 C9 0.66 9 1.32 9 2 C6.04335481 3.4783226 3.25770263 3.06032783 0 3 C0 2.01 0 1.02 0 0 Z " fill="#647076" transform="translate(1008,461)"/>
<path d="M0 0 C6.75 -0.125 6.75 -0.125 9 1 C9 1.66 9 2.32 9 3 C6.03 3 3.06 3 0 3 C0 2.01 0 1.02 0 0 Z " fill="#5A656D" transform="translate(891,460)"/>
<path d="M0 0 C7.42857143 -0.14285714 7.42857143 -0.14285714 11 1 C11 1.66 11 2.32 11 3 C7.7 3 4.4 3 1 3 C0.67 2.01 0.34 1.02 0 0 Z " fill="#5E6970" transform="translate(704,448)"/>
<path d="M0 0 C4.2742558 1.5830577 6.26531794 4.50568404 9 8 C8.4225 7.690625 7.845 7.38125 7.25 7.0625 C5.15705816 6.07416636 3.25464725 5.4831387 1 5 C0.67 3.35 0.34 1.7 0 0 Z " fill="#44525A" transform="translate(1198,667)"/>
<path d="M0 0 C3.3 0 6.6 0 10 0 C10 0.99 10 1.98 10 3 C6.7 2.67 3.4 2.34 0 2 C0 1.34 0 0.68 0 0 Z " fill="#687279" transform="translate(928,557)"/>
<path d="M0 0 C1.8871875 0.0309375 1.8871875 0.0309375 3.8125 0.0625 C3.8125 0.7225 3.8125 1.3825 3.8125 2.0625 C0.1825 2.3925 -3.4475 2.7225 -7.1875 3.0625 C-7.1875 2.4025 -7.1875 1.7425 -7.1875 1.0625 C-4.43671116 0.14557039 -2.82801087 -0.04636083 0 0 Z " fill="#657076" transform="translate(1147.1875,452.9375)"/>
<path d="M0 0 C0.66 0 1.32 0 2 0 C2 1.32 2 2.64 2 4 C3.98 4 5.96 4 8 4 C8 4.66 8 5.32 8 6 C5.36 6 2.72 6 0 6 C0 4.02 0 2.04 0 0 Z " fill="#606B72" transform="translate(816,444)"/>
<path d="M0 0 C0 0.66 0 1.32 0 2 C-3.21451269 3.60725635 -6.43612536 3.05748185 -10 3 C-10 2.34 -10 1.68 -10 1 C-6.61981469 -0.04005702 -3.5219721 -0.08004482 0 0 Z " fill="#657177" transform="translate(1157,444)"/>
<path d="M0 0 C0.99 0 1.98 0 3 0 C2.67 2.97 2.34 5.94 2 9 C1.34 9 0.68 9 0 9 C0 6.03 0 3.06 0 0 Z " fill="#687279" transform="translate(1102,417)"/>
<path d="M0 0 C3.63 0 7.26 0 11 0 C11 0.99 11 1.98 11 3 C6.72213252 2.50639991 3.90432869 1.95216435 0 0 Z " fill="#647076" transform="translate(915,556)"/>
<path d="M0 0 C1.43836751 0.11458693 2.87570966 0.24209116 4.3125 0.375 C5.51326172 0.47941406 5.51326172 0.47941406 6.73828125 0.5859375 C9 1 9 1 12 3 C3.42857143 3.14285714 3.42857143 3.14285714 0 2 C0 1.34 0 0.68 0 0 Z " fill="#6C777D" transform="translate(865,549)"/>
<path d="M0 0 C2.64 0 5.28 0 8 0 C8 0.66 8 1.32 8 2 C5.29120665 3.35439668 2.99066732 3.06501451 0 3 C0 2.01 0 1.02 0 0 Z " fill="#59656C" transform="translate(1017,452)"/>
<path d="M0 0 C0 0.66 0 1.32 0 2 C-3.3 2.33 -6.6 2.66 -10 3 C-10 2.34 -10 1.68 -10 1 C-6.52674819 -0.1577506 -3.63932552 -0.06866652 0 0 Z " fill="#5A666D" transform="translate(1269,444)"/>
<path d="M0 0 C2.97 0 5.94 0 9 0 C9.33 0.99 9.66 1.98 10 3 C6.7 2.67 3.4 2.34 0 2 C0 1.34 0 0.68 0 0 Z " fill="#667177" transform="translate(681,438)"/>
<path d="M0 0 C3.3 0 6.6 0 10 0 C10 0.99 10 1.98 10 3 C6.7 2.67 3.4 2.34 0 2 C0 1.34 0 0.68 0 0 Z " fill="#626D74" transform="translate(652,436)"/>
<path d="M0 0 C3.96 0.33 7.92 0.66 12 1 C11.67 1.99 11.34 2.98 11 4 C7.37 3.34 3.74 2.68 0 2 C0 1.34 0 0.68 0 0 Z " fill="#778086" transform="translate(806,539)"/>
<path d="M0 0 C2.64 0 5.28 0 8 0 C8 0.99 8 1.98 8 3 C5.36 2.67 2.72 2.34 0 2 C0 1.34 0 0.68 0 0 Z " fill="#5A666D" transform="translate(894,452)"/>
<path d="M0 0 C0.66 0 1.32 0 2 0 C2.33 2.97 2.66 5.94 3 9 C2.01 9 1.02 9 0 9 C0 6.03 0 3.06 0 0 Z " fill="#6F797F" transform="translate(805,378)"/>
<path d="M0 0 C2.31 0.33 4.62 0.66 7 1 C7 1.66 7 2.32 7 3 C4.69 3 2.38 3 0 3 C0 2.01 0 1.02 0 0 Z " fill="#525E65" transform="translate(780,445)"/>
<path d="M0 0 C2.64 0.33 5.28 0.66 8 1 C8 1.66 8 2.32 8 3 C5.36 3 2.72 3 0 3 C0 2.01 0 1.02 0 0 Z " fill="#6A757B" transform="translate(1251,370)"/>
<path d="M0 0 C0 0.99 0 1.98 0 3 C-2.31 3 -4.62 3 -7 3 C-7 2.34 -7 1.68 -7 1 C-4 0 -4 0 0 0 Z " fill="#6A747B" transform="translate(1064,458)"/>
<path d="M0 0 C-0.33 0.99 -0.66 1.98 -1 3 C-2.98 3 -4.96 3 -7 3 C-7 2.34 -7 1.68 -7 1 C-4.53721199 -0.231394 -2.7204945 -0.07159196 0 0 Z " fill="#58646B" transform="translate(1186,450)"/>
<path d="M0 0 C2.31 0.33 4.62 0.66 7 1 C7 1.66 7 2.32 7 3 C4.69 3 2.38 3 0 3 C0 2.01 0 1.02 0 0 Z " fill="#5D6970" transform="translate(1235,369)"/>
<path d="M0 0 C2.1723491 3.25852365 4.07119658 6.59244728 6 10 C3.54896452 9.01958581 2.23241214 8.3486182 0.75 6.125 C0 4 0 4 0 0 Z " fill="#A5ABAF" transform="translate(634,702)"/>
<path d="M0 0 C2.31 0.33 4.62 0.66 7 1 C7 1.66 7 2.32 7 3 C4.69 3 2.38 3 0 3 C0 2.01 0 1.02 0 0 Z " fill="#6C767C" transform="translate(856,458)"/>
<path d="M0 0 C1.98 0 3.96 0 6 0 C5.67 0.99 5.34 1.98 5 3 C3.35 3 1.7 3 0 3 C0 2.01 0 1.02 0 0 Z " fill="#5F6B72" transform="translate(1082,457)"/>
<path d="M0 0 C-0.33 0.66 -0.66 1.32 -1 2 C-3.31 2 -5.62 2 -8 2 C-8 1.34 -8 0.68 -8 0 C-4.71303767 -0.79953138 -3.28976808 -1.09658936 0 0 Z " fill="#5A666D" transform="translate(1283,435)"/>
<path d="M0 0 C0 0.99 0 1.98 0 3 C-3.96 2.67 -7.92 2.34 -12 2 C-12 1.67 -12 1.34 -12 1 C-10.56274129 0.83126522 -9.12518162 0.66509263 -7.6875 0.5 C-6.88699219 0.4071875 -6.08648438 0.314375 -5.26171875 0.21875 C-3 0 -3 0 0 0 Z " fill="#6C777D" transform="translate(1107,366)"/>
<path d="" fill="#899296" transform="translate(0,0)"/>
</svg>
