<svg width="32" height="17" viewBox="0 0 32 17" fill="none" xmlns="http://www.w3.org/2000/svg">
<path fill-rule="evenodd" clip-rule="evenodd" d="M19.3499 10.0377C19.5935 11.2969 18.9336 12.3427 18.3853 13.3579C17.7762 14.3024 16.7709 15.1141 15.5627 14.9927C12.8513 14.9521 10.2013 14.5358 7.74383 13.7943C7.63225 13.7639 7.52067 13.6926 7.45959 13.5912C7.40875 13.449 7.48007 13.3169 7.58141 13.2258C9.82565 11.4081 12.4961 10.5656 15.1361 9.68184C16.1209 9.3976 17.1671 9.09288 18.2737 9.23517C18.7302 9.29625 19.1871 9.6112 19.3499 10.0377ZM28.6002 4.65628C29.8593 5.6919 30.9966 7.10354 30.6107 8.80932C29.9811 11.3276 27.2397 12.6679 25.0566 13.5206C23.8684 13.9168 22.6704 14.3232 21.3706 14.445C21.2894 14.4348 21.1574 14.4549 21.1369 14.3331L21.1673 14.1911C23.0153 12.1093 24.4164 9.77431 25.6455 7.40826C26.214 6.34193 26.7422 5.24557 27.2295 4.16901C27.3004 4.0878 27.3718 4.04719 27.453 4.01682C27.9095 4.05709 28.2347 4.41264 28.6002 4.65628ZM10.8811 1.97562L10.8404 2.1278C8.17002 5.16368 6.4134 8.68717 4.74822 12.1902C4.42338 12.4949 4.10843 12.0885 3.81395 11.9564C2.33133 10.9819 0.990996 9.40783 1.37692 7.53963C1.99624 5.10294 4.50425 3.80322 6.59629 2.92013C7.83494 2.45299 9.12477 2.0773 10.4852 1.86404C10.6275 1.86369 10.8101 1.84356 10.8811 1.97562ZM24.1325 2.46289C24.2847 2.5441 24.4676 2.57447 24.559 2.72665C24.6403 2.89931 24.4778 3.01089 24.3864 3.12281C22.2844 4.76752 19.8781 5.68166 17.4206 6.48388C16.1714 6.78859 14.9123 7.33694 13.5215 7.03223C13.1963 6.95101 12.9021 6.73775 12.7192 6.4228C12.3739 5.46839 12.841 4.47338 13.2471 3.64079C13.7852 2.59494 14.74 1.36619 16.0598 1.34606C18.9029 1.32558 21.5836 1.75211 24.1325 2.46289ZM27.6458 2.5441C29.7986 3.722 32.2356 5.79324 31.9817 8.55511C31.6872 11.114 29.301 12.901 27.1687 13.9775C20.9441 16.9527 12.2016 17.0438 5.77394 14.4447C3.60068 13.5411 1.16366 11.9875 0.249515 9.65181C-0.45102 7.73276 0.401701 5.7325 1.83382 4.40241C4.82909 1.68114 8.64706 0.747208 12.5769 0.208755C16.8419 -0.309224 21.3297 0.147676 25.1477 1.45764C26.0007 1.77259 26.8435 2.11791 27.6458 2.5441Z" fill="#003984"/>
</svg>
