<svg width="32" height="13" viewBox="0 0 32 13" fill="none" xmlns="http://www.w3.org/2000/svg">
<g clip-path="url(#clip0_601_24616)">
<path d="M26.6877 6.88802C26.6617 8.32352 26.9717 9.08387 28.1551 9.08387C29.3365 9.08387 29.506 7.78865 29.506 6.80303C29.506 5.81676 29.2819 4.85933 28.0406 4.85933C27.2792 4.85933 26.717 5.451 26.6877 6.88802ZM24.2937 12.8867V3.16972H26.717C26.717 3.16972 26.717 3.31043 26.717 3.56389C26.717 4.08965 26.929 3.87284 27.0999 3.66795C27.1285 3.6337 27.6686 2.97264 28.8849 2.97264C30.0975 2.97264 31.984 3.81734 31.984 6.80303C31.984 9.11249 30.8585 10.8021 28.9148 10.8021C27.8437 10.8021 27.2245 10.3804 27.083 10.2102C26.9412 10.0424 26.7443 10.0131 26.7443 10.2102C26.7443 10.4077 26.7443 12.8867 26.7443 12.8867H24.2937Z" fill="#231F20"/>
<path d="M5.56394 0.0160027H8.18344C8.18344 0.0160027 8.18344 5.70466 8.18344 6.88801C8.18344 8.07006 7.67589 10.5493 4.04324 10.5493C0.410152 10.5493 0.0159912 8.23852 0.0159912 6.94395V5.6767H2.55093C2.55093 5.6767 2.55093 6.15541 2.55093 6.91533C2.55093 7.67569 3.05805 8.37945 4.01505 8.37945C4.97249 8.37945 5.56394 7.84458 5.56394 6.94395C5.56394 6.04267 5.56394 0.0160027 5.56394 0.0160027Z" fill="#231F20"/>
<path d="M13.6615 5.84559C13.6615 5.14074 13.268 4.46494 12.3668 4.46494C11.4937 4.46494 11.1836 5.08394 11.1836 5.84559H13.6615ZM12.1142 2.88809C14.1713 2.88809 15.973 3.67641 15.973 7.30971H11.101C11.101 8.46444 11.5793 8.94337 12.4242 8.94337C13.2693 8.94337 13.5508 8.26693 13.5508 8.26693H15.9454C15.9454 9.30935 14.5088 10.7175 12.3397 10.6896C9.86195 10.6896 8.65063 8.85882 8.65063 6.9717C8.65063 5.08394 9.72016 2.88809 12.1142 2.88809Z" fill="#231F20"/>
<path d="M21.45 5.84559C21.45 5.14074 21.0561 4.46494 20.1548 4.46494C19.2822 4.46494 18.9715 5.08394 18.9715 5.84559H21.45ZM19.9027 2.88809C21.9595 2.88809 23.7608 3.67641 23.7608 7.30971H18.8891C18.8891 8.46444 19.3678 8.94337 20.2134 8.94337C21.0576 8.94337 21.3395 8.26693 21.3395 8.26693H23.7341C23.7341 9.30935 22.2973 10.7175 20.1288 10.6896C17.6498 10.6896 16.4385 8.85882 16.4385 6.9717C16.4385 5.08394 17.5093 2.88809 19.9027 2.88809Z" fill="#231F20"/>
<path d="M30.38 11.7218C30.38 11.337 30.6933 11.0243 31.0794 11.0243C31.4642 11.0243 31.7769 11.337 31.7769 11.7218C31.7769 12.106 31.4642 12.4206 31.0794 12.4206C30.6933 12.4206 30.38 12.106 30.38 11.7218ZM30.2993 11.7218C30.2993 12.1524 30.6479 12.5019 31.0794 12.5019C31.508 12.5019 31.8586 12.1524 31.8586 11.7218C31.8586 11.2912 31.508 10.9417 31.0794 10.9417C30.6479 10.9417 30.2993 11.2912 30.2993 11.7218Z" fill="#231F20"/>
<path d="M31.3919 12.1207L31.2299 11.7383C31.2813 11.7205 31.2985 11.7079 31.3258 11.6787C31.3613 11.6405 31.3837 11.5802 31.3837 11.5256C31.3837 11.3877 31.2776 11.2938 31.1239 11.2938H30.7987V12.1207H30.8952V11.7626H31.1302L31.2846 12.1207H31.3919ZM30.8926 11.6787V11.3838H31.122C31.2178 11.3838 31.2787 11.4384 31.2787 11.523C31.2787 11.619 31.2141 11.6787 31.1085 11.6787H30.8926Z" fill="#231F20"/>
</g>
<defs>
<clipPath id="clip0_601_24616">
<rect width="32" height="12.9027" fill="white"/>
</clipPath>
</defs>
</svg>
