<svg width="102" height="24" viewBox="0 0 102 24" fill="none" xmlns="http://www.w3.org/2000/svg">
<g clip-path="url(#clip0_601_24738)">
<path d="M59.1792 21.2462C59.1792 21.4399 59.2404 21.5522 59.3527 21.5522C59.4476 21.5522 59.5262 21.5013 59.5976 21.4501L91.3903 0.816079C91.9275 0.440598 92.571 0.24749 93.2262 0.265178H100.213C101.284 0.265178 102.008 0.979031 102.008 2.05011V15.3914C102.008 17.0028 101.651 17.9414 100.223 18.798L91.7473 23.898C91.6626 23.9567 91.5626 24.0001 91.4617 24.0001C91.3608 24.0001 91.2578 23.9185 91.2578 23.6227V8.05794C91.2578 7.87421 91.2069 7.75192 91.0843 7.75192C90.9948 7.75192 90.9099 7.7977 90.8394 7.85403L67.6042 22.9498C67.0738 23.3067 66.4515 23.5007 65.8193 23.4905H50.4175C49.3362 23.4905 48.6223 22.7766 48.6223 21.6953V2.46879C48.6223 2.32602 48.5612 2.19349 48.4386 2.19349C48.3494 2.19349 48.2648 2.24017 48.1937 2.2956L32.8639 11.4953C32.7109 11.5974 32.6702 11.6688 32.6702 11.7402C32.6702 11.8013 32.7009 11.8625 32.8027 11.9748L43.7573 22.9191C43.9 23.0618 44.0021 23.1742 44.0021 23.2965C44.0021 23.3986 43.8389 23.4802 43.6452 23.4802H33.7512C32.9759 23.4802 32.3741 23.3679 31.9561 22.9498L25.316 16.32C25.2651 16.2591 25.1919 16.2179 25.1121 16.2179C25.0401 16.2179 24.9699 16.2423 24.9082 16.279L13.8109 22.9498C13.1377 23.3579 12.6787 23.47 12.0157 23.47H1.80579C0.714523 23.4802 0.000366211 22.7561 0.000366211 21.685V8.59861C0.000366211 6.97692 0.357293 6.04861 1.79554 5.19198L10.3226 0.0718049C10.3889 0.0267198 10.4669 0.00191469 10.547 0.000419617C10.6796 0.000419617 10.751 0.132949 10.751 0.428732V17.9519C10.751 18.1356 10.7916 18.217 10.9245 18.217C11.0148 18.217 11.0979 18.1661 11.1796 18.1149L39.9838 0.785359C40.5347 0.40795 41.2079 0.224516 41.881 0.254938H57.3846C58.4557 0.254938 59.1798 0.968791 59.1798 2.03987L59.1696 21.2462H59.1792Z" fill="black"/>
</g>
<defs>
<clipPath id="clip0_601_24738">
<rect width="102.008" height="24" fill="white"/>
</clipPath>
</defs>
</svg>
