<svg width="32" height="17" viewBox="0 0 32 17" fill="none" xmlns="http://www.w3.org/2000/svg">
<g clip-path="url(#clip0_601_1147)">
<path d="M18.5084 8.57276L17.1135 11.3121H17.0845L17.0139 8.57276H15.8471L15.8016 8.67132L15.9017 8.73236C15.9983 8.80041 16.0253 8.86946 16.0378 9.05958L16.1959 12.3838H17.4958L19.5937 8.57276H18.5084ZM14.3561 10.5456C14.2256 10.9203 14.123 11.1615 13.9714 11.3206C13.8523 11.4457 13.6952 11.5352 13.3335 11.5352C13.0498 11.5352 12.8917 11.4192 12.8917 11.1995C12.8897 11.0579 12.9282 10.8428 13.0798 10.424C13.2109 10.0497 13.3134 9.80859 13.4655 9.64948C13.5831 9.5244 13.7407 9.43434 14.103 9.43434C14.3867 9.43434 14.5443 9.55041 14.5438 9.76906C14.5468 9.91266 14.5082 10.1278 14.3561 10.5456ZM14.2956 8.52572H14.1745C13.4565 8.52572 13.0463 8.71935 12.7095 9.0771C12.2908 9.51989 11.8975 10.7172 11.905 11.3506C11.913 11.9966 12.3308 12.4444 13.2089 12.4444H13.3375C14.0574 12.4444 14.4677 12.2507 14.8044 11.893C15.2227 11.4492 15.608 10.2524 15.6005 9.61946C15.592 8.97403 15.1742 8.52572 14.2956 8.52572ZM10.7702 9.95619C10.7047 10.1188 10.6326 10.1578 10.5381 10.1963C10.4745 10.2214 10.3399 10.2304 10.2104 10.2304H9.70852L9.98171 9.44284H10.5881C10.7697 9.44284 10.8438 9.5374 10.8463 9.64498C10.8473 9.71352 10.8158 9.83911 10.7702 9.95619ZM10.6802 8.57276H9.03457L9.00155 8.67132L9.06809 8.73687C9.13814 8.80591 9.13564 8.88797 9.0741 9.06409L7.92432 12.3838H8.97503L9.42433 11.0659L9.78007 11.0664L10.1753 12.3838H11.231L10.7347 11.0354C11.0229 10.9889 11.1675 10.9063 11.3121 10.7777C11.5102 10.5966 11.6473 10.3424 11.7609 9.96819C11.927 9.42533 11.8264 9.11512 11.7199 8.95601C11.5733 8.73687 11.2646 8.57276 10.6802 8.57276ZM21.7036 10.8553L21.9948 10.0583H20.6554L20.863 9.44985H22.314L22.6327 8.57026H19.8934L19.8553 8.68233L19.9209 8.74687C19.9914 8.81542 19.9884 8.89697 19.9274 9.07409L18.7866 12.3823H21.3463L21.6556 11.4967H20.1615L20.3817 10.8553H21.7036ZM24.7771 9.95619C24.7116 10.1188 24.6386 10.1578 24.5455 10.1963C24.4804 10.2214 24.3479 10.2304 24.2183 10.2304H23.7169L23.9876 9.44284H24.595C24.7756 9.44284 24.8507 9.5374 24.8522 9.64498C24.8542 9.71352 24.8217 9.83911 24.7771 9.95619ZM24.6856 8.57276H23.0405L23.0085 8.67132L23.0745 8.73687C23.1451 8.80591 23.1415 8.88797 23.081 9.06409L21.9302 12.3838H22.9824L23.4312 11.0664H23.7865L24.1822 12.3838H25.237L24.7416 11.0354C25.0293 10.9889 25.1739 10.9063 25.318 10.7777C25.5166 10.5966 25.6542 10.3424 25.7678 9.96819C25.9339 9.42533 25.8334 9.11512 25.7273 8.95601C25.5807 8.73687 25.2715 8.57276 24.6856 8.57276ZM26.843 13.6872C23.9566 15.1787 20.1065 16.0002 16.0002 16.0002C11.8945 16.0002 8.04491 15.1787 5.15797 13.6872C2.3816 12.2522 0.851572 10.3835 0.851572 8.42616C0.851572 6.46734 2.3816 4.59859 5.15797 3.16462C8.04491 1.67362 11.8945 0.851068 16.0002 0.851068C20.1065 0.851068 23.9566 1.67362 26.843 3.16462C29.6199 4.59859 31.1484 6.46734 31.1484 8.42616C31.1484 10.3835 29.6199 12.2522 26.843 13.6872ZM27.2338 2.40811C24.2278 0.85507 20.2386 -3.8147e-06 16.0002 -3.8147e-06C11.7619 -3.8147e-06 7.77222 0.85507 4.7672 2.40811C2.98701 3.32823 0 5.33358 0 8.42616C0 11.5172 2.98701 13.5231 4.7672 14.4432C7.77172 15.9962 11.7609 16.8513 16.0002 16.8513C20.2391 16.8513 24.2283 15.9962 27.2338 14.4432C29.014 13.5231 32 11.5177 32 8.42616C32 5.33308 29.014 3.32823 27.2338 2.40811ZM26.4388 12.9052C23.3332 14.5092 19.4701 15.1192 16.0002 15.1192C12.5299 15.1192 8.66782 14.5092 5.56124 12.9052C3.91763 12.0551 1.73266 10.489 1.73266 8.42616C1.73266 6.36127 3.91713 4.79672 5.56124 3.94715C8.66782 2.34307 12.5299 1.73316 16.0002 1.73316C19.4701 1.73316 23.3332 2.34207 26.4388 3.94715C28.0839 4.79672 30.2678 6.36127 30.2678 8.42616C30.2678 10.49 28.0834 12.0551 26.4388 12.9052ZM26.5999 3.63444C23.4468 2.00384 19.5206 1.37992 16.0002 1.37992C12.4794 1.37992 8.55425 2.00434 5.39963 3.63444C3.62844 4.54905 1.38043 6.20016 1.38043 8.42616C1.38043 10.6502 3.62844 12.3023 5.39963 13.2179C8.55425 14.847 12.4804 15.4714 16.0002 15.4714C19.5206 15.4714 23.4468 14.848 26.5999 13.2179C28.3721 12.3023 30.6201 10.6502 30.6201 8.42616C30.6201 6.20016 28.3726 4.54905 26.5999 3.63444ZM8.04691 9.06409L5.17147 10.0097L4.82024 10.9734H7.35594L7.68616 10.0653H5.92848L7.92382 9.38981L8.04691 9.06409ZM19.4886 4.84175H19.9054C20.1891 4.84175 20.3457 4.93681 20.3492 5.15646C20.3517 5.29806 20.3136 5.49219 20.1665 5.90997C20.0365 6.28372 19.9324 6.50036 19.7848 6.65897C19.6662 6.78405 19.5086 6.83959 19.1469 6.83959H18.7986L19.4886 4.84175ZM18.575 4.42897L17.4372 7.7487H19.1158C19.8353 7.7487 20.2461 7.5891 20.5793 7.23186C20.9976 6.78956 21.3799 5.63879 21.3674 5.00536C21.3548 4.35893 20.9376 3.93814 20.0595 3.93814H18.5345L18.5024 4.03621L18.5685 4.10075C18.6385 4.1703 18.636 4.25235 18.575 4.42897ZM24.9092 5.30456H22.3735L22.0433 6.21167H23.8005L21.8047 6.88912L21.6816 7.21384L24.557 6.26821L24.9092 5.30456ZM13.5761 7.7467H14.5318L15.3653 5.28154L15.8527 7.7467H16.8093L18.1132 3.93664L17.1135 3.93814L16.417 6.00903L16.0193 3.93814H14.6719L14.6388 4.03621L14.7049 4.10075C14.7759 4.1703 14.7724 4.25235 14.7119 4.42897L13.5761 7.7467ZM6.72452 7.7487L9.32477 7.7477L9.63898 6.83959H8.12746L9.12613 3.93814H7.82226L7.78973 4.03621L7.85478 4.10075C7.92583 4.1703 7.92282 4.25235 7.86178 4.42897L6.72452 7.7487ZM12.2567 4.99135H12.2908L12.3088 6.14212H11.6073L12.2567 4.99135ZM9.59445 7.7467H10.7007L11.18 6.90464H12.3253L12.3368 7.7467H13.3405L13.1238 3.93814H11.6213L11.5878 4.03621L11.6363 4.08474C11.7154 4.16229 11.6828 4.27387 11.3902 4.73818L9.59445 7.7467Z" fill="black"/>
</g>
<defs>
<clipPath id="clip0_601_1147">
<rect width="32" height="16.8513" fill="white"/>
</clipPath>
</defs>
</svg>
