<svg width="33" height="21" viewBox="0 0 33 21" fill="none" xmlns="http://www.w3.org/2000/svg">
<path d="M1.68759 20.1385C0.92108 20.0202 0.456238 19.738 0.2684 19.2153L0.168462 18.9372L0.0168457 17.5313V16.0841L0.696874 16.0735C1.3021 16.064 1.38227 16.0702 1.42567 16.1291C1.46241 16.179 1.47443 16.5046 1.47443 17.4493C1.47443 18.6347 1.47879 18.7123 1.55413 18.8668C1.59796 18.9567 1.69417 19.076 1.76792 19.1318C2.05307 19.3478 2.027 19.3452 3.95109 19.345H5.7306L5.87945 19.0571C5.96332 18.8949 6.13727 18.6524 6.27786 18.5016C6.41511 18.3544 6.52741 18.2241 6.52741 18.212C6.52741 18.2 6.33063 18.1852 6.09014 18.1792L5.65286 18.1683L5.6618 18.0202C5.68262 17.6757 6.13917 17.0192 6.6059 16.6626C6.73467 16.5642 6.96647 16.4257 7.121 16.3548C7.66223 16.1065 7.71204 16.1034 11.1085 16.1046L14.1652 16.1057L15.0891 16.78C15.5972 17.1509 16.0317 17.4543 16.0545 17.4543C16.1064 17.4543 17.5152 16.5884 17.9349 16.2986L18.2453 16.0842L19.431 16.0876C20.6421 16.091 20.6133 16.0901 20.6656 16.1179C20.7417 16.1583 20.7146 16.1815 20.7146 17.4762C20.7146 18.587 20.7245 18.8311 20.7744 18.9496C20.8519 19.1338 20.9319 19.219 21.1227 19.3206C21.2723 19.4001 21.3328 19.4037 22.713 19.4155C23.5022 19.4223 24.1885 19.4176 24.2382 19.4052L24.3286 19.3827L24.3387 17.7721L24.3489 16.1614H25.0679H25.787L25.8065 17.7631L25.8259 19.3647L28.4342 19.3746L31.0426 19.3845L31.1501 19.3006C31.2092 19.2544 31.2819 19.1588 31.3117 19.0881C31.3579 18.9782 31.3579 18.9407 31.3117 18.8309C31.2819 18.7601 31.2093 18.6646 31.1504 18.6186L31.0433 18.5349H28.6628C26.5949 18.5349 26.276 18.5273 26.234 18.4771C26.1718 18.4027 26.2361 17.9407 26.3511 17.6355C26.44 17.3995 26.6603 17.0447 26.8532 16.8265C27.0424 16.6125 27.5044 16.3224 27.8102 16.2257C28.0779 16.1409 28.1003 16.1402 30.3153 16.1508L32.5502 16.1614L32.5616 16.5055C32.5698 16.7548 32.5591 16.8583 32.5227 16.8812C32.4951 16.8986 31.6016 16.9131 30.5372 16.9134C28.6989 16.9141 28.5945 16.9177 28.454 16.9889C28.2019 17.1167 27.9052 17.5292 27.9612 17.6742C27.9768 17.7145 28.3526 17.7245 29.8651 17.7245C31.1124 17.7245 31.8192 17.7391 31.9556 17.7679C32.2602 17.832 32.4978 17.9662 32.6974 18.1866C32.9279 18.4411 33.0102 18.6834 32.9905 19.0492C32.9586 19.6418 32.5685 20.0532 31.9427 20.154C31.5887 20.211 20.8842 20.2093 20.5132 20.1521C19.8686 20.0528 19.5401 19.8611 19.3468 19.4715L19.2182 19.2122L19.1987 17.883C19.1861 17.0167 19.1652 16.5491 19.139 16.5404C19.0459 16.5097 16.8277 17.9225 16.8277 18.0124L19.5924 20.2429C19.5924 20.2656 19.1078 20.1559 18.4735 20.1559H17.4373L16.5145 19.4998C16.007 19.1389 15.5673 18.8437 15.5375 18.8437C15.4842 18.8437 13.9366 19.7756 13.5296 20.0528L13.3217 20.1944L7.66043 20.1906C3.34916 20.1877 1.92487 20.1753 1.68759 20.1387V20.1385ZM12.7546 19.5356C12.8891 19.4493 13.3839 19.1402 13.8542 18.8487C14.3245 18.5571 14.7093 18.2986 14.7093 18.2742C14.7093 18.2338 12.738 16.7097 12.4112 16.4211C12.2928 16.3166 12.1482 16.611 12.2167 16.725L12.0538 16.9083L10.2588 16.9139C8.30075 16.9199 8.25368 16.935 8.1016 17.0165C7.87251 17.1392 7.35386 17.6016 7.35386 17.7439C7.35386 17.8088 7.77122 17.785 9.76574 17.7856C10.9255 17.7862 11.9107 17.7833 11.9107 17.7833C11.9038 17.8177 11.9082 18.2044 11.9082 18.2044L11.9107 18.4769L10.1228 18.4962C8.19482 18.517 8.29068 18.5062 7.99674 18.735C7.83705 18.8592 7.49693 19.3191 7.5557 19.3774L12.3772 19.3646L12.3891 19.7491C12.3978 20.0298 12.4421 19.7362 12.7546 19.5357L12.7546 19.5356Z" fill="url(#paint0_linear_601_1152)"/>
<path d="M0.0306396 16.0573V16.4227H1.55628V16.0573H0.0306396ZM24.131 16.079V16.4456H25.8025V16.079H24.131ZM18.2527 16.0802L18.1164 16.1755H18.6616C18.8414 16.1711 18.9649 16.181 19.0559 16.1972L19.0547 16.4517H20.6576V16.0814L19.9532 16.0911C19.3006 16.0863 18.8388 16.0831 18.2527 16.0802H18.2527ZM11.7666 16.1019C11.4421 16.1026 11.0663 16.104 10.633 16.1056C7.95086 16.1152 7.73409 16.1201 7.64559 16.1827C7.64559 16.2102 7.52276 16.2609 7.8289 16.2394C7.87426 16.2363 7.89471 16.2444 7.96036 16.237C8.38621 16.2438 9.06949 16.2298 10.5485 16.2298C12.2089 16.2298 13.5881 16.2372 13.5878 16.2213C13.5867 16.17 13.6779 16.1399 13.4744 16.1224C13.2524 16.1033 12.7402 16.0999 11.7666 16.1019V16.1019ZM31.1176 16.1333C30.8641 16.1339 30.5707 16.1354 30.2323 16.1369C28.1378 16.1465 27.9678 16.1527 27.8986 16.2153C27.8986 16.2427 27.8031 16.2923 28.0422 16.2708C28.0776 16.2676 28.0934 16.2769 28.1447 16.2696C28.4772 16.2764 29.011 16.2623 30.166 16.2623C31.4626 16.2623 32.5397 16.2698 32.5395 16.2539C32.5387 16.2026 32.6092 16.1725 32.4502 16.155C32.2769 16.1359 31.8778 16.1313 31.1176 16.1333V16.1333Z" fill="url(#paint1_linear_601_1152)"/>
<path d="M27.5321 17.7541C27.4347 17.5961 27.7661 17.1519 28.135 16.9471C28.5525 16.7153 28.7165 16.6995 30.7086 16.6989L32.5702 16.721L32.599 17.0236C32.5019 17.0283 32.1333 17.0296 30.6708 17.0311C28.5226 17.0333 28.4987 17.0357 28.2031 17.279C28.1082 17.3571 28.0106 17.4777 27.9816 17.5527C27.9616 17.6042 27.9625 17.6478 27.9288 17.6797C27.8429 17.7236 27.742 17.7643 27.6626 17.7851C27.6268 17.7945 27.5903 17.8196 27.5686 17.8085C27.5535 17.8007 27.5626 17.8007 27.549 17.7822L27.5321 17.7541Z" fill="url(#paint2_linear_601_1152)"/>
<path d="M6.81423 18.0333C6.81356 17.9922 6.84254 17.8738 6.88182 17.7567C6.98306 17.4548 7.23722 17.1645 7.57131 16.9692C7.97299 16.7344 8.0826 16.7245 10.2819 16.7223C11.5003 16.7211 12.2115 16.7223 12.2115 16.7223C12.2115 16.7223 12.2115 16.8211 12.2115 16.8965C12.2115 16.9645 12.2115 17.0795 12.2115 17.0795C12.1169 17.0681 11.452 17.0821 10.2984 17.0821C8.28369 17.0821 8.18778 17.0758 7.9014 17.2515C7.83082 17.2948 7.70294 17.4063 7.6247 17.4957C7.52059 17.6146 7.41787 17.7213 7.36628 17.8412C7.27313 17.9239 7.15373 17.9262 7.06489 17.9671C6.88446 18.0502 6.80847 18.0663 6.80847 18.0663L6.81423 18.0333Z" fill="url(#paint3_linear_601_1152)"/>
<path d="M31.2573 19.1328C31.3118 18.9158 31.0381 18.6281 30.7308 18.5588C30.655 18.5417 29.6566 18.5367 28.5121 18.5478C27.3676 18.5589 26.3696 18.5428 26.2913 18.5418C26.209 18.5406 26.1768 18.5476 26.1612 18.5294C26.1307 18.4938 26.2029 18.4072 26.3456 18.298L26.5096 18.1726L28.5231 18.1747C30.7476 18.177 31.0644 18.1943 31.2466 18.3241C31.5571 18.5452 31.6829 18.9042 31.5215 19.1087C31.4156 19.2429 31.1201 19.428 31.0541 19.3872C31.2183 19.2529 31.2087 19.2588 31.2573 19.1328V19.1328Z" fill="url(#paint4_linear_601_1152)"/>
<path d="M24.3001 19.4682C24.2367 19.4322 24.1428 19.435 24.129 19.399C24.1152 19.3631 24.1108 18.5743 24.1108 17.7051C24.1108 16.5952 24.1081 16.248 24.0983 16.0687C24.1527 16.066 24.2814 16.1252 24.3909 16.2347L24.5675 16.4503L24.5559 19.3951C24.5555 19.4559 24.5624 19.5179 24.5544 19.5787C24.4435 19.5308 24.3763 19.5014 24.3001 19.4682H24.3001Z" fill="url(#paint5_linear_601_1152)"/>
<path d="M6.98466 19.5498C6.98466 19.5498 6.96381 19.3356 7.04294 19.1245C7.12742 18.8991 7.44238 18.5765 7.68867 18.4631C8.06824 18.2883 8.15077 18.2819 10.0312 18.2814C11.3354 18.2808 11.9041 18.2912 11.9041 18.2912L11.9169 18.6357C11.9169 18.6357 11.2177 18.6369 10.1227 18.637C9.07065 18.637 8.36786 18.6512 8.2789 18.674C7.99837 18.7458 7.69935 19.0362 7.58759 19.3454C7.56921 19.3962 7.05148 19.5448 7.00903 19.5633L6.98466 19.5498Z" fill="url(#paint6_linear_601_1152)"/>
<path d="M20.6953 20.2122C20.3742 20.1711 19.825 19.9835 19.6294 19.848C19.4855 19.7484 19.2977 19.5351 19.2116 19.3734C19.1024 19.1682 19.0578 18.6937 19.0564 17.7213C19.0557 17.1866 19.0598 16.7302 19.0416 16.719C19.0235 16.7078 18.5895 16.9576 18.1009 17.2622C17.1868 17.8322 16.9245 18.0078 16.7469 18.0896L16.0325 18.0931C16.1249 18.0067 18.8311 16.286 18.9737 16.2264C19.0717 16.1854 19.0078 16.1749 19.0545 16.2017C19.1236 16.2412 19.3516 16.3262 19.3791 16.3906C19.428 16.5046 19.39 16.739 19.4044 17.5439C19.4297 18.9578 19.4453 19.0351 19.7684 19.3506C19.904 19.483 20.0622 19.588 20.2376 19.6622C20.2376 19.6622 20.4259 19.7189 20.5218 19.74C20.5895 19.7549 20.7267 19.7745 20.7267 19.7745L26.0565 19.7844L31.5211 19.7878C31.5211 19.7878 31.65 19.7674 31.7113 19.7463C31.7583 19.7301 31.8008 19.7032 31.8455 19.6817C32.5499 19.3429 32.7945 18.8837 32.5413 18.3755C32.487 18.2666 32.373 18.1146 32.2879 18.0377C32.2028 17.9609 32.0767 17.8406 32.0834 17.821C32.1017 17.7671 32.528 17.9916 32.6553 18.1187C32.9737 18.4365 33.1085 19.0751 32.9001 19.5009C32.6861 19.9384 32.2527 20.1659 31.6441 20.2203C31.151 20.2644 21.0444 20.2569 20.6953 20.2122V20.2122Z" fill="url(#paint7_linear_601_1152)"/>
<path d="M1.66879 20.1989C1.25723 20.1403 1.06891 20.0757 0.790527 19.8976C0.521548 19.7256 0.317723 19.4871 0.173653 19.176C0.148126 19.1208 0.118626 19.0673 0.098443 19.01C0.0812435 18.9611 0.0687089 18.9105 0.059725 18.8595C0.0419082 18.7584 0.0355784 18.6555 0.0299302 18.553C0.0123281 18.2335 0.017264 17.5931 0.017264 17.5931L0.00353553 16.1555C0.0031266 16.1127 0 16.0522 0 16.0522C0 16.0522 0.15667 16.1321 0.269013 16.2289L0.4767 16.4078L0.477997 17.4069C0.479439 18.5186 0.500079 18.6473 0.672564 19.0133C0.776322 19.2334 1.00291 19.429 1.36874 19.6144C1.79894 19.8324 1.78909 19.8321 7.20671 19.8321H12.1749L12.4243 19.6487C12.5615 19.5479 13.0935 19.2049 13.6065 18.8865C14.1195 18.5681 14.5393 18.2892 14.5394 18.2666C14.5399 18.1845 14.3055 18.0067 12.5616 16.7665C12.2255 16.5275 11.9668 16.355 11.8362 16.2358C11.961 16.2388 12.2466 16.2429 12.4255 16.2431L12.7065 16.2433L13.5555 16.8479C14.0225 17.1804 14.5782 17.5766 14.7905 17.7282C15.0027 17.8799 15.2935 18.1036 15.2657 18.1214L14.1923 18.8102C13.8657 19.0198 13.5073 19.2405 13.4012 19.309C13.295 19.3776 13.0823 19.5148 12.9284 19.6139C12.7745 19.713 12.6383 19.8354 12.6383 19.8565C12.6693 19.8753 12.7819 19.8705 12.967 19.8703L13.2854 19.8696L14.3751 19.1588C14.9745 18.7678 15.4992 18.437 15.5411 18.4237C15.6472 18.3901 15.6816 18.4113 16.7009 19.1367C17.1997 19.4918 17.6621 19.8437 17.7045 19.8653C17.747 19.8868 17.9706 19.8704 18.2253 19.8825C18.41 19.8912 18.5099 19.8796 18.6339 19.9006C19.2942 20.1416 18.7124 19.9316 19.5774 20.2489L17.3358 20.2511C17.217 20.1889 16.1175 19.3964 15.8148 19.1506C15.676 19.0379 15.5379 18.9453 15.508 18.9449C15.4781 18.9442 15.2957 19.0523 15.1028 19.1845C14.9098 19.3168 14.4752 19.612 14.137 19.8406L13.5221 20.2563L7.76909 20.2522C3.31502 20.249 1.9377 20.2369 1.66879 20.1986V20.1989Z" fill="url(#paint8_linear_601_1152)"/>
<path d="M20.8277 19.329C20.5791 19.2619 20.4068 19.1353 20.3363 19.0396C20.2906 18.9776 20.2883 18.9901 20.2768 18.9553C20.266 18.9227 20.2403 18.8665 20.2352 18.8326C20.1834 18.4878 20.1873 17.6707 20.1873 17.6707V16.4821L20.4028 16.2902C20.5213 16.1847 20.6251 16.0915 20.6334 16.0832C20.6418 16.0749 20.6556 16.0803 20.6879 16.1071C20.7386 16.1492 20.7175 16.3755 20.7177 17.5602C20.7177 19.125 20.8423 19.1654 21.1746 19.3601C21.3187 19.3981 21.0283 19.3866 20.8277 19.329V19.329ZM1.53807 19.2481C1.32563 19.1966 1.14292 19.0143 1.10527 18.9092L1.0565 18.7732C1.02447 17.9883 1.00232 17.2161 1.00232 16.4083L1.15517 16.2556C1.32629 16.0847 1.54218 16.053 1.54218 16.053C1.55646 16.0827 1.5521 16.7246 1.55772 17.4764C1.56996 19.1133 1.54611 18.993 1.89716 19.1875C1.9968 19.2427 2.1912 19.2958 2.18015 19.314C2.15657 19.3528 1.70719 19.2891 1.53807 19.2481V19.2481ZM25.2817 17.9934V16.4344L25.4173 16.3153C25.5652 16.1854 25.7799 16.0627 25.8087 16.0915C25.8328 16.1156 25.8389 19.3064 25.8145 19.3698C25.8041 19.3969 25.6973 19.4491 25.5941 19.4858C25.4566 19.5346 25.2975 19.5782 25.3004 19.5626C25.2796 19.5791 25.2816 19.0434 25.2816 17.9934H25.2817Z" fill="url(#paint9_linear_601_1152)"/>
<path d="M26.1484 18.533C26.1496 18.3352 26.2698 17.736 26.4354 17.3969C26.645 16.968 27.0186 16.556 27.3613 16.3761C27.4926 16.3071 27.6206 16.2505 27.6457 16.2504C27.7851 16.2086 28 16.1703 28.1838 16.1551C28.0476 16.2161 27.9335 16.2515 27.7767 16.3431C27.5636 16.4596 27.3739 16.5621 27.0798 16.9218C26.9749 17.05 26.8962 17.1601 26.8175 17.3808C26.7124 17.6755 26.6836 17.9776 26.6541 18.1677C26.552 18.2234 26.5592 18.2492 26.1484 18.533V18.533ZM5.53735 18.1528C5.53735 18.0143 5.72189 17.5865 5.94035 17.219C6.19263 16.7945 6.42367 16.5893 6.85146 16.4098C7.16684 16.2774 7.739 16.1433 7.88626 16.1473C7.97507 16.1498 7.64155 16.2622 7.45431 16.3318C7.12531 16.454 6.92999 16.6008 6.64385 16.889C6.46666 17.0675 6.28944 17.2968 6.03569 17.9307L5.95643 18.1803L5.72966 18.1769C5.56775 18.1744 5.56492 18.1695 5.53735 18.1528V18.1528ZM13.3495 16.1049L14.1628 16.1039C15.2466 16.904 15.858 17.3186 16.0518 17.4581L15.5877 17.7452C14.5493 16.9998 14.2517 16.7541 13.3495 16.1049V16.1049Z" fill="url(#paint10_linear_601_1152)"/>
<path d="M16.7812 18.6318L16.049 18.088H16.4243C16.6307 18.088 16.8199 18.0053 16.8503 18.0319C16.8503 18.0319 17.4565 18.5249 19.589 20.2325C18.2139 19.8797 17.818 19.4019 16.7812 18.6318V18.6318Z" fill="url(#paint11_linear_601_1152)"/>
<path d="M5.78876 19.3824C5.72442 19.3372 5.72729 19.319 5.83738 19.0736C5.97025 18.7775 6.4473 18.2473 6.64068 18.1176C6.71534 18.0675 6.8316 17.9919 6.93773 17.9527C7.04386 17.9135 7.14428 17.8655 7.23439 17.8306C7.28854 17.8097 7.39628 17.7808 7.59276 17.7826L7.90256 17.7854L7.7096 17.8542C7.3444 17.9844 7.09214 18.1385 6.82757 18.393C6.52473 18.6843 6.34187 18.9503 6.19898 19.3072C6.14426 19.4439 6.09804 19.5529 6.08434 19.5614C5.97119 19.5588 5.88524 19.4488 5.78876 19.3824V19.3824Z" fill="url(#paint12_linear_601_1152)"/>
<path d="M15.031 13.9926C13.6347 13.8461 12.3281 13.4728 11.0443 12.8536C9.97433 12.3375 9.2945 11.8614 8.56905 11.12C7.75549 10.2886 7.35869 9.68063 6.98675 8.69547C6.5422 7.51797 6.69663 5.94276 7.39119 4.57037C7.97608 3.41466 8.70992 2.60481 9.86145 1.84424C10.2897 1.56139 11.3513 1.01683 11.6303 0.936876C11.8271 0.880478 11.5328 0.990907 11.1964 1.18546C10.9889 1.30044 10.8607 1.37137 10.6693 1.48496C10.2245 1.75605 10.1091 1.85206 9.64783 2.22397C8.38726 3.24023 7.60447 4.44566 7.3236 5.80308C7.2318 6.24673 7.2318 7.24081 7.3236 7.68446C7.65661 9.29386 8.62427 10.6125 10.2746 11.7059C11.2239 12.3348 12.3244 12.798 13.6072 13.1084C14.6915 13.3709 15.1004 13.413 16.5644 13.413C17.6314 13.413 17.9776 13.3978 18.4044 13.3323C19.7676 13.123 21.2206 12.6515 22.194 12.1025C22.9903 11.6533 23.2551 11.4968 23.3269 11.4328C23.3679 11.3962 23.5517 11.2988 23.7353 11.2164C23.9553 11.1176 24.1117 11.0139 24.194 10.9124C24.3164 10.7611 24.3247 10.7582 24.6364 10.7582C24.823 10.7582 25.1092 10.4882 25.1092 10.5141C24.7451 11.0336 24.1431 11.6113 23.8013 11.8743C23.2937 12.2658 22.895 12.5336 22.1721 12.8775C20.9559 13.456 19.9601 13.7939 18.4263 13.9783C17.3021 14.1134 16.1058 14.1055 15.031 13.9926V13.9926Z" fill="url(#paint13_linear_601_1152)"/>
<path d="M14.9338 13.3029C14.1272 13.217 12.9442 12.9602 12.3194 12.7354C11.8772 12.5763 10.9409 12.167 10.6983 12.0268C10.4292 11.8713 9.77403 11.3841 9.39218 11.0554C8.89698 10.6292 8.10315 9.62868 8.17191 9.51741C8.19158 9.48559 8.54705 9.35324 8.61223 9.35324C8.62402 9.35324 8.68965 9.45113 8.76765 9.58994C9.12216 10.2209 9.64984 10.7872 10.2374 11.2662C11.0238 11.9073 11.5906 12.1907 12.7392 12.5169C15.1082 13.1898 17.8645 13.1586 20.069 12.4339C20.93 12.151 21.8012 11.6782 22.1288 11.3161C22.2177 11.2179 22.9225 10.9694 22.9719 11.0188C23.0342 11.0811 22.8686 11.292 22.5269 11.5855C21.9181 12.1085 20.4038 12.761 19.1912 13.0226C18.1003 13.2581 17.7156 13.2974 16.3822 13.3098C15.6821 13.3163 15.0303 13.3132 14.9338 13.3029V13.3029Z" fill="url(#paint14_linear_601_1152)"/>
<path d="M10.6447 11.8094C10.2896 11.6966 10.0939 11.5849 9.65709 11.2458C8.69708 10.5005 8.00312 9.5569 7.69676 8.58028C7.51581 8.0034 7.47464 7.62553 7.50171 6.78994C7.52248 6.14874 7.54364 5.97528 7.64173 5.64203C7.88616 4.81162 8.22515 4.18015 8.79185 3.49956C10.0761 1.95727 12.4749 0.793739 14.9168 0.528709C15.5929 0.455329 16.8563 0.448974 17.0507 0.517976C17.2505 0.588893 17.4595 0.820188 17.5267 1.04476C17.5711 1.19317 17.5653 1.23693 17.4787 1.40684C17.4246 1.51315 17.3239 1.66958 17.255 1.75448C17.1861 1.83938 17.0064 2.07178 16.8558 2.27093C16.7051 2.47009 16.3533 2.91448 16.074 3.25848C15.7947 3.60248 15.3398 4.19995 15.0632 4.58619C14.5512 5.30115 13.4301 6.99718 13.2064 7.39522C13.1386 7.51592 13.0179 7.70576 12.9381 7.81709C12.8584 7.92841 12.7217 8.17029 12.6343 8.35461C12.488 8.66314 12.4767 8.71529 12.4916 9.01204C12.512 9.41586 12.6379 9.62587 12.9994 9.85901C13.5435 10.2099 13.0489 10.1823 18.7902 10.1823H23.9115L24.3554 9.70386C24.6983 9.33426 24.8336 9.15103 24.9501 8.89848C25.1203 8.52933 25.2964 7.9529 25.3724 7.51539C25.437 7.14414 25.3967 6.14961 25.3069 5.89561C25.1378 5.20815 24.8387 4.53619 24.4697 3.94977C23.7666 2.85162 22.7648 1.97952 21.3169 1.20498C21.0599 1.06751 20.4033 0.750716 20.4136 0.740488C20.4451 0.708935 21.4226 1.11731 21.9047 1.3575C23.0956 1.95077 24.1195 2.80005 24.7996 3.75857C25.3036 4.46898 25.7217 5.27745 25.9279 6.09226C26.0427 6.54563 26.0568 6.94022 26.0554 7.43407C26.0526 8.41976 25.8469 9.06703 25.3648 10.0072C25.0266 10.6667 24.9493 10.7512 24.437 11.0208L23.8694 11.2263L18.8166 11.2576C13.6593 11.2896 13.6449 11.2574 13.1422 11.1604C12.0667 10.9528 11.6261 10.6966 11.3451 10.1152C11.2057 9.82677 11.1746 9.26669 11.2756 8.86392C11.5066 7.94219 13.0915 5.48648 15.3088 2.61474C15.7311 2.06789 16.0966 1.58295 16.1211 1.53711C16.2379 1.31846 16.121 1.17371 15.7878 1.12436C15.5554 1.08994 14.3705 1.27437 13.8577 1.4248C12.6041 1.79251 12.1203 1.97979 11.4945 2.33973C10.5524 2.88148 9.77994 3.54683 9.24372 4.27829C8.67182 5.0584 8.44445 5.54913 8.22824 6.46992C8.1004 7.01439 8.13004 7.86456 8.29795 8.46902C8.64793 9.72895 9.39095 10.7083 10.6775 11.6054C10.8763 11.744 11.039 11.8657 11.039 11.8758C11.039 11.9114 10.8826 11.8851 10.6447 11.8094V11.8094Z" fill="url(#paint15_linear_601_1152)"/>
<path d="M10.6698 11.8184C10.3148 11.7055 10.119 11.5938 9.68224 11.2547C8.72223 10.5094 8.02827 9.56581 7.72191 8.58919C7.54095 8.01232 7.49978 7.63445 7.52686 6.79885C7.54763 6.15766 7.56879 5.98419 7.66688 5.65094C7.91131 4.82053 8.2503 4.18906 8.817 3.50847C10.1012 1.96619 12.5001 0.80265 14.942 0.537621C15.6181 0.46424 16.8815 0.457885 17.0759 0.526888C17.2757 0.597804 17.4846 0.8291 17.5518 1.05367C17.5962 1.20208 17.5904 1.24584 17.5039 1.41576C17.4497 1.52206 17.3491 1.67849 17.2801 1.76339C17.2112 1.84829 17.0316 2.08069 16.8809 2.27985C16.7303 2.479 16.3785 2.9234 16.0992 3.2674C15.8198 3.61139 15.365 4.20886 15.0884 4.59511C14.5763 5.31006 13.4552 7.00609 13.2316 7.40413C13.1637 7.52484 13.043 7.71467 12.9633 7.826C12.8835 7.93732 12.7468 8.17921 12.6594 8.36352C12.5131 8.67205 12.5018 8.7242 12.5168 9.02095C12.5371 9.42477 12.663 9.63478 13.0245 9.86792C13.5686 10.2188 13.0741 10.1912 18.8154 10.1912H23.9366L24.3805 9.71277C24.7234 9.34317 24.8587 9.15995 24.9752 8.90739C25.1455 8.53824 25.3215 7.96181 25.3976 7.52429C25.4621 7.15305 25.4219 6.15852 25.332 5.90452C25.163 5.21706 24.7962 4.60532 24.4272 4.01891C23.724 2.92075 22.79 2.20461 21.342 1.43008C21.085 1.2926 19.8132 0.609961 20.4387 0.749401C20.4702 0.717848 21.4478 1.12622 21.9299 1.36641C23.1207 1.95969 24.1446 2.80896 24.8247 3.76747C25.3287 4.47789 25.7469 5.28636 25.9531 6.10117C26.0678 6.55454 26.0819 6.94913 26.0805 7.44298C26.0778 8.42867 25.8721 9.07594 25.39 10.0161C25.0518 10.6756 24.9745 10.7601 24.4622 11.0297L23.8946 11.2352L18.8417 11.2666C13.6845 11.2985 13.67 11.2663 13.1674 11.1693C12.0918 10.9617 11.6512 10.7055 11.3703 10.1241C11.2309 9.83568 11.1997 9.2756 11.3007 8.87283C11.5317 7.9511 13.1167 5.49539 15.334 2.62366C15.7562 2.0768 16.1217 1.59186 16.1462 1.54602C16.2631 1.32737 16.1462 1.18262 15.813 1.13327C15.5806 1.09885 14.3957 1.28329 13.8828 1.43371C12.6292 1.80142 12.1455 1.9887 11.5196 2.34864C10.5776 2.89039 9.80509 3.55575 9.26887 4.2872C8.69698 5.06731 8.4696 5.55804 8.25339 6.47883C8.12554 7.0233 8.15519 7.87347 8.32309 8.47793C8.67308 9.73786 9.4161 10.7172 10.7027 11.6143C10.9015 11.753 11.0642 11.8746 11.0642 11.8847C11.0642 11.9203 10.9077 11.894 10.6698 11.8184V11.8184Z" fill="url(#paint16_linear_601_1152)"/>
<path d="M10.6698 11.8184C10.3148 11.7055 10.119 11.5938 9.68224 11.2547C8.72223 10.5094 8.02827 9.56581 7.72191 8.58919C7.54095 8.01232 7.49978 7.63445 7.52686 6.79885C7.54763 6.15766 7.56879 5.98419 7.66688 5.65094C7.91131 4.82053 8.2503 4.18906 8.817 3.50847C10.1012 1.96619 12.5001 0.80265 14.942 0.537621C15.6181 0.46424 16.8815 0.457885 17.0759 0.526888C17.2757 0.597804 17.4846 0.8291 17.5518 1.05367C17.5962 1.20208 17.5904 1.24584 17.5039 1.41576C17.4497 1.52206 17.3491 1.67849 17.2801 1.76339C17.2112 1.84829 17.0316 2.08069 16.8809 2.27985C16.7303 2.479 16.3785 2.9234 16.0992 3.2674C15.8198 3.61139 15.365 4.20886 15.0884 4.59511C14.5763 5.31006 13.4552 7.00609 13.2316 7.40413C13.1637 7.52484 13.043 7.71467 12.9633 7.826C12.8835 7.93732 12.7468 8.17921 12.6594 8.36352C12.5131 8.67205 12.5018 8.7242 12.5168 9.02095C12.5371 9.42477 12.663 9.63478 13.0245 9.86792C13.5686 10.2188 13.0741 10.1912 18.8154 10.1912H23.9366L24.3805 9.71277C24.7234 9.34317 24.8587 9.15995 24.9752 8.90739C25.1455 8.53824 25.3215 7.96181 25.3976 7.52429C25.4621 7.15305 25.4219 6.15852 25.332 5.90452C25.163 5.21706 24.8639 4.5451 24.4949 3.95868C23.7917 2.86053 22.79 1.98843 21.342 1.21389C21.085 1.07642 20.4285 0.759628 20.4387 0.749401C20.4702 0.717848 21.4478 1.12622 21.9299 1.36641C23.1207 1.95969 24.1446 2.80896 24.8247 3.76747C25.3287 4.47789 25.7469 5.28636 25.9531 6.10117C26.0678 6.55454 26.0819 6.94913 26.0805 7.44298C26.0778 8.42867 25.8721 9.07594 25.39 10.0161C25.0518 10.6756 24.9745 10.7601 24.4622 11.0297L23.8946 11.2352L18.8417 11.2666C13.6845 11.2985 13.67 11.2663 13.1674 11.1693C12.0918 10.9617 11.6512 10.7055 11.3703 10.1241C11.2309 9.83568 11.1997 9.2756 11.3007 8.87283C11.5317 7.9511 13.1167 5.49539 15.334 2.62366C15.7562 2.0768 16.1217 1.59186 16.1462 1.54602C16.2631 1.32737 16.1462 1.18262 15.813 1.13327C15.5806 1.09885 14.3957 1.28329 13.8828 1.43371C12.6292 1.80142 12.1455 1.9887 11.5196 2.34864C10.5776 2.89039 9.80509 3.55575 9.26887 4.2872C8.69698 5.06731 8.4696 5.55804 8.25339 6.47883C8.12554 7.0233 8.15519 7.87347 8.32309 8.47793C8.67308 9.73786 9.4161 10.7172 10.7027 11.6143C10.9015 11.753 11.0642 11.8746 11.0642 11.8847C11.0642 11.9203 10.9077 11.894 10.6698 11.8184V11.8184Z" fill="url(#paint17_linear_601_1152)"/>
<path d="M7.5018 6.78994C7.52257 6.14874 7.54373 5.97528 7.64182 5.64203C7.88625 4.81162 8.22524 4.18015 8.79194 3.49956C10.0761 1.95727 12.475 0.793739 14.9169 0.528709C15.593 0.455329 16.8564 0.448974 17.0508 0.517976C17.2506 0.588893 17.4596 0.820188 17.5268 1.04476C17.5711 1.19317 17.5654 1.23693 17.4788 1.40684C17.4247 1.51315 17.324 1.66958 17.2551 1.75448C17.1862 1.83938 17.0065 2.07178 16.8559 2.27093C16.7052 2.47009 16.3534 2.91448 16.0741 3.25848C15.7948 3.60248 15.3399 4.19995 15.0633 4.58619C14.5513 5.30115 13.4302 6.99718 13.2065 7.39522C13.1387 7.51592 13.0179 7.70576 12.9382 7.81709C12.8585 7.92841 12.7217 8.17029 12.6344 8.35461C12.4881 8.66314 12.4768 8.71529 12.4917 9.01204C12.5121 9.41586 12.638 9.62587 12.9994 9.859C13.5435 10.2099 13.049 10.1823 18.7903 10.1823H23.9116L24.3555 9.70386C24.6984 9.33426 24.8337 9.15103 24.9502 8.89847C25.1204 8.52933 25.2964 7.9529 25.3725 7.51539C25.4371 7.14414 25.3968 6.14961 25.307 5.89561C25.1379 5.20815 24.7557 4.61933 24.3867 4.03292C23.6835 2.93477 22.6818 2.06267 21.2338 1.28813C20.9768 1.15066 20.4034 0.750716 20.4136 0.740488C20.4451 0.708935 21.4227 1.11731 21.9048 1.3575C23.0956 1.95077 24.1196 2.80005 24.7996 3.75856C25.3037 4.46898 25.7218 5.27745 25.928 6.09226C26.0428 6.54563 26.0568 6.94022 26.0555 7.43407C26.0527 8.41976 25.847 9.06703 25.3649 10.0072C25.0267 10.6667 24.9494 10.7512 24.4371 11.0208L23.8695 11.2263L18.8166 11.2576C13.6594 11.2896 13.6449 11.2574 13.1423 11.1604C12.0668 10.9528 11.6262 10.6966 11.3452 10.1152C11.2058 9.82677 11.1747 9.26669 11.2756 8.86391C11.5067 7.94218 13.0916 5.48648 15.3089 2.61474C15.7312 2.06789 16.0967 1.58295 16.1212 1.53711C16.238 1.31846 16.1211 1.17371 15.7879 1.12436C15.5555 1.08994 14.3706 1.27437 13.8578 1.4248C12.6042 1.79251 12.1204 1.97979 11.4946 2.33973C10.5525 2.88148 9.78003 3.54683 9.24381 4.27828C8.67191 5.0584 8.44454 5.54913 8.22833 6.46992C8.10048 7.01439 8.13013 7.86456 8.29803 8.46902C7.5691 7.8601 7.48601 7.32016 7.5018 6.78994V6.78994Z" fill="url(#paint18_linear_601_1152)"/>
<path d="M7.69676 8.58028C7.51581 8.0034 7.47464 7.62553 7.50171 6.78994C7.52248 6.14874 7.54364 5.97528 7.64173 5.64203C7.88616 4.81162 8.22515 4.18015 8.79185 3.49956C10.0761 1.95727 12.4749 0.793739 14.9168 0.528709C15.5929 0.455329 16.8563 0.448974 17.0507 0.517976C17.2505 0.588893 17.4595 0.820188 17.5267 1.04476C17.5711 1.19317 17.5653 1.23693 17.4787 1.40684C17.4246 1.51315 17.3239 1.66958 17.255 1.75448C17.1861 1.83938 17.0064 2.07178 16.8558 2.27093C16.7051 2.47009 16.3533 2.91448 16.074 3.25848C15.7947 3.60248 15.3398 4.19995 15.0632 4.58619C14.5512 5.30115 13.4301 6.99718 13.2064 7.39522C13.1386 7.51592 13.0179 7.70576 12.9381 7.81709C12.8584 7.92841 12.7217 8.17029 12.6343 8.35461C12.488 8.66314 12.4767 8.71529 12.4916 9.01204C12.512 9.41586 12.6379 9.62587 12.9994 9.859C13.5434 10.2099 13.0489 10.1823 18.7902 10.1823H23.9115L24.3554 9.70386C24.6983 9.33426 24.8336 9.15103 24.9501 8.89847C25.1203 8.52933 25.2964 7.9529 25.3724 7.51539C25.437 7.14414 25.3967 6.14961 25.3069 5.89561C25.1378 5.20815 24.8387 4.53619 24.4697 3.94977C23.7666 2.85162 22.7648 1.97952 21.3169 1.20498C21.0599 1.06751 20.4033 0.750716 20.4136 0.740488C20.4451 0.708935 21.4226 1.11731 21.9047 1.3575C23.0956 1.95077 24.1195 2.80005 24.7996 3.75856C25.3036 4.46898 25.7217 5.27745 25.9279 6.09226C26.0427 6.54563 26.0568 6.94022 26.0554 7.43407C26.0526 8.41976 25.8469 9.06703 25.3648 10.0072C25.0266 10.6667 24.9493 10.7512 24.437 11.0208L23.8694 11.2263L18.8166 11.2576C13.6593 11.2896 13.6449 11.2574 13.1422 11.1604C12.0667 10.9528 11.6261 10.6966 11.3451 10.1152C11.2057 9.82677 11.1746 9.26669 11.2755 8.86391C11.5066 7.94218 13.0915 5.48648 15.3088 2.61474C15.7311 2.06789 16.0966 1.58295 16.1211 1.53711C16.2379 1.31846 16.121 1.17371 15.7878 1.12436C15.5554 1.08994 14.3705 1.27437 13.8577 1.4248C12.6041 1.79251 12.1203 1.97979 11.4945 2.33973C10.5524 2.88148 9.77994 3.54683 9.24372 4.27828C8.67182 5.0584 8.44445 5.54913 8.22824 6.46992C8.1004 7.01439 8.13004 7.86456 8.29795 8.46902C8.09346 8.58881 8.63968 9.42185 7.69676 8.58028V8.58028Z" fill="url(#paint19_linear_601_1152)"/>
<path d="M7.74486 8.53207C7.5639 7.95519 7.52273 7.57732 7.54981 6.74173C7.57058 6.10053 7.59174 5.92706 7.68983 5.59381C7.93426 4.7634 8.27324 4.13193 8.83995 3.45134C10.1242 1.90906 12.523 0.745521 14.9649 0.480492C15.641 0.407111 16.9044 0.400756 17.0988 0.469758C17.2986 0.540675 17.5076 0.77197 17.5748 0.996538C17.6192 1.14495 17.6134 1.18871 17.5268 1.35863C17.4727 1.46493 17.372 1.62136 17.3031 1.70626C17.2342 1.79116 17.0545 2.02357 16.9039 2.22272C16.7532 2.42187 16.4014 2.86627 16.1221 3.21027C15.8428 3.55427 15.3879 4.15173 15.1113 4.53797C14.5993 5.25293 13.4782 6.94896 13.2545 7.347C13.1867 7.4677 13.066 7.65754 12.9862 7.76887C12.9065 7.88019 12.7697 8.12207 12.6824 8.30639C12.5361 8.61492 12.5248 8.66707 12.5397 8.96382C12.5601 9.36764 12.686 9.57765 13.0475 9.81079C13.5915 10.1617 13.097 10.1341 18.8383 10.1341H23.9596L24.4035 9.65564C24.7464 9.28604 24.8817 9.10282 24.9982 8.85026C25.1684 8.48111 25.3445 7.90469 25.4205 7.46717C25.4851 7.09592 25.4448 6.10139 25.355 5.8474C25.1859 5.15993 24.8037 4.57112 24.4347 3.9847C23.7315 2.88655 22.7298 2.01445 21.2818 1.23991C21.0248 1.10244 20.4514 0.7025 20.4616 0.692272C20.4931 0.660719 21.4707 1.0691 21.9528 1.30928C23.1437 1.90256 24.1676 2.75184 24.8477 3.71035C25.3517 4.42077 25.7698 5.22923 25.976 6.04404C26.0908 6.49741 26.1049 6.892 26.1035 7.38586C26.1007 8.37155 25.895 9.01881 25.4129 9.95897C25.0747 10.6185 24.9974 10.703 24.4851 10.9726L23.9175 11.1781L18.8646 11.2094C13.7074 11.2414 13.693 11.2092 13.1903 11.1122C12.1148 10.9046 11.6742 10.6483 11.3932 10.067C11.2538 9.77855 11.2227 9.21847 11.3236 8.8157C11.5547 7.89397 13.1396 5.43826 15.3569 2.56653C15.7792 2.01967 16.1447 1.53474 16.1692 1.48889C16.286 1.27024 16.1691 1.12549 15.8359 1.07614C15.6035 1.04172 14.4186 1.22616 13.9058 1.37658C12.6522 1.74429 12.1684 1.93157 11.5426 2.29151C10.6005 2.83326 9.82804 3.49862 9.29182 4.23007C8.71992 5.01018 8.49254 5.50091 8.27633 6.42171C8.14849 6.96617 8.17814 7.81634 8.34604 8.4208C8.14156 8.54059 8.18604 8.49226 7.74486 8.53207V8.53207Z" fill="url(#paint20_linear_601_1152)"/>
<g opacity="0.8">
<path d="M15.0029 0.56822C15.639 0.49789 16.8276 0.4918 17.0105 0.557933C17.1985 0.625902 17.3951 0.847582 17.4583 1.06281C17.5 1.20505 17.4946 1.247 17.4132 1.40985C17.3622 1.51173 17.2675 1.66166 17.2027 1.74303C17.1379 1.8244 16.9688 2.04714 16.8271 2.23801C15.8022 3.26938 15.995 2.68327 16.1359 1.53469C16.2458 1.32514 16.1359 1.1864 15.8224 1.13911C15.4227 0.822794 15.8041 0.875602 15.0029 0.56822Z" fill="url(#paint21_linear_601_1152)"/>
</g>
<path d="M15.8013 3.52662C15.5385 3.85631 15.1105 4.42894 14.8503 4.79913C14.3686 5.48436 13.3139 7.10987 13.1034 7.49137C13.0396 7.60705 12.926 7.789 12.851 7.89569C12.776 8.00239 12.6473 8.23422 12.5651 8.41087C12.4275 8.70658 12.4169 8.75655 12.4309 9.04096C12.4501 9.42799 12.5685 9.62928 12.9086 9.85272C13.4205 10.189 12.9553 10.1626 18.3567 10.1626C19.0593 10.4752 24.5397 10.9953 18.3814 11.1932C13.5295 11.2239 13.5159 11.193 13.043 11.1C12.0311 10.9011 11.6166 10.6555 11.3523 10.0983C11.2212 9.82182 11.1919 9.28503 11.2868 8.899C12.4844 4.73723 16.3721 2.63886 15.8013 3.52662V3.52662Z" fill="url(#paint22_linear_601_1152)"/>
<path d="M14.6514 9.34616C14.4328 9.03986 14.4268 8.68059 14.6323 8.21319C14.9936 7.39128 17.0392 4.5303 18.5834 2.68707C19.4745 1.6234 19.8342 1.11714 19.8342 0.926627C19.8342 0.842789 19.7805 0.74064 19.6754 0.624313L19.3948 0.371033L19.6455 0.448623C19.8013 0.49683 20.246 0.645116 20.3789 0.732184C20.5967 0.874904 20.5592 1.2725 20.3365 1.66014C20.2304 1.84489 19.8088 2.39 19.4405 2.81874C18.4342 3.99025 17.2446 5.59463 16.1374 7.27369C15.5493 8.1656 15.3612 8.5449 15.4248 8.71072C15.4577 8.79648 14.8995 9.44687 14.7946 9.44492C14.7541 9.44417 14.6896 9.39972 14.6514 9.34616V9.34616Z" fill="#505050"/>
<path d="M24.0357 9.64465C23.9411 9.54003 23.7069 9.04978 23.7069 8.96939C23.7069 8.93443 23.8022 8.93433 23.8421 8.90212C23.9624 8.80484 24.0459 8.60772 24.1645 8.1407C24.4418 7.04863 24.3262 5.96674 23.8194 4.91329C23.1955 3.61604 21.9039 2.50895 20.4626 2.03597C20.2591 1.96918 20.1947 1.94512 20.1517 1.89628C20.0778 1.81227 20.0874 1.78102 20.2086 1.51608C20.2986 1.31932 20.3191 1.21581 20.3863 1.20611C20.4389 1.19852 20.6946 1.30076 21.0743 1.48601C22.9347 2.39376 24.1554 3.54016 24.7697 4.9565C25.0914 5.69839 25.1613 5.99166 25.1895 6.71918C25.2244 7.6201 25.0814 8.28308 24.684 9.0623C24.3633 9.69131 24.1921 9.81774 24.0357 9.64465Z" fill="url(#paint23_linear_601_1152)"/>
<path d="M15.2019 9.69504C14.9749 9.66665 14.7651 9.51993 14.7651 9.43254C14.7651 9.34555 15.3484 8.67313 15.4214 8.67313C15.446 8.67313 15.4587 8.76859 15.5373 8.80864C15.6665 8.87451 16.0693 8.88314 19.7629 8.89924L23.8457 8.91704L24.0217 9.2362C24.1282 9.42934 24.2184 9.61554 24.2011 9.65974C24.1748 9.72725 21.6892 9.76744 17.6352 9.76136C15.2226 9.75774 15.2755 9.70425 15.2019 9.69503V9.69504Z" fill="url(#paint24_linear_601_1152)"/>
<path opacity="0.5" d="M15.2019 9.69504C14.9749 9.66665 14.7651 9.51993 14.7651 9.43254C14.7651 9.34555 15.3484 8.67313 15.4214 8.67313C15.446 8.67313 15.4587 8.76859 15.5373 8.80864C15.6665 8.87451 16.0693 8.88314 19.7629 8.89924L23.8457 8.91704L24.0217 9.2362C24.1282 9.42934 24.2184 9.61554 24.2011 9.65974C24.1748 9.72725 21.6892 9.76744 17.6352 9.76136C15.2226 9.75774 15.2755 9.70425 15.2019 9.69503V9.69504Z" fill="url(#paint25_linear_601_1152)"/>
<path d="M15.207 13.5641C10.9641 13.1939 7.57136 10.7073 7.06714 7.59823C6.75208 5.65542 7.5857 3.7594 9.42386 2.23801C10.0565 1.71437 10.223 1.60669 11.0374 1.19434C12.5597 0.423483 14.038 0.0718923 15.9751 0.0199528C17.0174 -0.00799513 17.7738 0.0391399 18.6289 0.185325C19.3736 0.312633 19.4626 0.344069 19.6722 0.553586C19.8222 0.703603 19.8595 0.771843 19.8595 0.896471C19.8595 1.08682 19.6511 1.3772 18.5445 2.7293C17.2303 4.3349 16.4227 5.42177 15.3746 6.99517C14.5056 8.29972 14.3854 8.59042 14.5215 9.0585C14.622 9.40421 14.9367 9.56455 15.2459 9.6234C15.6464 9.69961 16.0972 9.68168 19.1307 9.67688C20.7241 9.67436 24.104 9.68161 24.2088 9.67391C24.3451 9.66391 24.4247 9.62444 24.516 9.53697C24.8292 9.13149 24.9521 8.9621 24.5378 9.69846C24.3605 10.0136 24.0901 10.2579 23.7924 10.3197C23.4476 10.3913 14.3741 10.356 13.8752 10.2811C13.4394 10.2157 13.1869 10.1195 12.8491 9.89011C12.6374 9.74634 12.5556 9.65632 12.4613 9.46359C12.3553 9.24695 12.3448 9.18677 12.3686 8.93177C12.3985 8.6118 12.5319 8.28501 12.7851 7.9113C12.8768 7.77599 13.0184 7.54677 13.0997 7.40193C13.1811 7.25709 13.5265 6.71394 13.8674 6.19492C14.7718 4.81764 15.6926 3.56323 16.348 2.81531C16.7604 2.34476 17.3555 1.53031 17.3983 1.37788C17.4814 1.08204 17.249 0.682473 16.9275 0.568574C16.7085 0.490962 15.5438 0.507645 14.8425 0.598441C10.9903 1.09712 8.08332 3.31812 7.59152 6.13831C7.50792 6.61766 7.50741 7.56922 7.59044 8.04357C7.81979 9.3532 8.65842 10.5685 9.98656 11.516C10.4704 11.8612 11.5294 12.4042 12.1565 12.6288C15.0013 13.6472 18.6061 13.4851 21.3154 12.2168C21.9669 11.9117 22.2462 11.7225 22.652 11.3109L23.0087 10.9492L23.624 10.9198C24.2115 10.8918 24.5364 10.9221 24.4933 10.9917C24.4541 11.0552 23.6256 11.3793 23.2941 11.497C23.1069 11.5634 22.9329 11.6835 22.6679 11.8501C20.6363 13.1272 17.8151 13.7916 15.207 13.5641L15.207 13.5641Z" fill="url(#paint26_linear_601_1152)"/>
<path opacity="0.3" d="M15.2552 13.5563C11.0123 13.1861 7.61957 10.6995 7.11536 7.59042C6.80029 5.64762 7.63391 3.75159 9.47208 2.2302C10.1047 1.70656 10.2712 1.59889 11.0856 1.18654C12.608 0.41568 14.0862 0.0640861 16.0233 0.012146C15.389 0.32231 15.7342 0.554982 14.8907 0.590634C11.0385 1.08931 8.13153 3.31031 7.63974 6.1305C7.55615 6.60985 7.55563 7.56141 7.63866 8.03576C7.86801 9.34539 8.70663 10.5607 10.0348 11.5082C10.5186 11.8534 11.5776 12.3964 12.2047 12.6209C15.0496 13.6394 18.6543 13.4772 21.3636 12.2089C22.0151 11.9039 22.2944 11.7147 22.7003 11.3031L23.0569 10.9414L23.6722 10.912C24.2597 10.884 24.5846 10.9143 24.5416 10.9839C24.5023 11.0474 23.6738 11.3715 23.3423 11.4892C23.1551 11.5556 22.9811 11.6757 22.7161 11.8423C20.6845 13.1194 17.8633 13.7838 15.2552 13.5563L15.2552 13.5563Z" fill="url(#paint27_linear_601_1152)"/>
<path d="M15.2264 13.5614C10.9835 13.1913 7.6905 10.871 7.18628 7.76187C6.87122 5.81907 7.70483 3.9563 9.54299 2.43491C10.1757 1.91127 10.3628 1.80192 11.1273 1.35631C12.6015 0.496974 14.0574 0.0692374 15.9945 0.017298C17.0368 -0.01065 17.7932 0.036483 18.6483 0.182669C19.3929 0.309976 19.482 0.341414 19.6915 0.550931C19.8415 0.700948 19.8788 0.769188 19.8788 0.893816C19.8788 1.08416 19.6705 1.37455 18.5638 2.72664C17.2497 4.33225 16.4421 5.41911 15.394 6.99252C14.525 8.29706 14.4048 8.58776 14.5409 9.05584C14.6414 9.40155 14.9561 9.5619 15.2653 9.62074C15.6657 9.69696 16.1166 9.67903 19.15 9.67423C20.7435 9.6717 24.1234 9.67895 24.2282 9.67126C24.3645 9.66125 24.444 9.62179 24.5353 9.53432C24.8485 9.12884 24.9715 8.95945 24.5571 9.69581C24.3798 10.011 24.1095 10.2553 23.8117 10.3171C23.4669 10.3886 14.3934 10.3533 13.8945 10.2784C13.4587 10.213 13.2063 10.1168 12.8685 9.88746C12.6568 9.74368 12.575 9.65367 12.4807 9.46094C12.3747 9.2443 12.3642 9.18411 12.388 8.92911C12.4179 8.60914 12.5512 8.28236 12.8044 7.90864C12.8961 7.77333 13.0377 7.54412 13.1191 7.39928C13.2005 7.25444 13.5459 6.71128 13.8867 6.19227C14.7912 4.81499 15.712 3.56057 16.3674 2.81266C16.7798 2.34211 17.3748 1.52766 17.4177 1.37522C17.5008 1.07938 17.2683 0.679818 16.9469 0.565919C16.7279 0.488307 15.5632 0.50499 14.8618 0.595786C11.0097 1.09447 8.10268 3.31546 7.61088 6.13566C7.52729 6.615 7.52677 7.56657 7.6098 8.04092C7.83916 9.35054 8.67778 10.5659 10.0059 11.5134C10.4897 11.8585 11.5488 12.4016 12.1759 12.6261C15.0207 13.6446 18.6255 13.4824 21.3347 12.2141C21.9863 11.9091 22.2656 11.7198 22.6714 11.3083L23.0281 10.9465L23.6433 10.9172C24.2308 10.8891 24.5557 10.9194 24.5127 10.9891C24.4735 11.0526 23.6449 11.3767 23.3135 11.4943C23.1263 11.5607 22.9522 11.6809 22.6872 11.8474C20.6556 13.1246 17.8345 13.789 15.2263 13.5614L15.2264 13.5614Z" fill="url(#paint28_linear_601_1152)"/>
<path opacity="0.5" d="M15.207 13.564C10.9641 13.1939 7.57136 10.7073 7.06714 7.5982C6.75208 5.6554 7.5857 3.75937 9.42386 2.23798C10.0565 1.71434 10.223 1.60667 11.0374 1.19432C12.5597 0.423458 14.038 0.0718675 15.9751 0.019928C15.9343 0.441894 15.2664 0.600196 14.8425 0.598414C10.9903 1.09709 8.08332 3.31809 7.59152 6.13828C7.50792 6.61763 7.50741 7.5692 7.59044 8.04355C7.81979 9.35317 8.65842 10.5685 9.98656 11.516C10.4704 11.8612 11.5294 12.4042 12.1565 12.6287C15.0013 13.6472 18.6061 13.485 21.3154 12.2167C21.9669 11.9117 22.2462 11.7225 22.652 11.3109L23.0087 10.9492L23.624 10.9198C24.2115 10.8918 24.5364 10.9221 24.4933 10.9917C24.4541 11.0552 23.6256 11.3793 23.2941 11.4969C23.1069 11.5634 22.9329 11.6835 22.6679 11.8501C20.6363 13.1272 17.8151 13.7916 15.207 13.564H15.207Z" fill="url(#paint29_linear_601_1152)"/>
<path opacity="0.3" d="M15.2552 13.5563C11.0123 13.1861 7.61957 10.6995 7.11536 7.59042C6.80029 5.64762 7.63391 3.75159 9.47208 2.2302C10.1047 1.70656 10.2712 1.59889 11.0856 1.18654C12.608 0.41568 14.0862 0.0640861 16.0233 0.012146C15.389 0.32231 15.7342 0.554982 14.8907 0.590634C11.0385 1.08931 8.13153 3.31031 7.63974 6.1305C7.55615 6.60985 7.55563 7.56141 7.63866 8.03576C7.86801 9.34539 8.70663 10.5607 10.0348 11.5082C10.5186 11.8534 11.5776 12.3964 12.2047 12.6209C15.0496 13.6394 18.6543 13.4772 21.3636 12.2089C22.0151 11.9039 22.2944 11.7147 22.7003 11.3031L23.0569 10.9414L23.6722 10.912C24.2597 10.884 24.5846 10.9143 24.5416 10.9839C24.5023 11.0474 23.6738 11.3715 23.3423 11.4892C23.1551 11.5556 22.9811 11.6757 22.7161 11.8423C20.6845 13.1194 17.8633 13.7838 15.2552 13.5563L15.2552 13.5563Z" fill="url(#paint30_linear_601_1152)"/>
<path opacity="0.3" d="M15.6948 9.88365C15.3461 9.87524 14.6984 9.36743 14.7463 9.40812C15.1119 9.7184 16.6473 9.69018 19.6514 9.68282L24.2102 9.67164L24.3263 9.56036C24.3902 9.49916 24.5337 9.2573 24.6452 9.0229C25.3066 7.63263 25.309 6.22307 24.6524 4.85147C24.3854 4.29381 24.0733 3.85363 23.5781 3.33634C22.86 2.58617 22.1828 2.07649 21.0983 1.59785C20.3291 1.25839 20.3069 1.33353 20.3385 1.1201C20.3385 1.06721 20.3097 0.999419 20.2863 0.915777C20.1851 0.554436 20.2318 0.633987 21.1447 1.11094C22.3714 1.75183 23.0334 2.18831 23.8056 2.9928C25.5112 4.76982 25.9354 7.0629 24.9396 9.12341C24.7491 9.51753 24.476 9.78668 24.172 9.87986C24.0365 9.92139 23.2413 9.92463 20.0636 9.92094C17.7823 9.9183 17.4818 9.92676 15.6948 9.88365V9.88365Z" fill="url(#paint31_linear_601_1152)"/>
<path d="M15.6948 9.76656C15.0874 9.75825 14.5397 9.26195 14.5876 9.3021C14.9533 9.60833 16.6472 9.57561 19.6513 9.56834L24.2101 9.55731L24.3263 9.44749C24.3901 9.38708 24.5336 9.14839 24.6451 8.91705C25.3065 7.54493 25.3089 6.15377 24.6523 4.80007C24.3853 4.2497 24.0732 3.81527 23.5781 3.30473C22.8599 2.56436 22.1827 2.06133 21.0982 1.58894C20.3291 1.25391 20.3068 1.32807 20.3384 1.11743C20.3384 1.06523 20.3097 0.998321 20.2862 0.915771C20.185 0.559149 20.2787 0.823346 21.1916 1.29407C22.4183 1.9266 22.9393 2.26453 23.7114 3.05852C25.4171 4.81234 25.9353 6.98263 24.9395 9.01624C24.7491 9.40522 24.4759 9.67086 24.1719 9.76282C24.0364 9.8038 23.2412 9.80699 20.0635 9.80336C17.7823 9.80075 17.4821 9.79099 15.6948 9.76656V9.76656Z" fill="url(#paint32_linear_601_1152)"/>
<path opacity="0.5" d="M24.6524 4.85148C24.3854 4.29383 24.0733 3.85365 23.5781 3.33636C22.86 2.58619 22.1828 2.07651 21.0983 1.59786C20.3291 1.2584 20.3069 1.33354 20.3385 1.12012C20.3385 1.06723 20.3097 0.999435 20.2863 0.915792C20.1851 0.554452 20.173 0.751591 21.0859 1.22855C22.3126 1.86944 23.0334 2.18832 23.8056 2.99281C24.4646 3.89019 24.028 3.41091 24.6524 4.85148V4.85148Z" fill="url(#paint33_linear_601_1152)"/>
<path opacity="0.3" d="M22.7004 11.3031L23.0571 10.9414L23.6723 10.912C24.2598 10.884 24.5847 10.9143 24.5417 10.9839C24.1292 11.4507 22.3023 11.7822 22.7004 11.3031Z" fill="url(#paint34_linear_601_1152)"/>
<path opacity="0.6" d="M15.2264 13.5518C10.9835 13.1816 7.6905 10.8613 7.18629 7.75223C6.87121 5.80942 7.70483 3.94666 9.54299 2.42527C10.1757 1.90162 10.3628 1.79228 11.1273 1.34667C12.6015 0.487331 14.0574 0.0595937 15.9945 0.00765424C17.0368 -0.0202937 17.7932 0.0268413 18.6483 0.173027C19.393 0.300334 19.482 0.33177 19.6915 0.541287C19.8415 0.691305 19.8788 0.759544 19.8788 0.884172C19.8788 1.07452 19.6705 1.3649 18.5638 2.717C17.2497 4.3226 16.4421 5.40947 15.394 6.98288C14.525 8.28742 14.4048 8.57812 14.5409 9.0462C14.6414 9.39191 14.9561 9.55225 15.2653 9.6111C15.6657 9.68731 16.1166 9.66938 19.15 9.66458C20.7435 9.66206 24.1234 9.6693 24.2282 9.66161C24.3645 9.6516 24.444 9.61214 24.5353 9.52467C24.8485 9.1192 24.9715 8.9498 24.5572 9.68616C24.3798 10.0013 24.1095 10.2456 23.8117 10.3074C23.467 10.379 14.3934 10.3437 13.8945 10.2688C13.4588 10.2034 13.2063 10.1072 12.8685 9.87781C12.6568 9.73404 12.575 9.64402 12.4807 9.45129C12.3747 9.23465 12.3642 9.17447 12.388 8.91947C12.4179 8.5995 12.5512 8.27272 12.8044 7.899C12.8961 7.76369 13.0377 7.53447 13.1191 7.38963C13.2005 7.24479 13.5459 6.70164 13.8867 6.18263C14.7912 4.80535 15.712 3.55093 16.3674 2.80301C16.7798 2.33247 17.3749 1.51802 17.4177 1.36558C17.5008 1.06974 17.2683 0.670175 16.9469 0.556275C16.7279 0.478663 15.5632 0.495347 14.8618 0.586142C11.0097 1.08482 8.10268 3.30582 7.61088 6.12601C7.52729 6.60536 7.52677 7.55692 7.6098 8.03127C7.83916 9.3409 8.67778 10.5562 10.0059 11.5037C10.4897 11.8489 11.5488 12.3919 12.1759 12.6165C15.0207 13.6349 18.6255 13.4728 21.3347 12.2045C21.9863 11.8995 22.2656 11.7102 22.6714 11.2986L23.0281 10.9369L23.6433 10.9075C24.2308 10.8795 24.5557 10.9098 24.5127 10.9794C24.4735 11.043 23.6449 11.367 23.3135 11.4847C23.1263 11.5511 22.9522 11.6712 22.6872 11.8378C20.6556 13.1149 17.8345 13.7793 15.2263 13.5518H15.2264Z" fill="url(#paint35_radial_601_1152)"/>
<defs>
<linearGradient id="paint0_linear_601_1152" x1="15.4542" y1="21.5211" x2="15.2955" y2="14.9602" gradientUnits="userSpaceOnUse">
<stop stop-color="#505050"/>
<stop offset="0.0584744" stop-color="#525252"/>
<stop offset="0.56152" stop-color="#555555"/>
<stop offset="0.786532" stop-color="#5A5A5A"/>
<stop offset="1" stop-color="#C8C8C8"/>
</linearGradient>
<linearGradient id="paint1_linear_601_1152" x1="22.7539" y1="15.9079" x2="22.7539" y2="16.5316" gradientUnits="userSpaceOnUse">
<stop stop-color="#B8B8B8"/>
<stop offset="1" stop-color="#828282"/>
</linearGradient>
<linearGradient id="paint2_linear_601_1152" x1="17.464" y1="15.2858" x2="17.355" y2="20.0147" gradientUnits="userSpaceOnUse">
<stop stop-color="#464646"/>
<stop offset="1"/>
</linearGradient>
<linearGradient id="paint3_linear_601_1152" x1="17.4636" y1="15.2512" x2="17.3457" y2="20.1696" gradientUnits="userSpaceOnUse">
<stop stop-color="#464646"/>
<stop offset="1"/>
</linearGradient>
<linearGradient id="paint4_linear_601_1152" x1="17.4637" y1="14.8858" x2="17.3191" y2="20.3325" gradientUnits="userSpaceOnUse">
<stop stop-color="#464646"/>
<stop offset="1"/>
</linearGradient>
<linearGradient id="paint5_linear_601_1152" x1="17.4637" y1="14.8858" x2="17.3191" y2="20.3325" gradientUnits="userSpaceOnUse">
<stop stop-color="#464646"/>
<stop offset="1"/>
</linearGradient>
<linearGradient id="paint6_linear_601_1152" x1="17.4638" y1="15.2506" x2="17.3408" y2="20.273" gradientUnits="userSpaceOnUse">
<stop stop-color="#464646"/>
<stop offset="1"/>
</linearGradient>
<linearGradient id="paint7_linear_601_1152" x1="17.4637" y1="14.8858" x2="17.3191" y2="20.3325" gradientUnits="userSpaceOnUse">
<stop stop-color="#464646"/>
<stop offset="1"/>
</linearGradient>
<linearGradient id="paint8_linear_601_1152" x1="17.4637" y1="14.8858" x2="17.3191" y2="20.3325" gradientUnits="userSpaceOnUse">
<stop stop-color="#464646"/>
<stop offset="1"/>
</linearGradient>
<linearGradient id="paint9_linear_601_1152" x1="13.9822" y1="15.1282" x2="13.8652" y2="20.781" gradientUnits="userSpaceOnUse">
<stop stop-color="#787878"/>
<stop offset="1" stop-color="#1E1E1E"/>
</linearGradient>
<linearGradient id="paint10_linear_601_1152" x1="15.4248" y1="15.2061" x2="15.6197" y2="19.8064" gradientUnits="userSpaceOnUse">
<stop stop-color="#B4B4B4"/>
<stop offset="0.322353" stop-color="#828282"/>
<stop offset="1" stop-color="#3C3C3C"/>
</linearGradient>
<linearGradient id="paint11_linear_601_1152" x1="16.1283" y1="21.0608" x2="16.3213" y2="17.8571" gradientUnits="userSpaceOnUse">
<stop stop-color="#828282"/>
<stop offset="0.5" stop-color="#828282"/>
<stop offset="1" stop-color="#3C3C3C"/>
</linearGradient>
<linearGradient id="paint12_linear_601_1152" x1="15.6976" y1="17.4673" x2="15.7755" y2="19.8843" gradientUnits="userSpaceOnUse">
<stop stop-color="#828282"/>
<stop offset="0.5" stop-color="#828282"/>
<stop offset="1" stop-color="#3C3C3C"/>
</linearGradient>
<linearGradient id="paint13_linear_601_1152" x1="6.64968" y1="4.16334" x2="23.9756" y2="15.4514" gradientUnits="userSpaceOnUse">
<stop stop-color="#000032"/>
<stop offset="0.25" stop-color="#646464"/>
<stop offset="0.423823"/>
<stop offset="1" stop-color="#787878"/>
</linearGradient>
<linearGradient id="paint14_linear_601_1152" x1="7.44869" y1="12.4164" x2="25.2092" y2="12.2834" gradientUnits="userSpaceOnUse">
<stop stop-color="#999999"/>
<stop offset="0.220528" stop-color="#3C3C3C" stop-opacity="0.87451"/>
<stop offset="0.515847" stop-color="#969696"/>
<stop offset="0.752781" stop-color="#828282"/>
<stop offset="1" stop-color="#5A5A5A"/>
</linearGradient>
<linearGradient id="paint15_linear_601_1152" x1="19.1228" y1="13.9796" x2="19.0894" y2="9.62265" gradientUnits="userSpaceOnUse">
<stop/>
<stop offset="1" stop-opacity="0"/>
</linearGradient>
<linearGradient id="paint16_linear_601_1152" x1="13.0696" y1="0.642619" x2="25.7989" y2="15.1224" gradientUnits="userSpaceOnUse">
<stop stop-color="#5A5A5A"/>
<stop offset="0.268765" stop-color="#505050"/>
<stop offset="0.632019" stop-color="#666666"/>
<stop offset="0.667453" stop-color="#666666"/>
<stop offset="1" stop-color="#666666"/>
</linearGradient>
<linearGradient id="paint17_linear_601_1152" x1="13.0696" y1="0.642619" x2="25.7989" y2="15.1224" gradientUnits="userSpaceOnUse">
<stop stop-color="#5A5A5A"/>
<stop offset="0.268765" stop-color="#505050"/>
<stop offset="0.632019" stop-color="#666666"/>
<stop offset="0.667453" stop-color="#666666"/>
<stop offset="1" stop-color="#666666"/>
</linearGradient>
<linearGradient id="paint18_linear_601_1152" x1="8.16083" y1="2.07371" x2="21.1838" y2="7.69103" gradientUnits="userSpaceOnUse">
<stop stop-color="#323232" stop-opacity="0"/>
<stop offset="0.39399" stop-color="#323232" stop-opacity="0.94902"/>
<stop offset="0.466851" stop-color="#323232" stop-opacity="0.901961"/>
<stop offset="0.704071" stop-color="#E1E1E1" stop-opacity="0.498039"/>
<stop offset="1" stop-color="#C8C8C8" stop-opacity="0"/>
</linearGradient>
<linearGradient id="paint19_linear_601_1152" x1="19.023" y1="11.7512" x2="19.0897" y2="9.62265" gradientUnits="userSpaceOnUse">
<stop/>
<stop offset="1" stop-opacity="0"/>
</linearGradient>
<linearGradient id="paint20_linear_601_1152" x1="7.60875" y1="3.29374" x2="9.39072" y2="5.17289" gradientUnits="userSpaceOnUse">
<stop stop-color="#28170B"/>
<stop offset="1" stop-color="#28170B" stop-opacity="0"/>
</linearGradient>
<linearGradient id="paint21_linear_601_1152" x1="16.1766" y1="2.09916" x2="15.5125" y2="0.596376" gradientUnits="userSpaceOnUse">
<stop stop-color="#B3B3B3" stop-opacity="0"/>
<stop offset="0.160949" stop-color="#B3B3B3" stop-opacity="0.300885"/>
<stop offset="0.341789" stop-color="#B3B3B3" stop-opacity="0.87451"/>
<stop offset="0.405936" stop-color="#B3B3B3" stop-opacity="0.74902"/>
<stop offset="0.658295" stop-color="#B3B3B3" stop-opacity="0"/>
<stop offset="1" stop-color="#B3B3B3" stop-opacity="0"/>
</linearGradient>
<linearGradient id="paint22_linear_601_1152" x1="12.0535" y1="10.3602" x2="11.1987" y2="7.74867" gradientUnits="userSpaceOnUse">
<stop stop-color="#B3B3B3" stop-opacity="0"/>
<stop offset="0.12143" stop-color="#B3B3B3" stop-opacity="0.368627"/>
<stop offset="0.285824" stop-color="#B3B3B3" stop-opacity="0.87451"/>
<stop offset="0.383948" stop-color="#B3B3B3" stop-opacity="0.74902"/>
<stop offset="0.516942" stop-color="#B3B3B3" stop-opacity="0.498039"/>
<stop offset="1" stop-color="#B3B3B3" stop-opacity="0"/>
</linearGradient>
<linearGradient id="paint23_linear_601_1152" x1="21.4659" y1="0.776746" x2="24.0852" y2="8.59847" gradientUnits="userSpaceOnUse">
<stop/>
<stop offset="0.552013" stop-color="#7D7D7D"/>
<stop offset="0.693304" stop-color="#969696"/>
<stop offset="0.857541" stop-color="#8A8A8A"/>
<stop offset="1" stop-color="#505050"/>
</linearGradient>
<linearGradient id="paint24_linear_601_1152" x1="14.6088" y1="8.89331" x2="23.2216" y2="10.9306" gradientUnits="userSpaceOnUse">
<stop stop-color="#323232"/>
<stop offset="0.105545" stop-color="#B4B4B6"/>
<stop offset="0.253205" stop-color="#B4B4B4"/>
<stop offset="1" stop-color="#AAAAAA"/>
</linearGradient>
<linearGradient id="paint25_linear_601_1152" x1="20.0079" y1="8.53768" x2="20.0079" y2="9.97227" gradientUnits="userSpaceOnUse">
<stop stop-color="#505050"/>
<stop offset="1" stop-color="#FAFAFA" stop-opacity="0"/>
</linearGradient>
<linearGradient id="paint26_linear_601_1152" x1="8.79297" y1="-0.751618" x2="12.5845" y2="5.30159" gradientUnits="userSpaceOnUse">
<stop stop-color="#8282A9"/>
<stop offset="1" stop-color="#A9A9A9" stop-opacity="0"/>
</linearGradient>
<linearGradient id="paint27_linear_601_1152" x1="23.8509" y1="10.9096" x2="19.2018" y2="12.5041" gradientUnits="userSpaceOnUse">
<stop stop-color="#FAFAFA"/>
<stop offset="0.25" stop-color="#FAFAFA" stop-opacity="0.901961"/>
<stop offset="0.5" stop-color="#E1E1E1" stop-opacity="0.498039"/>
<stop offset="1" stop-color="#C8C8C8" stop-opacity="0"/>
</linearGradient>
<linearGradient id="paint28_linear_601_1152" x1="16.9609" y1="-0.687753" x2="16.8586" y2="15.7609" gradientUnits="userSpaceOnUse">
<stop stop-color="#AAAAAA"/>
<stop offset="0.101807" stop-color="#BEBEBE"/>
<stop offset="0.211525" stop-color="#BEBEBE"/>
<stop offset="0.549206" stop-color="#B4B4B4"/>
<stop offset="0.673505" stop-color="#878787"/>
<stop offset="0.778718" stop-color="#969696"/>
<stop offset="1" stop-color="#AAAAAA"/>
</linearGradient>
<linearGradient id="paint29_linear_601_1152" x1="6.58394" y1="10.7202" x2="10.4088" y2="7.39425" gradientUnits="userSpaceOnUse">
<stop stop-color="#E6E6E6"/>
<stop offset="1" stop-color="#FAFAFA" stop-opacity="0"/>
</linearGradient>
<linearGradient id="paint30_linear_601_1152" x1="23.8509" y1="10.9096" x2="19.2018" y2="12.5041" gradientUnits="userSpaceOnUse">
<stop stop-color="#FAFAFA"/>
<stop offset="0.25" stop-color="#FAFAFA" stop-opacity="0.901961"/>
<stop offset="0.5" stop-color="#E1E1E1" stop-opacity="0.498039"/>
<stop offset="1" stop-color="#C8C8C8" stop-opacity="0"/>
</linearGradient>
<linearGradient id="paint31_linear_601_1152" x1="19.9988" y1="0.683274" x2="20.9462" y2="1.34846" gradientUnits="userSpaceOnUse">
<stop stop-color="#FAFAFA"/>
<stop offset="0.25" stop-color="#EDEDED" stop-opacity="0.74902"/>
<stop offset="0.5" stop-color="#E1E1E1" stop-opacity="0.498039"/>
<stop offset="1" stop-color="#C8C8C8" stop-opacity="0"/>
</linearGradient>
<linearGradient id="paint32_linear_601_1152" x1="15.2646" y1="10.2878" x2="24.0783" y2="1.17476" gradientUnits="userSpaceOnUse">
<stop stop-color="#969696"/>
<stop offset="0.132623" stop-color="#C0BEBE"/>
<stop offset="0.5" stop-color="#B4B4B4"/>
<stop offset="1" stop-color="#BEBEBE"/>
</linearGradient>
<linearGradient id="paint33_linear_601_1152" x1="19.8545" y1="1.17478" x2="21.7503" y2="1.54063" gradientUnits="userSpaceOnUse">
<stop stop-opacity="0"/>
<stop offset="0.109171" stop-color="#323232" stop-opacity="0.94902"/>
<stop offset="0.218341" stop-color="#323232" stop-opacity="0.901961"/>
<stop offset="0.506057" stop-color="#E1E1E1" stop-opacity="0.498039"/>
<stop offset="1" stop-color="#C8C8C8" stop-opacity="0"/>
</linearGradient>
<linearGradient id="paint34_linear_601_1152" x1="23.6015" y1="10.9096" x2="23.5922" y2="11.4897" gradientUnits="userSpaceOnUse">
<stop stop-color="#FAFAFA"/>
<stop offset="0.5" stop-color="#FAFAFA" stop-opacity="0.901961"/>
<stop offset="0.697845" stop-color="#E1E1E1" stop-opacity="0.498039"/>
<stop offset="1" stop-color="#C8C8C8" stop-opacity="0"/>
</linearGradient>
<radialGradient id="paint35_radial_601_1152" cx="0" cy="0" r="1" gradientUnits="userSpaceOnUse" gradientTransform="translate(16.3069 4.12739) rotate(76.732) scale(4.55651 5.79303)">
<stop stop-color="#DCDCDC" stop-opacity="0.901961"/>
<stop offset="0.752174" stop-color="#E1E1E1" stop-opacity="0.45098"/>
<stop offset="1" stop-color="#C8C8C8" stop-opacity="0"/>
</radialGradient>
</defs>
</svg>
