<svg width="32" height="32" viewBox="0 0 32 32" fill="none" xmlns="http://www.w3.org/2000/svg">
<g clip-path="url(#clip0_605_9)">
<path d="M15.9987 17.168C15.9507 17.168 15.8587 17.1067 15.7027 16.8213C15.0498 15.6057 14.1533 14.5377 13.0693 13.684C12.2186 13.0168 11.2743 12.4786 10.2667 12.0867C10.114 12.0246 9.96062 11.9642 9.80667 11.9053C8.45733 11.372 7.05867 10.8213 5.76 10.0693C5.61604 9.98784 5.47379 9.90338 5.33333 9.816C5.592 9.36267 5.89333 8.92933 6.22667 8.53333C6.71042 7.95513 7.27277 7.44753 7.89733 7.02533C8.56791 6.57699 9.29285 6.21586 10.0547 5.95067C11.6787 5.372 13.624 5.088 15.9987 5.08533C18.376 5.088 20.32 5.372 21.944 5.952C22.7064 6.21628 23.4318 6.57698 24.1027 7.02533C24.7269 7.44747 25.2892 7.95457 25.7733 8.532C26.1067 8.92933 26.4067 9.36267 26.6667 9.816C26.5293 9.90133 26.384 9.988 26.24 10.072C24.9387 10.824 23.5427 11.3747 22.1907 11.9067L21.7307 12.088C20.724 12.4802 19.7806 13.0184 18.9307 13.6853C17.8462 14.5391 16.9497 15.6077 16.2973 16.824C16.1413 17.108 16.048 17.168 15.9987 17.168ZM15.9987 26.5987C13.94 26.596 12.268 26.4267 10.892 26.0827C9.54133 25.7467 8.41867 25.2293 7.45733 24.4987C6.72042 23.9328 6.09168 23.2385 5.60133 22.4493C5.14196 21.713 4.779 20.9207 4.52133 20.092C4.11949 18.804 3.90968 17.4638 3.89867 16.1147C3.89867 15.216 3.96133 14.364 4.07867 13.58C5.55333 14.3747 6.94933 14.7733 8.18533 15.1267L8.472 15.2067C10.192 15.7013 11.5573 16.3493 12.652 17.1907C13.2853 17.6813 13.8387 18.248 14.292 18.876C14.784 19.5533 15.176 20.3267 15.4613 21.176C15.5893 21.5613 15.728 21.8 15.9987 21.8C16.2747 21.8 16.4093 21.56 16.5387 21.176C17.0476 19.5929 18.0277 18.203 19.348 17.192C20.4413 16.3493 21.808 15.7013 23.528 15.2067L23.816 15.1267C25.0507 14.7733 26.4467 14.3747 27.92 13.58C28.04 14.3653 28.1013 15.216 28.1013 16.1133C28.1013 16.724 28.04 18.332 27.4813 20.092C27.2238 20.9206 26.8613 21.7128 26.4027 22.4493C25.9108 23.239 25.2802 23.9333 24.5413 24.4987C23.5773 25.2293 22.4547 25.7467 21.1093 26.0827C19.7293 26.4267 18.0587 26.596 15.9987 26.5987ZM28.9213 7.19067C26.376 4.45733 22.268 3.204 15.9987 3.19733C9.732 3.204 5.624 4.456 3.07867 7.18933C1.18667 9.21733 0 12.024 0 15.832C0 17.9373 0.52 23.2987 4.752 26.0667C7.28533 27.7227 10.5573 28.7947 15.9987 28.8027C21.4427 28.7947 24.7133 27.7227 27.248 26.0667C31.4787 23.2987 32 17.936 32 15.832C32 12.0347 30.804 9.208 28.92 7.188L28.9213 7.19067Z" fill="black"/>
</g>
<defs>
<clipPath id="clip0_605_9">
<rect width="32" height="32" fill="white"/>
</clipPath>
</defs>
</svg>
