<svg width="32" height="32" viewBox="0 0 32 32" fill="none" xmlns="http://www.w3.org/2000/svg">
<g clip-path="url(#clip0_601_24741)">
<path fill-rule="evenodd" clip-rule="evenodd" d="M23.0544 2.52362C27.894 5.06882 31.2 10.1432 31.2 15.9924C31.2 21.8416 27.894 26.932 23.0544 29.4616V27.7224C24.9052 26.6152 26.4708 25.066 27.61 23.2324L23.0544 21.3832V18.5692L28.0524 22.474C29.0964 20.5452 29.6816 18.3476 29.6816 15.992C29.6816 11.028 27.024 6.66522 23.0544 4.26201V2.52362ZM16.016 0.800415C18.5468 0.800415 20.9348 1.41722 23.0544 2.52362V4.26282C21.1088 3.09242 18.8312 2.39722 16.4272 2.31802L18.1668 14.7596L23.0544 18.5696V21.3836L15.984 18.522L8.96119 21.3992V18.6008L13.8804 14.7592L15.6044 2.31762C13.1684 2.39682 10.9068 3.09241 8.96119 4.26201V2.52362C11.0652 1.41722 13.4692 0.800415 16.016 0.800415ZM23.0544 29.4616C20.9348 30.568 18.5464 31.2 16.016 31.2C13.4696 31.2 11.0656 30.568 8.96159 29.4772V27.7224C11.018 28.9708 13.4376 29.6824 16.016 29.6824C18.5784 29.6824 20.9828 28.9708 23.0544 27.7224V29.4616ZM8.96159 29.4772C4.10559 26.932 0.799988 21.8416 0.799988 15.9924C0.799988 10.1432 4.10559 5.06882 8.96159 2.52362V4.26282C4.97559 6.66562 2.31839 11.0128 2.31839 15.9924C2.31839 18.3476 2.91959 20.5772 3.96359 22.5056L8.96159 18.6008V21.3992L4.42199 23.264C5.56079 25.0828 7.11079 26.6156 8.96159 27.7224V29.4772Z" fill="black"/>
</g>
<defs>
<clipPath id="clip0_601_24741">
<rect width="32" height="32" fill="white"/>
</clipPath>
</defs>
</svg>
