<svg width="32" height="15" viewBox="0 0 32 15" fill="none" xmlns="http://www.w3.org/2000/svg">
<g clip-path="url(#clip0_601_956)">
<path d="M15.9999 0.00244141C14.8214 0.00264167 13.6618 0.299743 12.6284 0.866322C11.5949 1.4329 10.7208 2.2507 10.0868 3.24422H0L1.00416 4.24838H9.56285C9.4004 4.6263 9.27151 5.01777 9.17766 5.41827H2.17405L3.16597 6.41018H9.01529C8.99609 6.61238 8.98568 6.81532 8.98409 7.01842C8.98593 7.20598 8.9953 7.39338 9.01217 7.58019H4.33597L5.32788 8.5721H9.16472C9.25366 8.97212 9.37749 9.36358 9.53476 9.74199H6.49777L7.50193 10.7462H10.0663C10.6966 11.7512 11.5716 12.58 12.6093 13.155C13.647 13.7301 14.8136 14.0326 15.9999 14.0343C17.1863 14.0326 18.353 13.7301 19.3907 13.1551C20.4284 12.58 21.3034 11.7512 21.9337 10.7462H24.4981L25.5022 9.74199H22.4652C22.6225 9.36358 22.7463 8.97212 22.8353 8.5721H26.6721L27.664 7.58019H22.9878C23.0047 7.39338 23.0141 7.20598 23.0159 7.01842C23.0144 6.81532 23.004 6.61238 22.9848 6.41018H28.834L29.8259 5.41827H22.8223C22.7285 5.01777 22.5996 4.6263 22.4372 4.24838H30.9958L32 3.24422H21.9132C21.2792 2.25068 20.4051 1.43287 19.3716 0.866292C18.3381 0.299712 17.1785 0.00262189 15.9999 0.00244141ZM15.9999 0.953447C16.7964 0.953446 17.5851 1.11032 18.3209 1.41511C19.0567 1.71991 19.7253 2.16665 20.2885 2.72984C20.8517 3.29302 21.2985 3.96162 21.6032 4.69745C21.908 5.43329 22.0649 6.22195 22.0649 7.01842C22.0649 7.81488 21.908 8.60354 21.6032 9.33938C21.2985 10.0752 20.8517 10.7438 20.2885 11.307C19.7253 11.8702 19.0567 12.3169 18.3209 12.6217C17.5851 12.9265 16.7964 13.0834 15.9999 13.0834C14.3914 13.0834 12.8488 12.4444 11.7114 11.307C10.574 10.1696 9.93497 8.62695 9.93497 7.01842C9.93497 5.40989 10.574 3.86724 11.7114 2.72984C12.8488 1.59243 14.3914 0.953447 15.9999 0.953447ZM11.1752 5.44647V8.59024H11.8309V6.11561L12.5224 8.59024H13.2019L13.8958 6.11561V8.59024H14.5515V5.44647H13.4928L12.8658 7.59094L12.2315 5.44647H11.1752ZM15.2358 5.44647V8.59024H15.9416V5.44647H15.2358ZM16.6187 5.44647V8.59024H17.2744V6.5402L18.6836 8.59024H19.3918V5.44647H18.7361V7.54587L17.3055 5.44647H16.6187ZM20.119 5.44647V8.59024H20.8248V5.44647H20.119Z" fill="#120A08"/>
</g>
<defs>
<clipPath id="clip0_601_956">
<rect width="32" height="14.0367" fill="white"/>
</clipPath>
</defs>
</svg>
