<svg width="32" height="36" viewBox="0 0 32 36" fill="none" xmlns="http://www.w3.org/2000/svg">
<g clip-path="url(#clip0_0_24717)">
<mask id="mask0_0_24717" style="mask-type:alpha" maskUnits="userSpaceOnUse" x="0" y="0" width="32" height="36">
<path d="M32 35.2052H3.05176e-05V0.00518799H32V35.2052Z" fill="black"/>
</mask>
<g mask="url(#mask0_0_24717)">
<path fill-rule="evenodd" clip-rule="evenodd" d="M15.2832 34.788C10.8091 32.7069 6.92314 29.2963 4.34064 25.1857C1.76437 21.0871 0.410447 16.3401 0.0791967 10.2454C-0.0263042 8.30104 -0.0263042 5.87565 0.0786294 2.83201L0.126275 1.44292L1.49722 1.2132C6.32133 0.408329 11.201 -6.10352e-05 16.0002 -6.10352e-05C20.7993 -6.10352e-05 25.6785 0.408329 30.502 1.2132L31.8729 1.44292L31.9212 2.83201C32.0267 5.87622 32.0267 8.3016 31.9206 10.2454C31.5888 16.3401 30.2354 21.0871 27.6592 25.1857C25.0772 29.2963 21.1901 32.7069 16.7166 34.788L16.0002 35.1209L15.2832 34.788Z" fill="black"/>
</g>
<path fill-rule="evenodd" clip-rule="evenodd" d="M16.0001 1.00137C11.162 1.00137 6.14006 1.41303 1.04299 2.28962C0.966894 4.3257 0.880157 7.47287 1.02587 10.1435C1.35038 16.0979 2.66583 20.7195 5.16574 24.6881C7.65814 28.6452 11.518 32.0477 16.0001 34.0685C20.4823 32.0477 24.3417 28.6452 26.8341 24.6881C29.3344 20.7195 30.6494 16.0979 30.9742 10.1435C31.1193 7.47287 31.033 4.3257 30.9569 2.28962C25.8598 1.41303 20.8382 1.00137 16.0001 1.00137ZM16.0001 1.575C20.7693 1.575 25.6118 1.97913 30.3994 2.77675C30.5045 5.79733 30.5044 8.20067 30.4 10.1125C30.0809 15.9654 28.7935 20.5002 26.3475 24.3831C23.9018 28.2657 20.2342 31.4728 16.0001 33.4377C11.7657 31.4728 8.09839 28.2657 5.65274 24.3831C3.20675 20.5002 1.91896 15.9654 1.60024 10.1125C1.49582 8.20067 1.49576 5.79733 1.60087 2.77675C6.38843 1.97913 11.2306 1.575 16.0001 1.575Z" fill="white"/>
<path fill-rule="evenodd" clip-rule="evenodd" d="M5.99387 4.30712C5.94691 4.30597 5.89689 4.30817 5.844 4.31362C5.13559 4.38749 4.4282 4.4688 3.7215 4.558V6.64512C3.844 6.62946 3.96687 6.61447 4.08937 6.5995V5.95375C4.67357 5.88226 5.25877 5.81618 5.844 5.75525C6.26713 5.71133 6.50362 5.53473 6.50362 5.09762V4.86137C6.50362 4.48754 6.3226 4.31518 5.99387 4.30712ZM5.95325 4.639C6.04845 4.62912 6.144 4.70134 6.144 4.797V5.21975C6.144 5.31064 6.04845 5.39753 5.95325 5.40775C5.33151 5.4714 4.71008 5.54155 4.08937 5.61712V4.84875C4.71008 4.77283 5.33151 4.703 5.95325 4.639Z" fill="white"/>
<path fill-rule="evenodd" clip-rule="evenodd" d="M15.3213 3.78952C15.9836 3.78475 16.646 3.78713 17.308 3.79599V4.13233C16.6002 4.12313 15.8922 4.12109 15.1841 4.12688C15.0882 4.1279 14.9923 4.21062 14.9923 4.30628V5.35207C14.9923 5.44772 15.0882 5.54236 15.1841 5.54134C15.8191 5.53589 16.4538 5.53692 17.0889 5.54407V4.97998C16.7203 4.9759 16.3518 4.97386 15.9836 4.9742V4.63752C16.4723 4.63752 16.9609 4.64126 17.4496 4.64841V5.88517C16.763 5.87496 16.0764 5.87224 15.3899 5.87632C14.8872 5.87973 14.6316 5.79326 14.6316 5.30645V4.39684C14.6316 3.94237 14.8599 3.79293 15.3213 3.78952V3.78952Z" fill="white"/>
<path fill-rule="evenodd" clip-rule="evenodd" d="M22.4946 4.00776C22.0987 4.00888 21.9206 4.13381 21.9206 4.54338V5.47538C21.9206 5.97138 22.1761 6.06818 22.6777 6.10188C23.1384 6.1332 23.5984 6.16785 24.0587 6.20563C24.5553 6.24648 24.815 6.16202 24.815 5.69326V4.76126C24.815 4.28364 24.5143 4.15596 24.0587 4.11851C23.5984 4.08038 23.1384 4.04604 22.6777 4.01438C22.6122 4.00996 22.5512 4.0076 22.4946 4.00776ZM22.4727 4.33738C23.0703 4.37653 23.667 4.4215 24.2639 4.47188C24.3594 4.48005 24.455 4.5702 24.455 4.67913V5.71176C24.455 5.80708 24.3594 5.89456 24.2639 5.88638C23.667 5.836 23.0703 5.791 22.4727 5.75151C22.3632 5.74402 22.2809 5.64367 22.2809 5.54801V4.51576C22.2809 4.40648 22.3632 4.32989 22.4727 4.33738Z" fill="white"/>
<path fill-rule="evenodd" clip-rule="evenodd" d="M13.7278 3.81348V5.32326C13.7278 5.80088 13.4763 5.90573 12.9696 5.92139C12.5284 5.935 12.0871 5.95134 11.6459 5.97109C11.1757 5.99219 10.8884 5.903 10.8884 5.43015V3.92037L11.2487 3.90199V5.47543C11.2487 5.57109 11.331 5.64905 11.4401 5.64394C12.0185 5.61705 12.5966 5.59526 13.175 5.57858C13.2849 5.57551 13.3579 5.49177 13.3579 5.39611V3.82267C13.4811 3.81926 13.6043 3.8162 13.7278 3.81348V3.81348Z" fill="white"/>
<path fill-rule="evenodd" clip-rule="evenodd" d="M18.3515 3.81531C19.2401 3.83641 20.1284 3.86978 21.0166 3.91539V4.25173C20.2488 4.21258 19.4807 4.18229 18.7122 4.16118V4.67488C19.3957 4.69394 20.0789 4.71982 20.7617 4.75284V5.08952C20.0789 5.05649 19.3957 5.03028 18.7122 5.01156V5.5753C19.4807 5.59641 20.2488 5.62671 21.0166 5.6662V6.00254C20.1284 5.95726 19.2401 5.9239 18.3515 5.90245V3.81531Z" fill="white"/>
<path fill-rule="evenodd" clip-rule="evenodd" d="M9.98437 3.97162V4.30796C9.21693 4.35528 8.44982 4.41145 7.6834 4.47647V4.99051C8.36519 4.9323 9.04733 4.88157 9.72981 4.838V5.17468C9.04733 5.21825 8.36519 5.26898 7.6834 5.32685V5.89093C8.44982 5.82557 9.21693 5.7694 9.98437 5.72242V6.05876C9.09681 6.11323 8.20993 6.17995 7.32339 6.25859V4.17111C8.20993 4.09247 9.09681 4.02609 9.98437 3.97162Z" fill="white"/>
<path fill-rule="evenodd" clip-rule="evenodd" d="M25.4827 4.24591C26.4157 4.33646 27.3479 4.44063 28.2785 4.55774V4.89442C27.8762 4.8437 27.4732 4.79536 27.0698 4.74974V6.50054C26.9473 6.48659 26.8248 6.47297 26.7016 6.45935V4.70855C26.2959 4.66395 25.8891 4.62208 25.4827 4.58259V4.24591Z" fill="white"/>
<path fill-rule="evenodd" clip-rule="evenodd" d="M13.1388 8.24003C14.8518 8.0899 17.1699 8.04905 19.3842 8.2162C19.5101 8.22573 19.6326 8.25535 19.749 8.30437C20.4744 8.60871 21.7616 9.27458 23.1927 10.0913C23.2559 10.1273 23.3152 10.1696 23.3698 10.2176C23.7489 10.5508 24.7095 11.5313 24.7095 11.5313L24.4099 11.472C24.368 11.4638 24.3287 11.4475 24.2932 11.4237C23.6872 11.0176 22.8024 10.4889 22.0608 10.1161C21.9728 10.0722 21.8776 10.0439 21.7797 10.0337C21.419 9.99526 20.9313 9.96155 20.6123 9.94862C20.455 9.94215 20.3478 9.91594 20.1939 9.83798C19.8998 9.68921 19.1873 9.36683 18.8324 9.23168C18.6805 9.17381 18.6031 9.1602 18.4543 9.16258C17.8445 9.17143 16.4553 9.21568 15.7459 9.2596C15.7213 9.26096 15.6978 9.25992 15.6739 9.25619L15.3357 9.20342C16.2946 9.03866 18.6648 8.82793 19.6459 8.77653L19.2467 8.64342C19.1695 8.61789 19.0893 8.60427 19.0078 8.60223C18.7948 8.59717 18.3212 8.58773 17.7064 8.5869L17.4964 8.58696C16.5652 8.58877 15.3672 8.61156 14.2622 8.69448C14.1656 8.70163 14.0714 8.72478 13.9827 8.76393C13.5364 8.95951 12.448 9.54821 11.3564 10.1529L11.114 10.2874C10.8318 10.4442 10.5526 10.6003 10.2874 10.7489C10.2874 10.7489 10.4236 10.5743 10.4499 10.5403C10.4731 10.5107 10.4802 10.5052 10.5116 10.4848C10.5555 10.4561 10.7053 10.3577 10.8562 10.2578L10.9681 10.1837C11.0587 10.1235 11.1396 10.0695 11.1852 10.0381C11.2078 10.0228 11.2221 10.0119 11.2504 9.99082C11.579 9.74367 12.0977 9.30793 12.4069 9.03797C12.4768 8.97704 12.5362 8.90623 12.585 8.82725C12.685 8.66589 12.7942 8.49091 12.8614 8.39389C12.9187 8.30981 13.0167 8.25091 13.1388 8.24002V8.24003Z" fill="white"/>
<path fill-rule="evenodd" clip-rule="evenodd" d="M13.9687 9.8913C14.008 9.89098 14.0325 9.93317 14.0131 9.96687L13.1852 11.3888C13.1392 11.4726 13.062 11.5349 12.9706 11.5624L11.4183 12.0469C11.2381 12.1013 11.0859 12.1306 10.8982 12.1449C10.5539 12.1708 9.53125 12.2028 9.53125 12.2028L9.55377 12.1544C9.56435 12.1316 9.58312 12.1136 9.60632 12.1037L10.0902 11.8988C10.1264 11.8835 10.1581 11.86 10.1823 11.8297L10.9296 10.9119C10.9696 10.8629 11.0218 10.8159 11.0774 10.7866C11.5712 10.5276 12.4492 10.1384 13.0641 9.93351C13.1221 9.91411 13.2002 9.90185 13.2613 9.90117L13.9687 9.8913Z" fill="white"/>
<path fill-rule="evenodd" clip-rule="evenodd" d="M10.1053 12.4461C10.1378 12.4434 10.1685 12.4615 10.1811 12.4911C10.2238 12.5901 10.2121 12.7008 10.1709 12.7954C10.1548 12.8339 10.1053 12.8713 10.0647 12.8802L9.7252 12.9554C9.70473 12.9598 9.68596 12.9435 9.68733 12.9227L9.71906 12.5251C9.72145 12.4982 9.7426 12.4768 9.76956 12.4747L10.1053 12.4461Z" fill="white"/>
<path fill-rule="evenodd" clip-rule="evenodd" d="M17.6348 10.7671C17.6857 10.7582 17.7379 10.7654 17.7846 10.7875L18.1392 10.9567C18.174 10.9734 18.1996 11.005 18.2088 11.0432C18.2569 11.2454 18.3159 11.5133 18.3555 11.741C18.3716 11.8357 18.3538 11.9324 18.3057 12.0158C18.159 12.2701 17.8577 12.7276 17.6891 12.9734C17.6515 13.0285 17.6471 13.0953 17.6587 13.161C17.7352 13.5824 18.0539 15.0541 18.0539 15.0541L17.8532 14.8719C17.8133 14.8352 17.787 14.7964 17.77 14.7456C17.6273 14.3293 17.3605 13.4595 17.2376 13.0364C17.2178 12.9666 17.2329 12.892 17.2789 12.8365C17.4881 12.5833 17.7928 12.1782 17.9709 11.9215C18.0208 11.8493 18.0371 11.7696 18.0078 11.7101C17.9669 11.6263 17.8979 11.499 17.8317 11.3836C17.814 11.3516 17.7843 11.3278 17.7491 11.3162L17.5086 11.2393C17.4666 11.226 17.4216 11.2267 17.3799 11.2416C16.8558 11.4313 16.1508 11.7046 15.7195 11.883C15.6563 11.9092 15.6304 11.9113 15.554 11.8997C15.4291 11.8813 15.0653 11.8163 14.8868 11.7829C14.8548 11.7768 14.8387 11.7407 14.8551 11.7125L15.0667 11.3468C15.0953 11.2975 15.1428 11.2624 15.1987 11.2498C15.8792 11.0953 16.779 10.9176 17.6348 10.7671V10.7671Z" fill="white"/>
<path fill-rule="evenodd" clip-rule="evenodd" d="M10.2367 11.1502L10.0975 11.3211C10.0897 11.3286 10.0821 11.3358 10.0743 11.3436C9.95179 11.4338 9.43618 11.8277 9.29661 11.938C9.25703 11.9693 9.24133 11.9965 9.23212 12.0459C9.20072 12.2202 9.14852 12.5514 9.13316 12.7349C9.12873 12.7887 9.10552 12.8153 9.05058 12.8374C8.81137 12.9344 8.5278 13.0365 8.29849 13.1281C8.24935 13.1475 8.2357 13.155 8.2067 13.1771C8.18384 13.1948 7.87911 13.4661 7.87911 13.4661C7.87911 13.4661 8.54145 13.3034 8.78442 13.2486C8.84243 13.2357 8.86734 13.2391 8.92091 13.2643C8.97107 13.2874 9.05468 13.3204 9.0987 13.3364C9.16626 13.3613 9.20209 13.3603 9.27682 13.3439C9.55049 13.283 10.0108 13.1741 10.2558 13.1104C10.3831 13.0774 10.4527 13.043 10.5606 12.9678C10.6779 12.8864 10.9752 12.6641 10.9752 12.6641C10.9752 12.6641 10.9697 12.7033 10.9656 12.725C10.9625 12.7438 10.9557 12.7543 10.9434 12.769C10.883 12.8415 10.7772 12.9596 10.7247 13.0137C10.6042 13.138 10.5322 13.1822 10.3811 13.2452C9.68494 13.5346 8.49539 13.9839 7.60305 14.292C7.5447 14.3124 7.51945 14.3291 7.47611 14.3734C7.42902 14.421 7.36623 14.4905 7.36623 14.4905C7.36623 14.4905 8.09375 14.5433 8.3159 14.5688C8.3879 14.577 8.43943 14.6004 8.49436 14.6478C8.67693 14.8044 9.28126 15.425 9.46212 15.6404C9.46212 15.6404 7.74398 15.9254 6.94787 16.1225C6.8496 16.1467 6.80046 16.209 6.77828 16.2876C6.71242 16.5184 6.55716 17.2605 6.55716 17.2605C6.55716 17.2605 6.50188 17.2428 6.42476 17.1986C6.37186 17.1683 6.34491 17.1431 6.2869 17.0818C6.09853 16.8833 5.78903 16.5034 5.64025 16.2832C5.59657 16.2181 5.57814 16.1354 5.63274 16.069C5.79415 15.8709 6.11833 15.5094 6.29713 15.3235C6.31624 15.3034 6.34047 15.2684 6.36606 15.218C6.42623 15.0988 6.50554 14.7968 6.53317 14.6878L6.54199 14.6526L6.54316 14.6478C6.54316 14.6478 6.54145 14.6488 6.53837 14.6508L6.50571 14.6712C6.46145 14.699 6.38994 14.7439 6.35923 14.7632C6.31316 14.7924 6.30054 14.805 6.28143 14.8452C6.25242 14.9058 6.20158 15.0015 6.16302 15.0678C6.15039 15.0896 6.11661 15.1233 6.09853 15.1373C5.87024 15.3112 5.61806 15.4981 5.43857 15.6241C5.42629 15.6326 5.41059 15.6289 5.40001 15.6186C5.37715 15.5958 5.28126 15.4872 5.2642 15.4617C5.24987 15.4403 5.24336 15.4202 5.24336 15.3943C5.24304 15.349 5.24748 15.2694 5.25191 15.2101C5.25737 15.14 5.27751 15.1067 5.36316 15.0181C5.45904 14.9191 5.56346 14.8149 5.67334 14.708C5.94258 14.482 6.62232 13.9318 7.83611 13.0678C7.85897 13.0515 7.87979 13.0324 7.89651 13.0096C8.02413 12.8381 8.38618 12.3696 8.47559 12.2583C8.48822 12.2427 8.50221 12.228 8.51824 12.2154C8.66122 12.1027 8.73186 12.0541 8.87688 11.9628C9.21505 11.7504 9.86989 11.363 10.2367 11.1502L10.2367 11.1502Z" fill="white"/>
<path fill-rule="evenodd" clip-rule="evenodd" d="M7.49252 16.9881L7.34272 18.0193L6.83325 17.4229C6.92607 17.2223 7.19735 17.0331 7.49252 16.9881Z" fill="white"/>
<path fill-rule="evenodd" clip-rule="evenodd" d="M10.8479 17.5352C10.594 17.9519 10.2907 18.3944 10.0614 18.6708C10.0313 18.7069 9.9914 18.7348 9.94601 18.7519C9.6952 18.8455 9.27719 18.9864 8.96939 19.08L10.8479 17.5352Z" fill="white"/>
<path fill-rule="evenodd" clip-rule="evenodd" d="M21.6789 10.8405C21.8133 10.7912 21.9608 10.7946 22.0928 10.8501C23.1172 11.279 24.8398 12.288 25.7973 12.9988C25.8898 13.0676 25.9266 13.1149 25.9509 13.2259C26.1757 14.2458 26.261 15.8223 26.1194 17.1496C26.1092 17.2449 26.0901 17.3021 26.0403 17.4039C25.4335 18.6413 24.7507 19.8059 24.0321 20.7043L24.0335 20.6896C24.0429 20.594 24.0944 20.0545 24.0972 19.7627C24.0976 19.7297 24.1129 19.6994 24.1392 19.6793C24.2726 19.5758 24.4559 19.4287 24.5596 19.3392C24.6101 19.2956 24.6381 19.263 24.6644 19.2207C24.9572 18.7489 25.4806 17.761 25.6915 17.1666C25.743 17.0216 25.7635 16.8681 25.7509 16.7145C25.6833 15.8863 25.553 14.7387 25.3588 13.9898C25.3257 13.8621 25.2411 13.7542 25.1233 13.694C24.9558 13.6082 24.6272 13.4587 23.8788 13.1595C23.7751 13.118 23.6782 13.0604 23.5929 12.9889C23.1022 12.5777 22.3351 11.9612 21.8577 11.6065C21.7181 11.5026 21.54 11.4649 21.3701 11.5033C21.0223 11.582 20.5798 11.6916 20.3306 11.759C20.246 11.7818 20.2126 11.7838 20.1252 11.7736C20.0797 11.7684 20.0209 11.7626 19.9592 11.757L19.8656 11.7488C19.7568 11.7395 19.6548 11.7317 19.6148 11.7287L19.597 11.7273C20.4088 11.3471 21.1899 11.0189 21.6789 10.8405L21.6789 10.8405Z" fill="white"/>
<path fill-rule="evenodd" clip-rule="evenodd" d="M9.59199 16.0728C9.67252 16.0469 9.75817 16.0438 9.84007 16.0636C10.2093 16.1521 10.9907 16.3431 11.5814 16.4939C11.6643 16.515 11.7677 16.5922 11.8117 16.6654L11.9404 16.8789C11.9854 16.9538 11.9885 17.0457 11.9486 17.1233C11.8412 17.3309 11.6881 17.6121 11.5262 17.902L11.4037 18.12C11.1782 18.5191 10.9537 18.9041 10.8262 19.1066C10.7423 19.2404 10.6955 19.2996 10.5461 19.3524C9.96496 19.5563 9.24324 19.8001 8.8143 19.9386C8.72661 19.9669 8.69692 20.02 8.71398 20.117C8.74469 20.2937 8.84365 20.8935 8.88153 21.0685C8.89552 21.1332 8.94739 21.1846 9.04362 21.1662C9.29716 21.1182 9.97213 20.9534 9.97213 20.9534C9.97213 20.9534 9.77318 21.1369 9.65409 21.2452C9.63225 21.2656 9.607 21.2806 9.57868 21.2898C9.39475 21.351 8.94568 21.4767 8.80577 21.5073C8.69658 21.5308 8.62697 21.4879 8.59898 21.3647C8.59898 21.3647 8.40755 20.5517 8.33828 20.2753C8.32736 20.2331 8.31644 20.1967 8.30313 20.1551C8.25126 19.9951 8.12671 19.6806 8.05641 19.5158C8.04822 19.4968 8.04413 19.4763 8.04445 19.4552C8.04651 19.267 8.08132 18.8469 8.08132 18.8469C8.08132 18.8469 8.49456 19.2333 8.69453 19.3728C8.73957 19.4045 8.76653 19.411 8.82181 19.397C9.09651 19.3265 9.72814 19.1182 10.0748 18.9888C10.154 18.9592 10.2233 18.9095 10.2772 18.8445C10.6358 18.4125 11.0856 17.7405 11.3453 17.2336C11.3811 17.1638 11.3879 17.0838 11.3654 17.0089L11.3094 16.8251C11.2931 16.7713 11.2361 16.7107 11.1835 16.6906C10.5724 16.4588 10.0905 16.2865 9.52442 16.0942L9.59199 16.0728Z" fill="white"/>
<path fill-rule="evenodd" clip-rule="evenodd" d="M20.5431 13.9934L20.7543 14.085C20.8167 14.1119 20.8737 14.1514 20.9208 14.2004C22.2158 15.5485 23.2515 16.9463 23.4589 17.3146C23.4989 17.3854 23.5262 17.4562 23.5361 17.5373C23.7688 19.5032 23.5688 21.5859 23.0935 23.3977C23.0505 23.5611 23.0024 23.6448 22.8447 23.7629C22.3372 24.1437 21.5797 24.7508 20.8263 25.3697L20.5888 25.5653C19.6813 26.3148 18.8192 27.0485 18.4533 27.3861C18.3615 27.4712 18.2813 27.5672 18.2158 27.6737C18.0443 27.9519 17.7823 28.4305 17.6537 28.6681L17.6178 28.7346C17.592 28.7825 17.577 28.8104 17.577 28.8104C17.4064 28.439 17.0345 27.5328 16.9068 27.1665C16.8652 27.047 16.8577 26.9844 16.9017 26.8244C17.1099 26.0649 18.0937 23.8569 18.2851 23.4576L18.2854 23.621C18.2854 23.6448 18.2817 23.6683 18.2741 23.6908C18.1878 23.9519 17.6589 25.6921 17.5514 26.4468C17.5275 26.6147 17.5296 26.66 17.5514 26.8247C17.5985 27.1771 17.8097 27.8232 17.8097 27.8232C17.8097 27.8232 17.935 27.5624 18.0517 27.3861C18.109 27.2996 18.1435 27.2581 18.237 27.1655C18.7099 26.6989 19.5168 25.9777 20.3572 25.2524L20.6547 24.9967C21.3003 24.444 21.9448 23.9062 22.454 23.4954C22.5864 23.3885 22.6359 23.317 22.6652 23.1141C22.8112 22.1146 22.8536 20.3206 22.7655 19.015C22.7488 18.7686 22.6686 18.5303 22.5294 18.3257C22.21 17.8549 21.8281 17.4093 21.2491 16.837C21.1665 16.755 21.1102 16.6501 21.089 16.5357C20.9201 15.637 20.543 13.9934 20.543 13.9934H20.5431Z" fill="white"/>
<path fill-rule="evenodd" clip-rule="evenodd" d="M13.725 14.6477C13.725 14.6477 13.8427 15.0279 13.9562 15.4408L13.9958 15.5873C14.0675 15.8563 14.1315 16.1219 14.1546 16.2899C14.1768 16.4516 14.173 16.4952 14.1154 16.6501C13.9755 17.0211 13.7182 17.6179 13.4437 18.228L13.3253 18.4897C12.9885 19.2299 12.6475 19.945 12.4819 20.2545C12.4003 20.407 12.3235 20.5064 12.17 20.662C11.8195 21.0177 11.1486 21.6901 10.7334 22.0662C10.5825 22.2031 10.5419 22.3199 10.5112 22.4969C10.4617 22.7811 10.4126 23.2662 10.3989 23.5168C10.387 23.737 10.4228 23.8402 10.546 24.0584C11.278 25.3605 13.7216 28.3563 14.4177 28.9854C14.4682 29.031 14.5051 29.0616 14.6115 29.1321C14.7139 29.2002 15.0476 29.416 15.0476 29.416C15.0609 29.4252 15.0722 29.4374 15.0807 29.4514L15.2015 29.6635C15.2015 29.6635 15.1902 29.6579 15.1699 29.6478L15.1177 29.622C15.0758 29.6011 15.0203 29.5736 14.9565 29.5418L14.8014 29.4644C14.5636 29.3454 14.2801 29.2022 14.1311 29.1222C14.0696 29.0892 14.012 29.0504 13.9584 29.0058C13.1432 28.3304 10.645 25.4147 9.91029 24.1973C9.72705 23.8933 9.70828 23.7949 9.73285 23.5073C9.77891 22.9718 9.85023 22.2984 9.91268 22.0033C9.95056 21.8252 9.9898 21.7207 10.1266 21.5634C10.5865 21.0355 11.1473 20.3386 11.6939 19.6234L11.886 19.3705C12.7143 18.2735 13.4773 17.1754 13.7622 16.616C13.8274 16.4887 13.8328 16.4445 13.8342 16.3243C13.8379 15.9757 13.7264 15.2969 13.697 15.1253C13.6926 15.0984 13.6912 15.0712 13.6936 15.044L13.725 14.6477Z" fill="white"/>
<path fill-rule="evenodd" clip-rule="evenodd" d="M15.9584 18.9626C15.9584 18.9626 16.0526 19.5199 16.0812 19.6816C16.0973 19.7731 16.1007 19.7976 16.0775 19.8875C16.0022 20.1765 15.6545 21.6997 15.3762 23.259L15.3329 23.5054C15.2191 24.1621 15.1209 24.814 15.0637 25.3718C15.0313 25.6887 15.0418 25.7646 15.1258 26.0458C15.3636 26.8403 16.2433 28.9163 16.4122 29.2948C16.431 29.3367 16.4423 29.3806 16.4477 29.4259L16.5112 29.9154C16.2293 29.4909 14.6979 26.6834 14.0963 25.1287C14.0253 24.9455 14.0116 24.8553 14.0901 24.5187C14.5085 22.7324 15.6404 19.6972 15.9584 18.9626H15.9584Z" fill="white"/>
</g>
<defs>
<clipPath id="clip0_0_24717">
<rect width="32" height="35.1209" fill="white"/>
</clipPath>
</defs>
</svg>
