<svg width="32" height="32" viewBox="0 0 32 32" fill="none" xmlns="http://www.w3.org/2000/svg">
<path fill-rule="evenodd" clip-rule="evenodd" d="M29.5385 16C29.5385 17.7779 29.1883 19.5384 28.5079 21.1809C27.8275 22.8235 26.8303 24.316 25.5731 25.5731C24.316 26.8303 22.8235 27.8275 21.181 28.5079C19.5384 29.1883 17.7779 29.5385 16 29.5385C14.2221 29.5385 12.4616 29.1883 10.8191 28.5079C9.1765 27.8275 7.68403 26.8303 6.42687 25.5731C5.16971 24.316 4.17247 22.8235 3.4921 21.1809C2.81173 19.5384 2.46155 17.7779 2.46155 16C2.46155 14.2221 2.81173 12.4616 3.4921 10.819C4.17247 9.17649 5.16971 7.68402 6.42687 6.42686C7.68403 5.16969 9.1765 4.17246 10.8191 3.49209C12.4616 2.81172 14.2221 2.46153 16 2.46153C17.7779 2.46153 19.5384 2.81172 21.181 3.49209C22.8235 4.17246 24.316 5.16969 25.5731 6.42686C26.8303 7.68402 27.8275 9.17649 28.5079 10.819C29.1883 12.4616 29.5385 14.2221 29.5385 16Z" fill="#1E1D51"/>
<path fill-rule="evenodd" clip-rule="evenodd" d="M15.9473 6.49765C14.791 6.5194 13.6818 6.72518 12.6505 7.08514V14.5174H15.9473V6.49765ZM9.9506 8.71261C8.23138 10.1718 7.01901 12.1842 6.60677 14.4643H9.9506V8.71261ZM12.5339 17.1543V24.9243C13.5922 25.2836 14.7305 25.4891 15.9172 25.5108V17.1543H12.5339ZM6.59595 17.1754C6.93867 19.6035 8.17674 21.7512 9.97177 23.2865V17.1754H6.59595Z" fill="url(#paint0_linear_601_54)"/>
<path fill-rule="evenodd" clip-rule="evenodd" d="M16.1871 6.59337C21.2956 6.69325 25.4068 10.8679 25.4068 16.0002C25.4068 21.1325 21.2956 25.3049 16.1871 25.4048V6.59337Z" fill="url(#paint1_linear_601_54)"/>
<path fill-rule="evenodd" clip-rule="evenodd" d="M12.4049 7.20317V14.7281H15.8958V16.9495H12.4049V24.8167C11.5978 24.4835 10.8462 24.0446 10.168 23.5167V16.9495H6.5312C6.50078 16.6407 6.48511 16.3276 6.48511 16.0109C6.48511 15.5758 6.51465 15.1477 6.57153 14.7281C6.57587 14.6961 6.58031 14.6642 6.58497 14.6323C6.58033 14.6642 6.57586 14.6961 6.57153 14.7281H10.168V8.50356C10.8462 7.97554 11.5978 7.53643 12.4049 7.20317Z" fill="url(#paint2_linear_601_54)"/>
<path fill-rule="evenodd" clip-rule="evenodd" d="M9.99903 8.75423C9.97114 8.77738 9.94339 8.80085 9.91577 8.82431C9.9435 8.80078 9.97102 8.77745 9.99903 8.75423Z" fill="#FFF38D"/>
<path fill-rule="evenodd" clip-rule="evenodd" d="M6.64624 17.0209C6.64928 17.0492 6.65237 17.0774 6.65565 17.1056C6.65235 17.0775 6.64929 17.0492 6.64624 17.0209Z" fill="#FFF38D"/>
<path fill-rule="evenodd" clip-rule="evenodd" d="M9.91577 23.1747C9.94339 23.1982 9.97114 23.2217 9.99903 23.2448C9.97102 23.2216 9.9435 23.1983 9.91577 23.1747Z" fill="#FFF38D"/>
<path d="M21.8047 9.76131H18.5686V10.2129H21.8047V9.76131Z" fill="#9D0D16"/>
<path fill-rule="evenodd" clip-rule="evenodd" d="M16.0395 1.77564C11.1145 1.7678 6.31922 4.31952 3.68157 8.88805C-0.244223 15.6877 2.08839 24.3926 8.88806 28.3184C15.6877 32.2442 24.3927 29.9116 28.3184 23.1119C32.2442 16.3123 29.9116 7.60736 23.112 3.68156C20.8808 2.39341 18.4448 1.77947 16.0395 1.77564ZM16 2.46143C23.4732 2.46143 29.5386 8.52677 29.5386 16C29.5386 23.4732 23.4732 29.5386 16 29.5386C8.52678 29.5386 2.46144 23.4732 2.46144 16C2.46144 8.52677 8.52678 2.46143 16 2.46143ZM15.1849 2.93556V5.74177H16.04V4.79633L16.7305 5.74177L17.8556 5.9064L16.8805 4.64629C17.0945 4.60181 17.4958 4.37464 17.4958 3.89605C17.4958 3.17956 16.8506 2.95061 16.4454 2.95061L15.1849 2.93556ZM16.2653 3.5508C16.4979 3.5508 16.6628 3.70844 16.6703 3.881C16.6778 4.05356 16.5584 4.24083 16.2954 4.24083H16.0249L16.0104 3.56585L16.2653 3.5508ZM20.2963 3.71026C20.2812 3.71016 20.2658 3.71042 20.2507 3.71073C19.513 3.72575 18.8892 4.17305 18.7399 4.90358C18.5912 5.63115 19.252 6.49212 20.0597 6.67545C20.9361 6.87436 21.754 6.45823 21.9384 5.51364C22.0963 4.70478 21.5018 3.91057 20.619 3.74224C20.5104 3.72153 20.4025 3.71091 20.2963 3.71026ZM9.94827 4.45108L9.18298 4.85607L9.54281 8.02211L10.3533 7.42192L10.2484 6.94215L11.1336 6.41675L11.5386 6.71684L12.469 6.34196L9.94827 4.45108ZM20.3161 4.48589C20.3681 4.48604 20.4209 4.49079 20.4741 4.50094C20.9001 4.58216 21.1704 4.95041 21.096 5.34102C21.0215 5.73162 20.6301 5.9975 20.2041 5.91628C19.7782 5.83506 19.568 5.42259 19.6425 5.03199C19.7077 4.69021 19.952 4.48488 20.3161 4.48589ZM9.97837 5.45626L10.6232 5.95155L10.1581 6.22155L9.97837 5.45626ZM24.2479 5.86171L21.8471 7.52728L22.5522 8.08232L23.7079 7.18203L23.1223 8.63735L23.4224 8.92239L24.8932 8.3222L24.008 9.52258L24.548 10.2879L26.2437 7.85701L25.7032 7.21214L24.3227 7.76717L24.8782 6.37159L24.2479 5.86171ZM16 6.21637C10.6015 6.21637 6.21591 10.602 6.21591 16.0005C6.21591 21.399 10.6015 25.7841 16 25.7841C21.3985 25.7841 25.7841 21.399 25.7841 16.0005C25.7841 10.602 21.3985 6.21637 16 6.21637ZM7.03717 6.53669L5.8669 7.88711L7.90735 9.70273L8.4779 9.04281L7.69757 8.35231L8.26765 7.73707L7.77235 7.28693L7.20227 7.91722L6.91723 7.64723L7.53247 6.97178L7.03717 6.53669ZM15.8109 6.59361V14.3584H12.7672V7.16228C13.7193 6.81375 14.7433 6.61467 15.8109 6.59361ZM16.1872 6.59361C19.7699 6.66365 22.862 8.73806 24.3895 11.7413C24.3697 11.7149 24.3497 11.6891 24.3293 11.6637C23.955 11.1988 23.4835 10.8904 23.0819 10.6322C23.0499 10.6117 23.0125 10.6014 22.9746 10.6025C22.9161 10.6042 22.8616 10.6331 22.8274 10.6806C22.7339 10.8101 22.5575 10.9177 22.3274 10.9177H20.5941C20.5071 10.9177 20.4245 10.9414 20.3533 10.9929C20.282 11.0445 20.2187 11.1368 20.2187 11.246V11.4436C20.2179 11.4447 20.2163 11.4477 20.2089 11.4534C20.1919 11.4665 20.1586 11.4802 20.1214 11.4802H18.628L18.6294 11.3556V11.3542V11.3532C18.6294 11.1259 18.5134 10.9193 18.3344 10.7888L18.3316 10.7865L18.3293 10.785L17.6764 10.3424L17.6755 10.3415L17.6745 10.341C17.5706 10.2724 17.4544 10.2399 17.3448 10.2422C17.3082 10.243 17.2724 10.2479 17.238 10.2564C17.1003 10.2901 16.9882 10.3771 16.9158 10.4882C16.771 10.7105 16.8043 11.0619 17.0828 11.2611L17.389 11.4953L17.3914 11.4972L17.3937 11.4986C17.4581 11.5447 17.4939 11.6004 17.4939 11.6157L17.4864 12.1119V12.1134V12.1148C17.4864 12.1208 17.4855 12.1223 17.485 12.1247C17.4764 12.1246 17.4599 12.1227 17.4257 12.1115C17.3533 12.0877 17.2983 12.0571 17.2131 12.0249C17.1278 11.9927 17.0182 11.9671 16.8772 11.9671C16.629 11.9671 16.425 12.0791 16.2973 12.2281C16.2525 12.2803 16.216 12.3363 16.1872 12.3942V6.59361ZM12.3909 7.3095V14.7347H15.8109V16.9266H12.3909V24.6896C11.6002 24.3609 10.8638 23.9277 10.1994 23.4069V16.9266H6.63642C6.60662 16.6219 6.59126 16.313 6.59126 16.0005C6.59126 15.5712 6.6202 15.1488 6.67593 14.7347H10.1994V8.59266C10.8638 8.07164 11.6002 7.63835 12.3909 7.3095ZM18.7686 8.75588C18.6149 8.75588 18.4901 8.88063 18.4901 9.03434C18.4901 9.18805 18.6149 9.3128 18.7686 9.3128C18.9223 9.3128 19.047 9.18805 19.047 9.03434C19.047 8.88063 18.9223 8.75588 18.7686 8.75588ZM19.4779 8.75588C19.3242 8.75588 19.1994 8.88063 19.1994 9.03434C19.1994 9.18805 19.3242 9.3128 19.4779 9.3128C19.6316 9.3128 19.7564 9.18805 19.7564 9.03434C19.7564 8.88063 19.6316 8.75588 19.4779 8.75588ZM20.1867 8.75588C20.033 8.75588 19.9083 8.88063 19.9083 9.03434C19.9083 9.18805 20.033 9.3128 20.1867 9.3128C20.3405 9.3128 20.4652 9.18805 20.4652 9.03434C20.4652 8.88063 20.3405 8.75588 20.1867 8.75588ZM20.8956 8.75588C20.7419 8.75588 20.6171 8.88063 20.6171 9.03434C20.6171 9.18805 20.7419 9.3128 20.8956 9.3128C21.0493 9.3128 21.174 9.18805 21.174 9.03434C21.174 8.88063 21.0493 8.75588 20.8956 8.75588ZM21.6049 8.75588C21.4512 8.75588 21.3264 8.88063 21.3264 9.03434C21.3264 9.18805 21.4512 9.3128 21.6049 9.3128C21.7586 9.3128 21.8834 9.18805 21.8834 9.03434C21.8834 8.88063 21.7586 8.75588 21.6049 8.75588ZM9.82315 8.90405V14.3584H6.73425C7.1151 12.1962 8.23486 10.2879 9.82315 8.90405ZM18.5687 9.48354V9.93509H21.8048V9.48354H18.5687ZM18.5687 10.0913V10.5428H21.8048V10.0913H18.5687ZM27.579 10.0931L25.0282 11.1284L25.7484 12.809L26.4233 12.524L26.0485 11.6684L26.3636 11.5183L26.7239 12.3438L27.3387 12.0884L26.9939 11.2935L27.294 11.1585L27.6538 12.0136L28.2841 11.7587L27.579 10.0931ZM4.27612 10.4083L3.91629 11.2032L6.40688 12.3589L7.20227 10.738L6.58703 10.4229L6.10678 11.2634L4.27612 10.4083ZM17.3556 10.6176C17.3853 10.6159 17.4199 10.6236 17.4671 10.6548L18.1181 11.0964C18.1992 11.1556 18.2531 11.265 18.2531 11.3532L18.2455 11.9633V11.9643V11.9657C18.2455 12.2059 18.3671 12.4107 18.524 12.5536C18.6165 12.6379 18.7225 12.7044 18.8359 12.7451C18.7225 12.7857 18.6165 12.8522 18.524 12.9365C18.3671 13.0795 18.2455 13.2842 18.2455 13.5245V13.5259V13.5268L18.2531 14.1392C18.2531 14.2275 18.1936 14.3383 18.1124 14.3975L17.4652 14.8363C17.4023 14.8778 17.3638 14.8772 17.3274 14.8683C17.2909 14.8594 17.2552 14.8335 17.231 14.7963C17.1825 14.722 17.1615 14.6354 17.3015 14.5353L17.3039 14.5334L17.3062 14.5315L17.6176 14.294C17.7229 14.2186 17.8702 14.092 17.8702 13.8744V13.873V13.8716L17.8627 13.3725C17.8627 13.2661 17.8244 13.1459 17.7168 13.0644C17.6093 12.983 17.4556 12.973 17.3086 13.0212C17.2036 13.0556 17.135 13.0926 17.08 13.1134C17.025 13.1341 16.9784 13.1468 16.8772 13.1468C16.7354 13.1468 16.6484 13.0934 16.5828 13.0169C16.5172 12.9404 16.4835 12.8339 16.4835 12.7639V12.7262C16.4835 12.6563 16.5172 12.5497 16.5828 12.4732C16.6484 12.3967 16.7354 12.3434 16.8772 12.3434C16.9784 12.3434 17.025 12.356 17.08 12.3768C17.135 12.3975 17.2036 12.4345 17.3086 12.469C17.4556 12.5172 17.6093 12.5071 17.7168 12.4257C17.8244 12.3443 17.8627 12.2212 17.8627 12.1148L17.8702 11.6185V11.6171V11.6157C17.8702 11.3981 17.7182 11.2682 17.6129 11.1929L17.3062 10.9586L17.3039 10.9567L17.3015 10.9548C17.1615 10.8547 17.1825 10.7681 17.231 10.6938C17.2552 10.6566 17.2909 10.6308 17.3274 10.6218C17.3365 10.6196 17.3457 10.6182 17.3556 10.6176ZM23.0104 11.0358C23.3705 11.2711 23.744 11.5369 24.0362 11.8998C24.3642 12.3072 24.5964 12.8313 24.5964 13.604C24.5964 15.0556 23.2408 16.2215 21.937 16.2215H18.786C18.6964 16.2215 18.6049 16.2626 18.5494 16.326C18.4939 16.3894 18.4717 16.4659 18.4723 16.539C18.4729 16.6122 18.4964 16.687 18.5513 16.7493C18.6061 16.8116 18.6963 16.8532 18.786 16.8532H21.8622C22.9682 16.8532 23.5579 17.5651 23.5579 18.4055C23.5579 19.2244 22.9454 19.9944 21.8697 19.9944H18.6999C18.6231 19.9944 18.5415 20.0292 18.4911 20.0851C18.4407 20.1411 18.4196 20.2092 18.42 20.2742C18.4204 20.3393 18.4416 20.4063 18.4915 20.4614C18.5414 20.5166 18.6228 20.5517 18.6999 20.5517H21.0593C21.5671 20.5517 21.9991 21.0466 21.9991 21.5193C21.9991 21.759 21.9309 21.9802 21.7803 22.1411C21.6298 22.302 21.3891 22.4186 20.9845 22.4186H19.5696C19.5132 22.4186 19.4539 22.431 19.3994 22.4704C19.3448 22.5098 19.3001 22.585 19.3025 22.6632C19.3048 22.7414 19.3498 22.8084 19.4022 22.8457C19.4546 22.883 19.513 22.8965 19.5696 22.8965H20.508C20.6404 22.8965 20.7383 22.9544 20.8156 23.0485C20.893 23.1425 20.9379 23.2743 20.9379 23.3796C20.9379 23.5107 20.8895 23.632 20.8039 23.7079C20.7483 23.7571 20.6716 23.7913 20.5663 23.7996C20.5715 23.7454 20.5724 23.684 20.5362 23.6105C20.4933 23.5233 20.3736 23.4539 20.2719 23.4539H19.7089C19.5128 23.4539 19.2963 23.38 19.1364 23.2404C18.9765 23.1008 18.8669 22.9029 18.8669 22.6181C18.8669 22.3561 18.9764 22.1694 19.1317 22.0353C19.287 21.9012 19.4934 21.8311 19.6454 21.8311H21.0292C21.0916 21.8311 21.1525 21.8204 21.2107 21.785C21.2689 21.7497 21.3289 21.6753 21.3288 21.5828C21.3287 21.4902 21.2684 21.4158 21.2103 21.3805C21.1521 21.3453 21.0916 21.3349 21.0292 21.3349H18.8613C18.0271 21.3349 17.5626 20.7446 17.5626 20.1082C17.5626 19.5404 18.0489 18.8674 18.786 18.8674H22.0122C22.1001 18.8674 22.1904 18.8264 22.2441 18.7639C22.2978 18.7014 22.319 18.627 22.3184 18.556C22.3179 18.485 22.2959 18.412 22.2427 18.3504C22.1895 18.2889 22.1003 18.2474 22.0122 18.2474H18.7263C17.8076 18.2474 17.0809 17.5662 17.0809 16.5376C17.0809 15.6784 17.784 14.7973 18.8236 14.7973H21.802C21.9644 14.7973 22.1101 14.7242 22.1994 14.6176C22.2888 14.511 22.3286 14.3796 22.3293 14.2502C22.3299 14.1209 22.2914 13.9883 22.2018 13.881C22.1122 13.7737 21.9654 13.7008 21.802 13.7008H18.6242L18.6218 13.5226C18.6218 13.4125 18.6816 13.3019 18.7775 13.2145C18.8734 13.1271 19.0024 13.0771 19.0814 13.0771H20.8622C20.9311 13.0771 20.9993 13.0612 21.0663 13.0151C21.1334 12.9689 21.1957 12.8694 21.1957 12.7451C21.1957 12.617 21.1576 12.5523 21.0663 12.4751C20.9993 12.4289 20.9311 12.413 20.8622 12.413H19.0814C19.0025 12.413 18.8734 12.363 18.7775 12.2756C18.6816 12.1883 18.6218 12.0757 18.6218 11.9657L18.6232 11.8565H20.7968C20.9171 11.8565 21.0269 11.818 21.1134 11.7516C21.1998 11.6853 21.2705 11.5836 21.2705 11.4553V11.294H22.3274C22.6016 11.294 22.8398 11.1918 23.0104 11.0358ZM24.928 13.0292C25.2387 13.9632 25.4069 14.9623 25.4069 16.0005C25.4069 19.2868 23.7216 22.1793 21.1679 23.8612C21.2676 23.7194 21.3142 23.5484 21.3142 23.3796C21.3142 23.1784 21.242 22.9745 21.1063 22.8095C21.1009 22.803 21.0945 22.7971 21.0889 22.7907C21.5169 22.77 21.8428 22.6252 22.055 22.3984C22.2845 22.1533 22.3754 21.8312 22.3754 21.5193C22.3754 21.0585 22.1174 20.6152 21.7267 20.3707H21.8697C23.1303 20.3707 23.9342 19.4184 23.9342 18.4055C23.9342 17.5467 23.3755 16.7773 22.4464 16.548C23.7805 16.2974 24.9727 15.0969 24.9727 13.604C24.9727 13.3996 24.9569 13.2084 24.928 13.0292ZM16.1872 13.096C16.216 13.1539 16.2525 13.2098 16.2973 13.262C16.425 13.411 16.629 13.5231 16.8772 13.5231C17.0182 13.5231 17.1278 13.4974 17.2131 13.4652C17.2983 13.433 17.3533 13.4024 17.4257 13.3786C17.4599 13.3674 17.4764 13.3655 17.485 13.3655C17.4855 13.3678 17.4864 13.3695 17.4864 13.3754V13.3768V13.3782L17.4939 13.8772C17.4939 13.8926 17.4581 13.9454 17.3937 13.9915L17.3914 13.9929L17.389 13.9948L17.0781 14.2328C16.7996 14.432 16.771 14.7796 16.9158 15.0019C16.9774 15.0965 17.0679 15.1733 17.1783 15.215C16.8769 15.5923 16.7046 16.0637 16.7046 16.5376C16.7046 17.5828 17.3824 18.3751 18.2813 18.5739C17.608 18.8039 17.1863 19.4764 17.1863 20.1082C17.1863 20.9365 17.8423 21.7112 18.8613 21.7112H18.9351C18.9186 21.7241 18.9017 21.7364 18.8857 21.7502C18.6599 21.9452 18.4906 22.2458 18.4906 22.6181C18.4906 23.005 18.6542 23.3194 18.8885 23.524C19.1229 23.7285 19.4213 23.8302 19.7089 23.8302H20.1802C20.1704 23.8646 20.1595 23.8965 20.1595 23.8965C20.1364 23.9488 20.1383 24.0086 20.1646 24.0593C20.191 24.1099 20.2389 24.146 20.2949 24.1571C20.4296 24.1838 20.5569 24.1856 20.6722 24.166C19.3462 24.9263 17.8175 25.3731 16.1872 25.405V13.096ZM6.04705 13.4238L3.1209 14.3843L3.016 15.2545L5.79211 16.7549L5.77706 15.7498L5.35749 15.5555L5.42052 14.5221L5.91205 14.3993L6.04705 13.4238ZM27.564 13.5141C26.5846 13.5141 26.0936 14.3167 26.0936 15.1195C26.0936 15.9222 26.6744 16.7253 27.564 16.7253C28.4531 16.7253 29.0494 15.9973 29.0494 15.1195C29.0494 14.2567 28.5284 13.5141 27.564 13.5141ZM18.6284 14.0771H21.802C21.8663 14.0771 21.8899 14.0946 21.913 14.1223C21.9361 14.15 21.9532 14.1977 21.953 14.2484C21.9527 14.2991 21.9349 14.3474 21.9111 14.3758C21.8873 14.4043 21.8635 14.421 21.802 14.421H18.8236C18.7329 14.421 18.6443 14.4268 18.5579 14.4374C18.6035 14.3456 18.6294 14.2436 18.6294 14.1369V14.1359V14.1345L18.6284 14.0771ZM27.5828 14.3843C28.0145 14.3843 28.2662 14.7874 28.2662 15.1195C28.2662 15.444 28.0052 15.8547 27.5828 15.8547C27.1602 15.8547 26.9144 15.4984 26.9144 15.1195C26.9144 14.7406 27.1511 14.3843 27.5828 14.3843ZM4.76201 14.6867L4.72626 15.2625L3.93134 14.8942L4.76201 14.6867ZM6.68063 17.3029H9.82315V23.0955C8.15224 21.6402 6.99966 19.6045 6.68063 17.3029ZM12.7672 17.3029H15.8109V25.405C14.7433 25.3839 13.7193 25.1847 12.7672 24.8363V17.3029Z" fill="url(#paint3_linear_601_54)"/>
<path fill-rule="evenodd" clip-rule="evenodd" d="M17.3556 10.6176C17.3853 10.6159 17.4199 10.6236 17.4671 10.6548L18.118 11.0964C18.1992 11.1556 18.253 11.265 18.253 11.3532L18.2455 11.9633V11.9643V11.9657C18.2455 12.2059 18.367 12.4107 18.524 12.5536C18.6165 12.6379 18.7225 12.7044 18.8358 12.7451C18.7225 12.7857 18.6165 12.8522 18.524 12.9365C18.367 13.0795 18.2455 13.2842 18.2455 13.5245V13.5259V13.5268L18.253 14.1392C18.253 14.2275 18.1935 14.3383 18.1124 14.3975L17.4652 14.8363C17.4023 14.8778 17.3638 14.8772 17.3274 14.8683C17.2909 14.8594 17.2551 14.8335 17.2309 14.7963C17.1825 14.722 17.1614 14.6354 17.3015 14.5353L17.3038 14.5334L17.3062 14.5315L17.6176 14.294C17.7229 14.2186 17.8702 14.092 17.8702 13.8744V13.873V13.8716L17.8626 13.3725C17.8626 13.2661 17.8244 13.1459 17.7168 13.0644C17.6093 12.983 17.4556 12.973 17.3085 13.0212C17.2035 13.0556 17.1349 13.0926 17.0799 13.1134C17.025 13.1341 16.9784 13.1468 16.8772 13.1468C16.7354 13.1468 16.6484 13.0934 16.5828 13.0169C16.5172 12.9404 16.4835 12.8339 16.4835 12.7639V12.7263C16.4835 12.6563 16.5172 12.5497 16.5828 12.4732C16.6484 12.3967 16.7354 12.3434 16.8772 12.3434C16.9784 12.3434 17.025 12.356 17.0799 12.3768C17.1349 12.3975 17.2035 12.4345 17.3085 12.469C17.4556 12.5172 17.6093 12.5071 17.7168 12.4257C17.8244 12.3443 17.8626 12.2212 17.8626 12.1148L17.8702 11.6185V11.6171V11.6157C17.8702 11.3981 17.7182 11.2682 17.6129 11.1929L17.3062 10.9586L17.3038 10.9567L17.3015 10.9548C17.1614 10.8547 17.1825 10.7681 17.2309 10.6938C17.2551 10.6566 17.2909 10.6308 17.3274 10.6218C17.3365 10.6196 17.3457 10.6182 17.3556 10.6176Z" fill="#9D0D16"/>
<path fill-rule="evenodd" clip-rule="evenodd" d="M23.0104 11.0358C23.3705 11.2711 23.744 11.5369 24.0362 11.8998C24.3642 12.3072 24.5965 12.8313 24.5965 13.604C24.5965 15.0556 23.2409 16.2215 21.937 16.2215H18.786C18.6965 16.2215 18.6049 16.2626 18.5494 16.326C18.4939 16.3894 18.4717 16.4659 18.4723 16.539C18.4729 16.6122 18.4964 16.687 18.5513 16.7493C18.6062 16.8116 18.6963 16.8532 18.786 16.8532H21.8622C22.9682 16.8532 23.5579 17.5651 23.5579 18.4055C23.5579 19.2244 22.9454 19.9944 21.8697 19.9944H18.6999C18.6231 19.9944 18.5415 20.0292 18.4911 20.0851C18.4407 20.1411 18.4197 20.2092 18.4201 20.2742C18.4205 20.3393 18.4417 20.4063 18.4916 20.4614C18.5415 20.5166 18.6228 20.5517 18.6999 20.5517H21.0593C21.5671 20.5517 21.9991 21.0466 21.9991 21.5193C21.9991 21.759 21.931 21.9802 21.7804 22.1411C21.6298 22.302 21.3892 22.4186 20.9845 22.4186H19.5696C19.5133 22.4186 19.4539 22.431 19.3994 22.4704C19.3448 22.5098 19.3002 22.585 19.3025 22.6632C19.3048 22.7414 19.3498 22.8084 19.4022 22.8457C19.4546 22.883 19.5131 22.8965 19.5696 22.8965H20.508C20.6404 22.8965 20.7383 22.9544 20.8156 23.0485C20.893 23.1425 20.9379 23.2743 20.9379 23.3796C20.9379 23.5107 20.8895 23.632 20.8039 23.7079C20.7484 23.7571 20.6716 23.7913 20.5664 23.7996C20.5715 23.7454 20.5724 23.684 20.5362 23.6105C20.4933 23.5234 20.3736 23.4539 20.2719 23.4539H19.7089C19.5128 23.4539 19.2964 23.38 19.1364 23.2404C18.9765 23.1008 18.8669 22.9029 18.8669 22.6181C18.8669 22.3561 18.9764 22.1694 19.1317 22.0353C19.2871 21.9012 19.4934 21.8311 19.6454 21.8311H21.0292C21.0917 21.8311 21.1525 21.8204 21.2108 21.785C21.269 21.7497 21.3289 21.6753 21.3288 21.5828C21.3287 21.4902 21.2684 21.4158 21.2103 21.3805C21.1521 21.3453 21.0916 21.3349 21.0292 21.3349H18.8613C18.0271 21.3349 17.5626 20.7446 17.5626 20.1082C17.5626 19.5404 18.0489 18.8674 18.786 18.8674H22.0123C22.1001 18.8674 22.1904 18.8264 22.2441 18.7639C22.2979 18.7014 22.319 18.627 22.3185 18.556C22.318 18.485 22.2959 18.412 22.2427 18.3504C22.1896 18.2889 22.1003 18.2474 22.0123 18.2474H18.7263C17.8077 18.2474 17.0809 17.5662 17.0809 16.5376C17.0809 15.6784 17.784 14.7973 18.8236 14.7973H21.802C21.9644 14.7973 22.1101 14.7242 22.1995 14.6176C22.2888 14.511 22.3286 14.3796 22.3293 14.2502C22.33 14.1209 22.2914 13.9884 22.2018 13.881C22.1122 13.7737 21.9655 13.7009 21.802 13.7009H18.6242L18.6219 13.5226C18.6219 13.4125 18.6816 13.3019 18.7775 13.2145C18.8735 13.1271 19.0025 13.0771 19.0814 13.0771H20.8622C20.9311 13.0771 20.9993 13.0612 21.0664 13.0151C21.1334 12.9689 21.1957 12.8694 21.1957 12.7451C21.1957 12.617 21.1576 12.5523 21.0664 12.4751C20.9993 12.4289 20.9311 12.413 20.8622 12.413H19.0814C19.0025 12.413 18.8735 12.363 18.7775 12.2756C18.6816 12.1883 18.6219 12.0757 18.6219 11.9657L18.6233 11.8565H20.7968C20.9171 11.8565 21.0269 11.818 21.1134 11.7516C21.1998 11.6853 21.2705 11.5836 21.2705 11.4553V11.294H22.3274C22.6016 11.294 22.8398 11.1918 23.0104 11.0358Z" fill="url(#paint4_linear_601_54)"/>
<defs>
<linearGradient id="paint0_linear_601_54" x1="9.89118" y1="9.82221" x2="15.9473" y2="26.2676" gradientUnits="userSpaceOnUse">
<stop stop-color="white"/>
<stop offset="1" stop-color="#53EEEF"/>
</linearGradient>
<linearGradient id="paint1_linear_601_54" x1="15.647" y1="7.23619" x2="21.9857" y2="25.4048" gradientUnits="userSpaceOnUse">
<stop stop-color="#2F7FBE"/>
<stop offset="1" stop-color="#225D8B"/>
</linearGradient>
<linearGradient id="paint2_linear_601_54" x1="8.32298" y1="9.25826" x2="16.6584" y2="25.5474" gradientUnits="userSpaceOnUse">
<stop stop-color="#D50D16"/>
<stop offset="0.5" stop-color="#880D16"/>
<stop offset="1" stop-color="#520D16"/>
</linearGradient>
<linearGradient id="paint3_linear_601_54" x1="6.6773" y1="7.15732" x2="25.0882" y2="22.8825" gradientUnits="userSpaceOnUse">
<stop stop-color="#F8FFBF"/>
<stop offset="0.508929" stop-color="#F8E45E"/>
<stop offset="0.75" stop-color="#F8D35E"/>
<stop offset="1" stop-color="#EE8E0A"/>
</linearGradient>
<linearGradient id="paint4_linear_601_54" x1="18.4614" y1="12.376" x2="22.1957" y2="23.4797" gradientUnits="userSpaceOnUse">
<stop stop-color="#157031"/>
<stop offset="1" stop-color="#0F5324"/>
</linearGradient>
</defs>
</svg>
