<svg width="32" height="26" viewBox="0 0 32 26" fill="none" xmlns="http://www.w3.org/2000/svg">
<g clip-path="url(#clip0_601_1236)">
<path d="M12.8442 0.0490943C16.352 -0.0745222 19.8632 0.0482175 23.3648 0.273094C23.7334 0.305094 24.1069 0.302464 24.4699 0.380053C24.6663 0.427396 24.8784 0.502355 24.9933 0.680766C25.0981 0.874957 25.1002 1.10159 25.1274 1.31551C25.2107 2.36625 25.2353 3.42137 25.3137 4.47211C25.1621 4.49052 25.0104 4.46729 24.8587 4.46246C22.158 4.32263 19.4551 4.20646 16.75 4.20296C15.349 4.2069 13.9463 4.19331 12.5466 4.26126C12.2073 4.31123 11.8233 4.42477 11.6274 4.72723C12.6864 4.91529 13.7433 5.11825 14.8019 5.30981C18.3105 5.96646 21.8218 6.60866 25.3304 7.26444C25.3273 7.92986 25.3286 8.59529 25.3299 9.26071C23.3569 8.93414 21.3874 8.5817 19.4156 8.2446C15.1737 7.51342 10.933 6.77216 6.68972 6.048C6.69805 5.30937 6.72961 4.57118 6.74495 3.83211C6.77169 3.2469 6.75504 2.65381 6.88742 2.07912C6.97641 1.67364 7.14123 1.26597 7.44851 0.976218C7.97893 0.451067 8.74605 0.303341 9.46013 0.229259C10.5854 0.12493 11.7155 0.0907381 12.8442 0.0490943ZM6.66956 7.01983C12.7469 8.14115 18.8221 9.28131 24.8986 10.4092C25.0314 10.4416 25.1734 10.4443 25.301 10.4929L25.3164 10.528C25.283 11.5248 25.2637 12.5225 25.2278 13.5193C25.2046 14.1344 25.1397 14.7779 24.8232 15.3197C24.4839 15.8799 23.8518 16.1898 23.2263 16.3069C22.3044 16.48 21.3628 16.4914 20.4291 16.5427C16.4116 16.725 12.3857 16.6242 8.37476 16.3481C8.05432 16.3257 7.72819 16.32 7.41695 16.231C7.25564 16.1802 7.08906 16.0982 6.99788 15.9492C6.90013 15.7536 6.89399 15.5305 6.86988 15.3175C6.78397 14.1545 6.73838 12.9894 6.67745 11.8251C8.74649 11.9566 10.819 12.0302 12.892 12.0763C14.8936 12.1087 16.8951 12.1083 18.8966 12.128C19.3284 12.146 19.7953 12.0636 20.1227 11.7602C20.1705 11.7054 20.2481 11.6546 20.2402 11.5726C19.3381 11.4372 18.4412 11.2688 17.5408 11.1207C13.9182 10.5013 10.2939 9.88756 6.67175 9.26466C6.66736 8.51638 6.67262 7.76811 6.66956 7.01983Z" fill="#19191B"/>
<path d="M22.791 21.8825V23.2681H18.3837V22.8778C18.3837 22.2728 18.481 21.8727 19.1912 21.8727H22.791V21.8825ZM18.9188 21.0237C17.761 21.0237 17.2259 21.6385 17.2259 22.6338V25.4247H18.3837V24.1366H22.791V25.4149H23.9488V21.0237H18.9188ZM25.379 21.0237V21.8825H28.1031V25.4149H29.2609V21.8825H31.9851V21.0237H25.379ZM9.79283 23.7267C9.79283 24.3415 9.91931 24.5659 10.6004 24.5659H15.4358V25.4247H10.3279C9.17017 25.4247 8.62533 24.8977 8.62533 23.9121V21.0237H15.426V21.8825H9.7831V22.7412H15.1925V23.5853H9.7831V23.7316L9.79283 23.7267ZM1.50358 22.5558C1.1436 22.5265 1.08522 22.3996 1.08522 22.185C1.08522 21.9898 1.19224 21.8727 1.46466 21.8727H6.80598V21.0237H1.32845C0.550119 21.0237 0.0150146 21.3262 0.0150146 22.1947C0.0150146 23.0632 0.413911 23.3657 1.30899 23.4438L5.63848 23.8048C5.96927 23.8341 6.06656 23.9414 6.06656 24.1854C6.06656 24.4098 5.96927 24.5562 5.66766 24.5562H0.229056V25.4149H5.75523C6.70869 25.4149 7.12704 25.0343 7.12704 24.1366C7.12704 23.3169 6.7476 22.9851 5.82333 22.9071L1.50358 22.5558Z" fill="#19191B"/>
</g>
<defs>
<clipPath id="clip0_601_1236">
<rect width="32" height="25.4247" fill="white"/>
</clipPath>
</defs>
</svg>
