<svg width="32" height="32" viewBox="0 0 32 32" fill="none" xmlns="http://www.w3.org/2000/svg">
<path d="M14.9314 0.0363155C23.7479 -0.553667 31.3737 6.1151 31.9637 14.9314C32.5537 23.7481 25.8848 31.3734 17.0682 31.9637C8.2514 32.5537 0.625893 25.8849 0.0358967 17.0683C-0.373641 10.9528 2.74695 5.14065 8.07094 2.10334C10.1723 0.905181 12.5177 0.198277 14.9314 0.0363155ZM15.4146 1.39644C7.3488 1.71708 1.07032 8.5156 1.39127 16.5809C1.71192 24.6465 8.5103 30.9248 16.5761 30.6042C24.6415 30.2832 30.92 23.485 30.5994 15.4194C30.404 10.5075 27.7526 6.02294 23.5427 3.48434C21.0956 2.0067 18.2679 1.28041 15.4116 1.39644H15.4146Z" fill="#0D392E"/>
<path d="M12.4451 3.67656C13.9792 3.15302 15.5941 2.93003 17.2069 3.0191C17.3763 3.01092 17.5451 3.04092 17.7021 3.10697C19.4723 4.56216 20.8733 6.44121 21.7841 8.58174C22.7707 11.0516 23.1349 13.7402 22.8419 16.3955C22.6614 18.327 22.2145 20.2215 21.5145 22.0218H22.7745C22.8976 21.6915 23.0089 21.3582 23.1379 21.031C24.6048 21.2237 25.9656 21.923 27 23.0155C25.9694 24.1153 24.6051 24.8158 23.1349 25C23.0148 24.6758 22.8946 24.3547 22.7833 24.0305C18.9211 24.0305 15.0561 24.0305 11.1939 24.0305C11.0005 24.0438 10.8147 24.1132 10.6577 24.2304C10.2328 24.4516 9.81373 24.6819 9.38884 24.9031C9.23324 24.9773 9.06153 25.0085 8.89069 24.9939C8.39254 24.9939 7.89438 24.9939 7.3933 24.9939C6.34161 23.8345 5.49035 22.4971 4.87616 21.0401H8.28997C8.53289 21.0144 8.77845 21.041 9.01082 21.1189C9.57725 21.3713 10.144 21.627 10.7104 21.8854C11.1382 22.146 11.651 21.9915 12.1228 22.0308C12.0504 20.7789 11.7006 19.5607 11.1001 18.4709C10.4619 17.4171 9.57315 16.5503 8.51853 15.9531C7.10495 15.1672 5.58002 14.6179 4 14.3262C4.21069 12.5998 4.75895 10.9362 5.61167 9.43613C6.72343 9.6976 7.81672 10.0357 8.88482 10.4481C10.0306 10.8698 11.1151 11.4518 12.1082 12.1781L12.4276 12.0175C11.7858 11.277 11.0629 10.6162 10.2738 10.0481C9.15118 9.20163 7.97672 8.43146 6.75741 7.7425C7.78214 6.44788 9.0413 5.37262 10.4643 4.5764C11.438 4.98724 12.3482 5.5438 13.166 6.22762C14.4093 7.25895 15.5633 8.40056 16.615 9.63913L17.0252 9.52703C15.9703 7.24259 14.2912 5.32172 12.4451 3.67656ZM18.1534 17.3862C17.3361 17.6553 16.8843 18.5581 17.1445 19.4034C17.4047 20.2484 18.2779 20.7156 19.0955 20.4466C19.9128 20.1775 20.3643 19.2744 20.1044 18.4294C20.0068 18.1128 19.8166 17.8349 19.5599 17.6347C19.1573 17.3217 18.6337 17.2293 18.1534 17.3862Z" fill="#0D392E"/>
</svg>
