<svg width="33" height="32" viewBox="0 0 33 32" fill="none" xmlns="http://www.w3.org/2000/svg">
<path d="M16.0704 32L20.5663 6.71463C24.8518 6.71463 26.2035 7.18455 26.3986 9.10264C26.3986 9.10264 29.2734 8.03074 30.7234 5.85374C25.0653 3.23192 19.3802 3.11368 19.3802 3.11368L16.0629 7.15414L16.0704 7.15363L12.7531 3.11304C12.7531 3.11304 7.06788 3.23141 1.41058 5.85324C2.85925 8.03023 5.73517 9.10213 5.73517 9.10213C5.93148 7.18392 7.28155 6.714 11.5382 6.71096L16.0704 32Z" fill="#E82127"/>
<path d="M16.0686 1.9466C20.6423 1.91162 25.8775 2.65414 31.2367 4.98993C31.953 3.70069 32.1371 3.13091 32.1371 3.13091C26.2787 0.813111 20.7924 0.0198969 16.0679 0C11.3438 0.0198969 5.85766 0.813237 0 3.13091C0 3.13091 0.26132 3.83275 0.899795 4.98993C6.25801 2.65414 11.4941 1.91162 16.0679 1.9466H16.0686Z" fill="#E82127"/>
</svg>
