<svg width="33" height="22" viewBox="0 0 33 22" fill="none" xmlns="http://www.w3.org/2000/svg">
<g clip-path="url(#clip0_601_1308)">
<path d="M16.6479 0.143738C7.53598 0.143738 0.147949 4.84453 0.147949 10.6416C0.147949 16.4408 7.53598 21.1437 16.6479 21.1437C25.7599 21.1437 33.1479 16.4429 33.1479 10.6416C33.1479 4.84026 25.7599 0.143738 16.6479 0.143738ZM16.6479 16.637C15.2926 16.637 14.1867 14.0115 14.1173 10.7077C14.9327 10.7781 15.7806 10.8165 16.6479 10.8165C17.5153 10.8165 18.3632 10.7781 19.1786 10.7077C19.1092 14.0094 18.0033 16.637 16.6479 16.637ZM14.2843 8.08432C14.6529 5.74886 15.5724 4.09164 16.6479 4.09164C17.7235 4.09164 18.643 5.74886 19.0116 8.08432C18.2548 8.15044 17.4655 8.1867 16.6479 8.1867C15.8304 8.1867 15.0411 8.15044 14.2843 8.08432ZM16.6479 1.66232C14.8785 1.66232 13.3692 4.26866 12.8119 7.9073C9.45725 7.39328 7.11529 6.22022 7.11529 4.85733C7.11529 3.01881 11.3829 1.52796 16.6479 1.52796C21.913 1.52796 26.1806 3.01881 26.1806 4.85733C26.1806 6.22022 23.8386 7.39328 20.484 7.9073C19.9267 4.26866 18.4174 1.66232 16.6479 1.66232ZM2.51377 10.2492C2.51377 8.47037 3.20985 6.80035 4.42203 5.36708C4.40902 5.46732 4.40035 5.5697 4.40035 5.67207C4.40035 7.9137 7.81788 9.82472 12.5864 10.5286C12.582 10.6907 12.582 10.8549 12.582 11.0191C12.582 15.1974 13.7725 18.7358 15.4184 19.9365C8.18652 19.5078 2.51377 15.3339 2.51377 10.2492ZM17.8775 19.9365C19.5234 18.7358 20.7139 15.1974 20.7139 11.0191C20.7139 10.8528 20.7117 10.6907 20.7095 10.5286C25.4759 9.82472 28.8955 7.91583 28.8955 5.67207C28.8955 5.5697 28.8869 5.46732 28.8739 5.36708C30.086 6.80462 30.7821 8.47037 30.7821 10.2492C30.7821 15.3339 25.1094 19.5078 17.8775 19.9365Z" fill="#282830"/>
</g>
<defs>
<clipPath id="clip0_601_1308">
<rect width="33" height="22" fill="white"/>
</clipPath>
</defs>
</svg>
