<svg width="32" height="32" viewBox="0 0 32 32" fill="none" xmlns="http://www.w3.org/2000/svg">
<g clip-path="url(#clip0_601_24774)">
<path d="M16.0192 30.434C8.09137 30.434 1.59627 23.9071 1.59627 15.9793C1.59627 14.1963 1.91466 12.5088 2.5196 10.9169L10.9569 27.8869C11.0524 28.1098 11.2116 28.3008 11.4663 28.3008C11.721 28.3008 11.8802 28.1098 11.9757 27.8869L15.86 19.195C15.8919 19.0995 15.9555 19.0039 16.051 19.0039C16.1466 19.0039 16.1784 19.0995 16.2421 19.195L20.1264 27.8869C20.2219 28.1098 20.3811 28.3008 20.6358 28.3008C20.8905 28.3008 21.0497 28.1098 21.1452 27.8869L29.5825 10.9169C30.1874 12.5088 30.5058 14.1963 30.5058 15.9793C30.4421 23.9071 23.947 30.434 16.0192 30.434ZM16.0192 12.6999C15.9237 12.6999 15.8919 12.6044 15.8282 12.5088L11.3071 2.32045C12.7717 1.7792 14.3636 1.49265 16.0192 1.49265C17.6748 1.49265 19.2668 1.7792 20.7313 2.32045L16.2102 12.5088C16.1466 12.6362 16.1147 12.6999 16.0192 12.6999ZM11.4026 23.1748C11.3071 23.1748 11.2752 23.0793 11.2116 22.9838L3.88866 8.21062C5.19405 6.20478 6.94518 4.51733 9.07837 3.33929L14.3636 15.0878C14.4273 15.2788 14.5865 15.3425 14.7457 15.3425H17.2928C17.4838 15.3425 17.6111 15.3106 17.7067 15.0878L22.9919 3.33929C25.0932 4.51733 26.8762 6.20478 28.1816 8.21062L20.795 22.9838C20.7632 23.0793 20.6995 23.1748 20.604 23.1748C20.5085 23.1748 20.4766 23.0793 20.413 22.9838L17.643 16.6797C17.5475 16.4568 17.4201 16.425 17.2291 16.425H14.682C14.491 16.425 14.3636 16.4568 14.2681 16.6797L11.5936 22.9838C11.5618 23.0793 11.4981 23.1748 11.4026 23.1748ZM16.0192 31.8986C24.8385 31.8986 31.9386 24.7986 31.9386 15.9793C31.9386 7.15994 24.8385 0.059906 16.0192 0.059906C7.19989 0.059906 0.0998535 7.15994 0.0998535 15.9793C0.0998535 24.7986 7.19989 31.8986 16.0192 31.8986Z" fill="black"/>
</g>
<defs>
<clipPath id="clip0_601_24774">
<rect width="32" height="32" fill="white"/>
</clipPath>
</defs>
</svg>
