<svg width="32" height="32" viewBox="0 0 32 32" fill="none" xmlns="http://www.w3.org/2000/svg">
<path d="M16.0001 6.33936C18.6891 6.33936 21.0793 7.43482 22.8224 9.17776C24.6153 10.9207 25.6608 13.3606 25.6608 16.05C25.6608 18.6891 24.6153 21.1291 22.8224 22.8721C21.0795 24.615 18.6891 25.7106 16.0001 25.7106C13.3109 25.7106 10.9207 24.6152 9.12807 22.8721C7.38514 21.1291 6.28967 18.6892 6.28967 16.05C6.28967 13.3608 7.38514 10.9208 9.12807 9.17776C10.9207 7.43482 13.3109 6.33936 16.0001 6.33936ZM16.0001 6.48854C13.3609 6.48854 10.9707 7.584 9.27725 9.27741C7.53432 11.0202 6.43885 13.4106 6.43885 16.0498C6.43885 18.6889 7.53432 21.0793 9.27725 22.7723C10.9705 24.5152 13.3609 25.5611 16.0001 25.5611C18.6392 25.5611 21.0298 24.5154 22.7226 22.7723C24.4655 21.0793 25.5115 18.6889 25.5115 16.0498C25.5115 13.4106 24.4655 11.0202 22.7226 9.27741C21.0298 7.58416 18.6392 6.48854 16.0001 6.48854Z" fill="#C5C5C1"/>
<path d="M16.0002 1.21005C19.3864 1.21005 22.5239 2.3552 25.0134 4.24777L26.6565 2.60449L29.545 5.49257L27.9018 7.18582C29.7444 9.67588 30.7898 12.7131 30.7898 15.9998C30.7898 24.1667 24.1669 30.8396 16.0001 30.8396C7.8332 30.8396 1.20996 24.1667 1.20996 15.9998C1.21011 7.83329 7.83335 1.21005 16.0002 1.21005ZM16.0002 4.69592C9.77545 4.69592 4.69598 9.77508 4.69598 15.9998C4.69598 22.2746 9.77545 27.3041 16.0002 27.3041C22.225 27.3041 27.3041 22.2746 27.3041 15.9998C27.3041 9.77508 22.225 4.69592 16.0002 4.69592Z" fill="url(#paint0_radial_601_1567)"/>
<path d="M16.0002 4.64594C19.1375 4.64594 21.9759 5.89104 24.0674 7.98247C26.1088 10.0242 27.4038 12.8626 27.4038 16.0497C27.4038 19.187 26.109 22.0251 24.0674 24.1169C21.9758 26.1583 19.1374 27.4533 16.0002 27.4533C12.8628 27.4533 9.97472 26.1585 7.93297 24.1169C5.89122 22.025 4.59644 19.1869 4.59644 16.0497C4.59644 12.8626 5.89122 10.0242 7.93297 7.98247C9.97472 5.89104 12.8628 4.64594 16.0002 4.64594ZM16.0002 4.79557C12.9128 4.79557 10.0742 6.04037 8.03247 8.08213C5.99072 10.1236 4.74577 12.9125 4.74577 16.0498C4.74577 19.1372 5.99057 21.9756 8.03247 24.0174C10.0742 26.0091 12.9128 27.3039 16.0002 27.3039C19.0876 27.3039 21.926 26.0091 23.9679 24.0174C26.0092 21.9756 27.2544 19.1372 27.2544 16.0498C27.2544 12.9125 26.0092 10.1236 23.9679 8.08213C21.926 6.04037 19.0876 4.79557 16.0002 4.79557Z" fill="url(#paint1_linear_601_1567)"/>
<path d="M16.0002 1.11041C19.3864 1.11041 22.5735 2.25571 25.0635 4.1978L25.0135 4.24778C22.5239 2.35521 19.3864 1.21007 16.0003 1.21007C7.83349 1.21007 1.21025 7.83331 1.21025 15.9999C1.21025 24.1667 7.83349 30.8396 16.0003 30.8396C24.1672 30.8396 30.7901 24.1667 30.7901 15.9999C30.7901 12.7133 29.7447 9.6759 27.9021 7.18584L27.9517 7.13586C29.7943 9.62592 30.8898 12.6635 30.8898 15.9999C30.8898 20.133 29.1968 23.8679 26.5076 26.557C23.8184 29.2462 20.1335 30.8896 16.0003 30.8896C11.9167 30.8896 8.18199 29.2463 5.49307 26.557C2.80385 23.8181 1.1106 20.133 1.1106 15.9999C1.1106 11.9165 2.80385 8.1818 5.49307 5.49258C8.18183 2.80336 11.8669 1.11041 16.0002 1.11041Z" fill="url(#paint2_radial_601_1567)"/>
<path d="M16.0002 4.74561C22.2249 4.74561 27.3041 9.77524 27.3041 16.05C27.3041 22.2747 22.2249 27.3539 16.0002 27.3539C9.77539 27.3539 4.69592 22.2747 4.69592 16.05C4.69592 9.77509 9.77539 4.74561 16.0002 4.74561ZM16.0002 6.33936C10.6717 6.33936 6.3392 10.6719 6.3392 16.05C6.3392 21.3784 10.6717 25.7105 16.0002 25.7105C21.3286 25.7105 25.6606 21.3783 25.6606 16.05C25.6606 10.6717 21.3286 6.33936 16.0002 6.33936Z" fill="url(#paint3_radial_601_1567)"/>
<path opacity="0.67" d="M6.82685 19.0638H1.53162C1.66221 19.686 1.84324 20.2883 2.04956 20.8794H7.64514C7.31356 20.3078 7.03699 19.7015 6.82685 19.0638Z" fill="url(#paint4_linear_601_1567)"/>
<path opacity="0.86" d="M25.1805 19.0638H30.4759C30.3451 19.686 30.1641 20.2883 29.9578 20.8794H24.3622C24.6939 20.3078 24.9705 19.7015 25.1805 19.0638Z" fill="url(#paint5_linear_601_1567)"/>
<path d="M30.7402 12.265C31.0887 13.4603 31.2381 14.7051 31.2381 15.9998C31.2381 17.3446 31.0391 18.6394 30.7402 19.8842H1.30969V19.8342H30.6904C31.0392 18.5894 31.1886 17.2946 31.1886 15.9502C31.1884 14.6554 31.0391 13.4106 30.7402 12.265Z" fill="#1A171B"/>
<path d="M1.2601 12.2155H30.7405C31.0393 13.4106 31.1885 14.6554 31.1885 15.9502C31.1885 17.2946 31.0393 18.5894 30.6903 19.8342H1.30977C0.961125 18.5894 0.761963 17.2946 0.761963 15.9502C0.761963 14.6554 0.961125 13.4106 1.2601 12.2155Z" fill="url(#paint6_radial_601_1567)"/>
<path d="M27.2544 1.60852L30.5411 4.89523L28.101 7.33515L28.2504 7.53431L26.5074 8.9289L25.9595 9.12806L29.5452 5.49256L26.6566 2.60448L23.0714 6.19001L23.2209 5.69187L27.2544 1.60852Z" fill="url(#paint7_linear_601_1567)"/>
<path d="M23.9679 1.25974C26.856 2.80351 29.1965 5.19375 30.79 8.03215V1.25974H23.9679Z" fill="url(#paint8_radial_601_1567)"/>
<path d="M23.9679 1.25974C26.856 2.80351 29.1965 5.19375 30.79 8.03215" stroke="#B1B0A8" stroke-width="0.3402" stroke-linecap="round"/>
<path d="M23.9679 1.25974C26.8063 2.80351 29.1965 5.19375 30.7403 8.03215" stroke="#CBCAC4" stroke-width="0.2361" stroke-linecap="round"/>
<path d="M23.9178 1.25974C26.8062 2.80351 29.1465 5.19375 30.7402 8.08214" stroke="#E6E6E1" stroke-width="0.1324" stroke-linecap="round"/>
<path d="M23.9178 1.25974C26.7562 2.85349 29.1465 5.19375 30.6903 8.08214" stroke="white" stroke-width="0.0283" stroke-linecap="round"/>
<path d="M30.7899 1.11041C30.8399 1.11041 30.8896 1.16009 30.8896 1.25959H23.9678H23.8682C23.8682 1.16009 23.9178 1.11041 23.9678 1.11041H30.7899Z" fill="url(#paint9_linear_601_1567)"/>
<path d="M30.8897 8.03216C30.8897 8.13182 30.84 8.1818 30.79 8.1818L30.7405 8.08215V1.11041C30.7405 1.11041 30.7405 1.11041 30.79 1.11041C30.84 1.11041 30.8897 1.16009 30.8897 1.25959V8.03216Z" fill="url(#paint10_linear_601_1567)"/>
<path d="M1.31369 12.2728C1.01487 13.468 0.815552 14.7128 0.815552 16.0076C0.815552 16.1147 0.852428 16.7493 0.855018 16.8556L0.941418 17.8175C0.940047 17.7397 0.902256 16.172 0.902256 16.094C0.902256 14.7992 1.11803 13.5983 1.41685 12.4031L11.8492 12.3592L16.3519 12.2728H1.31369Z" fill="url(#paint11_linear_601_1567)"/>
<path d="M26.6566 17.847C25.3363 17.847 24.262 17.0408 24.262 16.0498C24.262 15.0586 25.3363 14.2523 26.6566 14.2523C28.0048 14.2523 29.1017 15.0588 29.1017 16.0498C29.1015 17.0408 28.0047 17.847 26.6566 17.847ZM26.6566 14.7596C26.1689 14.7596 25.8151 15.3023 25.8151 16.0498C25.8151 16.7569 26.1769 17.2901 26.6566 17.2901C27.1131 17.2901 27.4986 16.7221 27.4986 16.0498C27.4986 15.3384 27.1209 14.7596 26.6566 14.7596ZM11.5183 17.847C10.1977 17.847 9.12344 17.0408 9.12344 16.0498C9.12344 15.1025 10.2201 14.3023 11.5183 14.3023C12.8662 14.3023 13.9628 15.0863 13.9628 16.0498C13.9628 17.0408 12.8662 17.847 11.5183 17.847ZM11.5183 14.8091C11.0383 14.8091 10.6762 15.3425 10.6762 16.0498C10.6762 16.7569 11.0383 17.2901 11.5183 17.2901C11.9748 17.2901 12.3603 16.7221 12.3603 16.0498C12.3605 15.3774 11.9748 14.8091 11.5183 14.8091ZM20.3823 17.7474L18.8347 14.8568L18.042 14.8593L18.0374 14.4067L21.4284 14.4021L21.4329 14.8547L20.5816 14.8593L21.7808 16.8942L22.8184 14.8527L22.2249 14.8593L22.2203 14.4067L24.5653 14.4021L24.5698 14.8547L23.7685 14.8593L22.2276 17.7475H20.3823V17.7474ZM14.1575 17.7474L14.1529 17.195L14.9541 17.1904L14.9496 14.8547L14.1575 14.8593L14.1529 14.4067L17.2949 14.4021L17.2994 14.8547L16.4978 14.8593L16.5023 17.1951L17.3444 17.1906C17.6167 17.1906 18.3346 17.0124 18.3856 16.199L18.888 16.1947L18.8926 17.7475H14.1575V17.7474ZM5.24367 17.7474L3.69594 14.8568L2.90325 14.8593L2.89868 14.4067L6.28946 14.4021L6.29403 14.8547L5.44283 14.8593L6.64192 16.8942L7.72946 14.8526L7.08611 14.8593L7.08154 14.4067L9.42683 14.4021L9.43141 14.8547L8.62988 14.8593L7.08901 17.7475H5.24367V17.7474Z" fill="white"/>
<path d="M26.6566 14.2569C28.0015 14.2569 29.0971 15.0539 29.0971 16.05C29.0971 17.0458 28.0017 17.8426 26.6566 17.8426C25.3623 17.8426 24.2667 17.0458 24.2667 16.05C24.2667 15.0539 25.3621 14.2569 26.6566 14.2569ZM26.6566 17.2946C27.1048 17.2946 27.5034 16.7468 27.5034 16.0498C27.5034 15.3029 27.1049 14.755 26.6566 14.755C26.1589 14.755 25.8104 15.3029 25.8104 16.0498C25.8104 16.7468 26.1589 17.2946 26.6566 17.2946ZM11.5183 14.3069C12.8628 14.3069 13.9582 15.1037 13.9582 16.0498C13.9582 17.0456 12.8628 17.8424 11.5183 17.8424C10.2235 17.8424 9.12792 17.0456 9.12792 16.0498C9.12807 15.1035 10.2235 14.3069 11.5183 14.3069ZM11.5183 17.2946C11.9665 17.2946 12.3649 16.7468 12.3649 16.0498C12.3649 15.3528 11.9665 14.8046 11.5183 14.8046C11.0202 14.8046 10.6717 15.3528 10.6717 16.0498C10.6717 16.7468 11.0202 17.2946 11.5183 17.2946ZM24.5652 14.4066V14.8546H23.7684L22.2248 17.7426H20.3822L18.8385 14.8546H18.0419V14.4066H21.4283V14.8546H20.5815L21.7768 16.8963L22.8222 14.8546H22.2248V14.4066H24.5652ZM17.2949 14.4066V14.8546H16.498V17.1948C16.498 17.1948 17.0458 17.1948 17.3448 17.1948C17.6436 17.1948 18.3406 16.996 18.3905 16.199C18.7887 16.199 18.8884 16.199 18.8884 16.199V17.7426H14.9542H14.1576V17.1948H14.9542V14.8546H14.1576V14.4066H17.2949ZM9.42689 14.4066V14.8546H8.62994L7.08632 17.7426H5.24373L3.70011 14.8546H2.90331V14.4066H6.28967V14.8546H5.44304L6.63817 16.8963L7.73363 14.8546H7.08616V14.4066H9.42689ZM26.6566 14.2476C25.3338 14.2476 24.2577 15.0562 24.2577 16.0498C24.2577 17.0434 25.3339 17.8514 26.6566 17.8514C28.0073 17.8514 29.1061 17.0432 29.1061 16.0498C29.1061 15.0562 28.0073 14.2476 26.6566 14.2476ZM26.6566 17.2856C26.1793 17.2856 25.8196 16.7544 25.8196 16.05C25.8196 15.305 26.1717 14.7643 26.6566 14.7643C27.1185 14.7643 27.4942 15.3411 27.4942 16.05C27.4942 16.7197 27.1105 17.2856 26.6566 17.2856ZM11.5183 14.2978C10.2176 14.2978 9.11877 15.1002 9.11877 16.05C9.11877 17.0435 10.1952 17.8516 11.5183 17.8516C12.8687 17.8516 13.9674 17.0434 13.9674 16.05C13.9675 15.0837 12.8689 14.2978 11.5183 14.2978ZM11.5183 17.2856C11.0409 17.2856 10.6808 16.7544 10.6808 16.05C10.6808 15.3452 11.0409 14.8139 11.5183 14.8139C11.9723 14.8139 12.3558 15.38 12.3558 16.05C12.3558 16.7197 11.9723 17.2856 11.5183 17.2856ZM24.5743 14.3974H24.5652H22.2249H22.2158V14.4066V14.8546V14.8637H22.2249H22.8075L21.7761 16.8773L20.5975 14.8637H21.4283H21.4374V14.8546V14.4066V14.3974H21.4283H18.0419H18.0328V14.4066V14.8546V14.8637H18.0419H18.8331L20.3741 17.7469L20.3767 17.7516H20.3822H22.2248H22.2302L22.2328 17.7469L23.7739 14.8637H24.565H24.5742V14.8546V14.4066V14.3974H24.5743ZM17.3041 14.3974H17.2949H14.1576H14.1484V14.4066V14.8546V14.8637H14.1576H14.9451V17.1858H14.1576H14.1484V17.195V17.7428V17.7519H14.1576H14.9542H18.8882H18.8974V17.7428V16.1992V16.19H18.8882H18.3904H18.3817L18.3813 16.1986C18.3304 17.0085 17.6157 17.1858 17.3445 17.1858H16.5068V14.8637H17.2948H17.3039V14.8546V14.4066V14.3974H17.3041ZM9.43603 14.3974H9.42689H7.08616H7.07702V14.4066V14.8546V14.8637H7.08616H7.71824L6.63771 16.8777L5.45889 14.8638H6.28967H6.29881V14.8547V14.4067V14.3976H6.28967H2.90331H2.89417V14.4067V14.8547V14.8638H2.90331H3.69447L5.23565 17.747L5.23824 17.7518H5.24373H7.08632H7.0918L7.09439 17.747L8.63542 14.8637H9.42689H9.43603V14.8546V14.4066V14.3974Z" fill="#1D2D28"/>
<defs>
<radialGradient id="paint0_radial_601_1567" cx="0" cy="0" r="1" gradientUnits="userSpaceOnUse" gradientTransform="translate(5.42528 13.0827) scale(30.8921)">
<stop stop-color="white"/>
<stop offset="0.0469" stop-color="#FCFCFB"/>
<stop offset="0.2247" stop-color="#FAFAF9"/>
<stop offset="0.3719" stop-color="#B9B9B8"/>
<stop offset="0.4972" stop-color="#888887"/>
<stop offset="0.5923" stop-color="#6A6A69"/>
<stop offset="0.6461" stop-color="#5F5F5E"/>
<stop offset="0.7275" stop-color="#555554"/>
<stop offset="0.8673" stop-color="#3A3939"/>
<stop offset="1" stop-color="#1B1919"/>
</radialGradient>
<linearGradient id="paint1_linear_601_1567" x1="10.1627" y1="14.0348" x2="21.2385" y2="17.8485" gradientUnits="userSpaceOnUse">
<stop stop-color="#E2E2DC"/>
<stop offset="1" stop-color="white"/>
</linearGradient>
<radialGradient id="paint2_radial_601_1567" cx="0" cy="0" r="1" gradientUnits="userSpaceOnUse" gradientTransform="translate(24.7908 25.5323) scale(33.903 33.9029)">
<stop stop-color="#C5C6C2"/>
<stop offset="1" stop-color="#868680"/>
</radialGradient>
<radialGradient id="paint3_radial_601_1567" cx="0" cy="0" r="1" gradientUnits="userSpaceOnUse" gradientTransform="translate(21.3332 21.3829) scale(23.8081 23.8081)">
<stop stop-color="white"/>
<stop offset="0.1986" stop-color="#F2F2F3"/>
<stop offset="0.2978" stop-color="#EAEAEB"/>
<stop offset="0.2992" stop-color="#E9E9EA"/>
<stop offset="0.3715" stop-color="#C3C3C3"/>
<stop offset="0.443" stop-color="#A5A5A5"/>
<stop offset="0.5126" stop-color="#8F8F8F"/>
<stop offset="0.5794" stop-color="#828281"/>
<stop offset="0.6404" stop-color="#7E7E7D"/>
<stop offset="0.7534" stop-color="#545352"/>
<stop offset="0.8551" stop-color="#353333"/>
<stop offset="0.9408" stop-color="#222020"/>
<stop offset="1" stop-color="#1B1919"/>
</radialGradient>
<linearGradient id="paint4_linear_601_1567" x1="4.58835" y1="20.9659" x2="4.58835" y2="19.8997" gradientUnits="userSpaceOnUse">
<stop stop-color="white" stop-opacity="0"/>
<stop offset="0.17" stop-color="#FAFAF9" stop-opacity="0"/>
<stop offset="0.427" stop-color="#BBBBB8" stop-opacity="0.1"/>
<stop offset="0.5232" stop-color="#8F8F8C" stop-opacity="0.2"/>
<stop offset="0.6238" stop-color="#686866" stop-opacity="0.3"/>
<stop offset="0.7234" stop-color="#4A4948" stop-opacity="0.6"/>
<stop offset="0.8206" stop-color="#343432" stop-opacity="0.8"/>
<stop offset="0.9141" stop-color="#272625" stop-opacity="0.9"/>
<stop offset="1" stop-color="#232221"/>
</linearGradient>
<linearGradient id="paint5_linear_601_1567" x1="27.419" y1="20.9659" x2="27.419" y2="19.8997" gradientUnits="userSpaceOnUse">
<stop stop-color="white" stop-opacity="0"/>
<stop offset="0.17" stop-color="#FAFAF9" stop-opacity="0"/>
<stop offset="0.427" stop-color="#BBBBB8" stop-opacity="0"/>
<stop offset="0.5232" stop-color="#8F8F8C" stop-opacity="0"/>
<stop offset="0.6238" stop-color="#686866" stop-opacity="0"/>
<stop offset="0.7234" stop-color="#4A4948" stop-opacity="0.25"/>
<stop offset="0.8206" stop-color="#343432" stop-opacity="0.5"/>
<stop offset="0.9141" stop-color="#272625" stop-opacity="0.75"/>
<stop offset="1" stop-color="#232221"/>
</linearGradient>
<radialGradient id="paint6_radial_601_1567" cx="0" cy="0" r="1" gradientUnits="userSpaceOnUse" gradientTransform="translate(2.14113 13.0841) scale(19.2195 19.2195)">
<stop stop-color="#006AB1"/>
<stop offset="0.0016" stop-color="#006AB1"/>
<stop offset="0.1275" stop-color="#0061A4"/>
<stop offset="0.2416" stop-color="#005E9F"/>
<stop offset="0.5062" stop-color="#00548E"/>
<stop offset="0.8371" stop-color="#004374"/>
<stop offset="0.9588" stop-color="#004173"/>
<stop offset="1" stop-color="#003B6F"/>
</radialGradient>
<linearGradient id="paint7_linear_601_1567" x1="30.2496" y1="9.01085" x2="22.7594" y2="1.5207" gradientUnits="userSpaceOnUse">
<stop offset="0.0056" stop-color="#212111"/>
<stop offset="0.6461" stop-color="#41403F"/>
<stop offset="0.6508" stop-color="#454443"/>
<stop offset="0.6558" stop-color="#52514F"/>
<stop offset="0.6608" stop-color="#666564"/>
<stop offset="0.6659" stop-color="#838281"/>
<stop offset="0.6711" stop-color="#A9A8A6"/>
<stop offset="0.6762" stop-color="#D6D5D2"/>
<stop offset="0.68" stop-color="#FDFCF9"/>
<stop offset="0.6826" stop-color="#FAF9F6"/>
<stop offset="0.6842" stop-color="#F2F1EE"/>
<stop offset="0.6856" stop-color="#E3E2DF"/>
<stop offset="0.6869" stop-color="#CECECA"/>
<stop offset="0.688" stop-color="#B3B3AF"/>
<stop offset="0.6891" stop-color="#93938E"/>
<stop offset="0.69" stop-color="#70706B"/>
<stop offset="0.6924" stop-color="#6D6D68"/>
<stop offset="0.7145" stop-color="#535250"/>
<stop offset="0.7396" stop-color="#3E3C3D"/>
<stop offset="0.7692" stop-color="#2E2B2D"/>
<stop offset="0.8059" stop-color="#222023"/>
<stop offset="0.8573" stop-color="#1C191D"/>
<stop offset="1" stop-color="#1A171B"/>
</linearGradient>
<radialGradient id="paint8_radial_601_1567" cx="0" cy="0" r="1" gradientUnits="userSpaceOnUse" gradientTransform="translate(29.6335 2.01748) scale(8.03209)">
<stop stop-color="#555552"/>
<stop offset="1" stop-color="#50504D"/>
</radialGradient>
<linearGradient id="paint9_linear_601_1567" x1="23.8681" y1="1.18506" x2="30.8896" y2="1.18506" gradientUnits="userSpaceOnUse">
<stop stop-color="#5D5D5F"/>
<stop offset="0.0852" stop-color="#505051"/>
<stop offset="0.2581" stop-color="#3C3C3C"/>
<stop offset="0.4497" stop-color="#2E2D2D"/>
<stop offset="0.6724" stop-color="#262524"/>
<stop offset="1" stop-color="#232221"/>
</linearGradient>
<linearGradient id="paint10_linear_601_1567" x1="30.8149" y1="8.18186" x2="30.8149" y2="1.11043" gradientUnits="userSpaceOnUse">
<stop stop-color="#5D5D5F"/>
<stop offset="0.096" stop-color="#555456"/>
<stop offset="0.4584" stop-color="#393939"/>
<stop offset="0.7723" stop-color="#292827"/>
<stop offset="1" stop-color="#232221"/>
</linearGradient>
<linearGradient id="paint11_linear_601_1567" x1="4.83297" y1="9.88675" x2="9.32888" y2="15.9676" gradientUnits="userSpaceOnUse">
<stop stop-color="white"/>
<stop offset="0.1091" stop-color="#D8E8F3"/>
<stop offset="0.3376" stop-color="#8CBCDC"/>
<stop offset="0.5419" stop-color="#5099C9"/>
<stop offset="0.7143" stop-color="#257FBC"/>
<stop offset="0.8481" stop-color="#0A70B4"/>
<stop offset="0.927" stop-color="#006AB1"/>
<stop offset="0.9288" stop-color="#046BB2"/>
<stop offset="0.9489" stop-color="#2678B8"/>
<stop offset="0.968" stop-color="#3E81BD"/>
<stop offset="0.9856" stop-color="#4D86C0"/>
<stop offset="1" stop-color="#5288C1"/>
</linearGradient>
</defs>
</svg>
